<svg width="185" height="194" viewBox="0 0 185 194" fill="none" xmlns="http://www.w3.org/2000/svg">
<path d="M31.756 82.4659L40.9617 75.1031C33.8102 74.3141 30.8718 78.2144 29.6692 81.3015C24.0822 78.9815 18 82.0219 18 82.0219L36.4189 88.7086C35.4897 86.2267 33.8722 84.0612 31.756 82.4659Z" fill="#585489"/>
<path d="M171.369 118.892L185 108.15C174.411 106.999 170.06 112.69 168.279 117.193C160.006 113.809 151 118.245 151 118.245L178.273 128C176.897 124.379 174.502 121.22 171.369 118.892Z" fill="#585489"/>
<path d="M94.1753 11.4369L105 0.157955C96.5908 -1.0507 93.1356 4.92404 91.7215 9.65311C85.1519 6.09914 78 10.7568 78 10.7568L99.6583 21C98.5656 17.198 96.6636 13.8807 94.1753 11.4369Z" fill="#3F3D52"/>
<path d="M17.3735 183.981L29 172.165C19.9679 170.899 16.2567 177.159 14.7379 182.113C7.68165 178.39 0 183.269 0 183.269L23.2626 194C22.089 190.017 20.0461 186.542 17.3735 183.981Z" fill="#3F3D52"/>
</svg>
