<svg width="1313" height="283" viewBox="0 0 1313 283" fill="none" xmlns="http://www.w3.org/2000/svg">
<g clip-path="url(#clip0_1_162)" filter="url(#filter0_d_1_162)">
<g filter="url(#filter1_i_1_162)">
<path fill-rule="evenodd" clip-rule="evenodd" d="M1342.3 140.625L1311.84 131.25C1281.36 121.875 1220.44 103.125 1159.51 93.75C1098.57 84.375 1037.65 84.375 976.726 103.125C915.796 121.875 854.864 159.375 793.935 150C733.007 140.625 672.077 84.375 611.149 75C550.219 65.625 489.29 103.125 428.361 107.812C367.432 112.5 306.503 84.375 245.574 103.125C184.645 121.875 123.715 187.5 62.7867 178.125C1.85756 168.75 -59.0715 84.375 -89.5361 42.1875L-120.001 0V253.125H-89.5361C-59.0715 253.125 1.85756 253.125 62.7867 253.125C123.715 253.125 184.645 253.125 245.574 253.125C306.503 253.125 367.432 253.125 428.361 253.125C489.29 253.125 550.219 253.125 611.149 253.125C672.077 253.125 733.007 253.125 793.935 253.125C854.864 253.125 915.796 253.125 976.726 253.125C1037.65 253.125 1098.57 253.125 1159.51 253.125C1220.44 253.125 1281.36 253.125 1311.84 253.125H1342.3V140.625Z" fill="#333246"/>
<path fill-rule="evenodd" clip-rule="evenodd" d="M1309.03 162.5L1280.93 153.125C1252.84 143.75 1196.65 125 1140.47 115.625C1084.28 106.25 1028.09 106.25 971.904 125C915.714 143.75 859.527 181.25 803.343 171.875C747.156 162.5 690.968 106.25 634.781 96.875C578.594 87.5 522.406 125 466.219 129.688C410.033 134.375 353.844 106.25 297.658 125C241.471 143.75 185.283 209.375 129.096 200C72.9086 190.625 16.7217 106.25 -11.3719 64.0625L-39.4655 21.875V275H-11.3719C16.7217 275 72.9086 275 129.096 275C185.283 275 241.471 275 297.658 275C353.844 275 410.033 275 466.219 275C522.406 275 578.594 275 634.781 275C690.968 275 747.156 275 803.343 275C859.527 275 915.714 275 971.904 275C1028.09 275 1084.28 275 1140.47 275C1196.65 275 1252.84 275 1280.93 275H1309.03V162.5Z" fill="#282833"/>
<path d="M958.328 90.625L949.426 124.483H967.22L958.328 90.625Z" fill="#333246"/>
<path d="M948.96 93.4859L940.067 127.344H957.861L948.96 93.4859Z" fill="#333246"/>
<path d="M937.725 93.4859L928.824 127.344H946.618L937.725 93.4859Z" fill="#333246"/>
<path opacity="0.1" d="M1120.66 101.057C1124.61 101.057 1127.82 100.69 1127.82 100.237C1127.82 99.7836 1124.61 99.4164 1120.66 99.4164C1116.7 99.4164 1113.5 99.7836 1113.5 100.237C1113.5 100.69 1116.7 101.057 1120.66 101.057Z" fill="#6C63FF"/>
<path opacity="0.1" d="M1152.97 97.9164C1156.92 97.9164 1160.14 97.5492 1160.14 97.0961C1160.14 96.643 1156.92 96.2758 1152.97 96.2758C1149.02 96.2758 1145.8 96.643 1145.8 97.0961C1145.8 97.5492 1149.02 97.9164 1152.97 97.9164Z" fill="#6C63FF"/>
<path opacity="0.1" d="M1109.67 107.427C1112.49 107.427 1114.77 107.166 1114.77 106.844C1114.77 106.522 1112.49 106.261 1109.67 106.261C1106.86 106.261 1104.59 106.522 1104.59 106.844C1104.59 107.166 1106.86 107.427 1109.67 107.427Z" fill="#6C63FF"/>
<path opacity="0.1" d="M1138.15 106.844C1140.96 106.844 1143.24 106.583 1143.24 106.261C1143.24 105.939 1140.96 105.677 1138.15 105.677C1135.33 105.677 1133.06 105.939 1133.06 106.261C1133.06 106.583 1135.33 106.844 1138.15 106.844Z" fill="#6C63FF"/>
<path d="M1120.81 100.053C1120.81 100.053 1110.77 72.5841 1122.38 61.582C1131.07 53.3515 1140.93 54.3364 1145.35 55.3549C1146.49 55.6087 1147.57 56.0667 1148.47 56.6974C1149.38 57.328 1150.11 58.1161 1150.63 59.007C1152.18 61.7873 1151.89 66.2988 1140.99 71.5641C1122.73 80.3805 1121.59 92.475 1121.59 92.475L1120.81 100.053Z" fill="#6C63FF"/>
<path d="M1143.78 59.2505C1143.78 59.2505 1114.17 66.9737 1120.81 100.053" stroke="#565987" stroke-miterlimit="10"/>
<path d="M1126.49 62.0192C1126.49 62.0192 1130.57 64.3114 1129.27 67.7556" stroke="#565987" stroke-miterlimit="10"/>
<path d="M1140.81 64.0593C1140.81 64.0593 1138.33 61.9441 1135.29 63.1109" stroke="#565987" stroke-miterlimit="10"/>
<path d="M1129.1 74.6971C1129.1 74.6971 1124.73 72.8441 1123.6 75.1648" stroke="#565987" stroke-miterlimit="10"/>
<path d="M1118.28 78.5586C1118.28 78.5586 1121.57 78.3398 1121.62 79.6516" stroke="#565987" stroke-miterlimit="10"/>
<path d="M1120.4 100.271C1120.4 100.271 1132.17 80.307 1135.4 80.7445C1136.93 80.9523 1137.65 82.2117 1137.97 83.4773C1138.36 85.1133 1138.13 86.8117 1137.32 88.3367C1135.65 91.5313 1131.17 97.5984 1120.4 100.271Z" fill="#6C63FF"/>
<path d="M1135.32 84.5336C1135.32 84.5336 1122.96 99.4703 1120.59 100.126" stroke="#565987" stroke-miterlimit="10"/>
<path d="M1136.45 86.8648H1133.57" stroke="#565987" stroke-miterlimit="10"/>
<path d="M1132.99 92.3297L1128.48 92.4901" stroke="#565987" stroke-miterlimit="10"/>
<path d="M1130.25 87.9578L1130.73 89.9211" stroke="#565987" stroke-miterlimit="10"/>
<path d="M1125.44 93.9328L1125.53 95.7164" stroke="#565987" stroke-miterlimit="10"/>
<path d="M1120.75 100.271C1120.75 100.271 1108.99 80.307 1105.76 80.7445C1104.23 80.9523 1103.52 82.2117 1103.19 83.4773C1102.8 85.1133 1103.03 86.8117 1103.84 88.3367C1105.51 91.5313 1109.99 97.5984 1120.75 100.271Z" fill="#6C63FF"/>
<path d="M1105.85 84.5336C1105.85 84.5336 1118.2 99.4703 1120.59 100.126" stroke="#565987" stroke-miterlimit="10"/>
<path d="M1104.71 86.8648H1107.6" stroke="#565987" stroke-miterlimit="10"/>
<path d="M1108.17 92.3297L1112.68 92.4901" stroke="#565987" stroke-miterlimit="10"/>
<path d="M1110.91 87.9578L1110.42 89.9211" stroke="#565987" stroke-miterlimit="10"/>
<path d="M1115.72 93.9328L1115.63 95.7164" stroke="#565987" stroke-miterlimit="10"/>
<path d="M1140.95 104.934C1141.27 104.716 1141.51 104.422 1141.63 104.091C1141.67 103.925 1141.66 103.748 1141.57 103.592C1141.49 103.436 1141.33 103.309 1141.16 103.232C1140.73 103.095 1140.27 103.344 1139.92 103.595C1139.57 103.845 1139.18 104.132 1138.72 104.079C1138.95 103.902 1139.13 103.677 1139.22 103.426C1139.32 103.176 1139.34 102.908 1139.29 102.649C1139.26 102.542 1139.21 102.442 1139.13 102.359C1138.88 102.146 1138.45 102.238 1138.17 102.405C1137.26 102.938 1137 103.967 1137 104.894C1136.95 104.553 1136.94 104.209 1136.98 103.869C1137 103.698 1136.97 103.525 1136.89 103.367C1136.81 103.209 1136.68 103.07 1136.52 102.962C1136.31 102.865 1136.07 102.817 1135.82 102.823C1135.62 102.799 1135.41 102.811 1135.21 102.858C1135.01 102.904 1134.84 102.985 1134.67 103.095C1134.53 103.266 1134.45 103.473 1134.46 103.686C1134.46 103.898 1134.56 104.102 1134.73 104.264C1135.06 104.582 1135.45 104.849 1135.91 105.054C1136.24 105.222 1136.53 105.452 1136.75 105.726C1136.78 105.764 1136.8 105.804 1136.82 105.846H1139.37C1139.94 105.603 1140.48 105.296 1140.95 104.934Z" fill="#6C63FF"/>
<path d="M1111.07 104.934C1111.39 104.716 1111.62 104.422 1111.74 104.091C1111.79 103.925 1111.78 103.748 1111.68 103.592C1111.6 103.436 1111.46 103.309 1111.26 103.232C1110.83 103.095 1110.38 103.344 1110.03 103.595C1109.68 103.845 1109.28 104.132 1108.83 104.079C1109.07 103.902 1109.24 103.677 1109.34 103.426C1109.44 103.176 1109.46 102.908 1109.4 102.649C1109.38 102.542 1109.32 102.442 1109.23 102.359C1109 102.146 1108.57 102.238 1108.28 102.405C1107.38 102.938 1107.12 103.967 1107.12 104.894C1107.06 104.553 1107.06 104.209 1107.1 103.869C1107.12 103.698 1107.08 103.525 1107.01 103.367C1106.92 103.209 1106.8 103.07 1106.64 102.962C1106.42 102.865 1106.19 102.817 1105.93 102.823C1105.73 102.799 1105.53 102.811 1105.33 102.858C1105.13 102.904 1104.94 102.985 1104.8 103.095C1104.64 103.266 1104.56 103.473 1104.58 103.686C1104.59 103.898 1104.68 104.102 1104.83 104.264C1105.17 104.582 1105.57 104.849 1106.02 105.054C1106.36 105.222 1106.65 105.452 1106.86 105.726C1106.88 105.764 1106.91 105.804 1106.92 105.846H1109.49C1110.06 105.603 1110.6 105.296 1111.07 104.934Z" fill="#6C63FF"/>
<path d="M1153.44 88.6805C1153.44 88.6805 1154.39 89.7273 1153 91.3078C1151.59 92.8891 1150.43 94.2227 1150.9 95.2078C1150.9 95.2078 1153.02 92.2727 1154.74 92.232C1156.46 92.1906 1155.32 90.4461 1153.44 88.6805Z" fill="#6C63FF"/>
<path opacity="0.1" d="M1153.44 88.6805C1153.52 88.782 1153.58 88.8922 1153.63 89.0094C1155.3 90.6563 1156.21 92.193 1154.59 92.232C1153.09 92.268 1151.28 94.5125 1150.85 95.0789C1150.86 95.1227 1150.88 95.1656 1150.9 95.2078C1150.9 95.2078 1153.02 92.2727 1154.74 92.232C1156.46 92.1906 1155.32 90.4461 1153.44 88.6805Z" fill="black"/>
<path d="M1155.21 90.0148C1155.21 90.3836 1155.17 90.682 1155.11 90.682C1155.05 90.682 1155 90.3836 1155 90.0148C1155 89.6469 1155.06 89.8203 1155.12 89.8203C1155.18 89.8203 1155.21 89.6469 1155.21 90.0148Z" fill="#FFD037"/>
<path d="M1155.84 90.4547C1155.44 90.6313 1155.1 90.7375 1155.08 90.693C1155.05 90.6484 1155.34 90.4688 1155.72 90.293C1156.11 90.1164 1155.96 90.2445 1155.99 90.2891C1156.02 90.3344 1156.22 90.2789 1155.84 90.4547Z" fill="#FFD037"/>
<path d="M1148.37 88.6805C1148.37 88.6805 1147.4 89.7273 1148.81 91.3078C1150.22 92.8891 1151.36 94.2227 1150.9 95.2078C1150.9 95.2078 1148.78 92.2727 1147.06 92.232C1145.34 92.1906 1146.47 90.4461 1148.37 88.6805Z" fill="#6C63FF"/>
<path opacity="0.1" d="M1148.37 88.6805C1148.29 88.782 1148.22 88.8922 1148.17 89.0094C1146.49 90.6563 1145.6 92.193 1147.21 92.232C1148.72 92.268 1150.52 94.5125 1150.95 95.0789C1150.93 95.1227 1150.91 95.1656 1150.9 95.2078C1150.9 95.2078 1148.78 92.2727 1147.06 92.232C1145.34 92.1906 1146.47 90.4461 1148.37 88.6805Z" fill="black"/>
<path d="M1146.58 90.0148C1146.58 90.3836 1146.63 90.682 1146.7 90.682C1146.76 90.682 1146.81 90.3836 1146.81 90.0148C1146.81 89.6469 1146.74 89.8203 1146.69 89.8203C1146.62 89.8203 1146.58 89.6469 1146.58 90.0148Z" fill="#FFD037"/>
<path d="M1145.97 90.4547C1146.36 90.6313 1146.7 90.7375 1146.72 90.693C1146.76 90.6484 1146.47 90.4688 1146.07 90.293C1145.69 90.1164 1145.85 90.2445 1145.81 90.2891C1145.78 90.3344 1145.58 90.2789 1145.97 90.4547Z" fill="#FFD037"/>
<path d="M1146.89 95.0711C1146.89 95.0711 1149.57 95.0023 1150.38 94.5219C1151.19 94.0414 1154.5 93.468 1154.71 94.2383C1154.9 95.0086 1158.74 98.0695 1155.71 98.0898C1152.68 98.1102 1148.67 97.6961 1147.87 97.2867C1147.06 96.8766 1146.89 95.0711 1146.89 95.0711Z" fill="#A8A8A8"/>
<path opacity="0.2" d="M1155.77 97.8219C1152.73 97.8422 1148.73 97.4281 1147.92 97.018C1147.3 96.7062 1147.06 95.5852 1146.97 95.068C1146.92 95.0703 1146.89 95.0711 1146.89 95.0711C1146.89 95.0711 1147.06 96.8766 1147.87 97.2867C1148.67 97.6969 1152.68 98.1102 1155.71 98.0898C1156.59 98.0844 1156.88 97.825 1156.87 97.4406C1156.75 97.6727 1156.41 97.8172 1155.77 97.8219Z" fill="black"/>
<path opacity="0.1" d="M523.296 105.718C520.766 105.718 518.717 105.395 518.717 104.995C518.717 104.596 520.766 104.272 523.296 104.272C525.825 104.272 527.874 104.596 527.874 104.995C527.874 105.395 525.825 105.718 523.296 105.718Z" fill="#6C63FF"/>
<path opacity="0.1" d="M502.637 102.949C500.108 102.949 498.059 102.626 498.059 102.227C498.059 101.827 500.108 101.503 502.637 101.503C505.166 101.503 507.217 101.827 507.217 102.227C507.217 102.626 505.166 102.949 502.637 102.949Z" fill="#6C63FF"/>
<path opacity="0.1" d="M530.316 111.334C528.518 111.334 527.061 111.103 527.061 110.82C527.061 110.535 528.518 110.305 530.316 110.305C532.113 110.305 533.57 110.535 533.57 110.82C533.57 111.103 532.113 111.334 530.316 111.334Z" fill="#6C63FF"/>
<path opacity="0.1" d="M512.112 110.82C510.315 110.82 508.858 110.589 508.858 110.305C508.858 110.021 510.315 109.791 512.112 109.791C513.91 109.791 515.367 110.021 515.367 110.305C515.367 110.589 513.91 110.82 512.112 110.82Z" fill="#6C63FF"/>
<path d="M523.197 104.833C523.197 104.833 529.62 80.6195 522.192 70.9212C516.636 63.6661 510.331 64.5342 507.507 65.432C506.777 65.6557 506.096 66.0595 505.515 66.6154C504.932 67.1713 504.463 67.866 504.138 68.6514C503.151 71.1021 503.329 75.0791 510.299 79.7203C521.97 87.4914 522.695 98.1531 522.695 98.1531L523.197 104.833Z" fill="#6C63FF"/>
<path d="M508.512 68.8659C508.512 68.8659 527.441 75.674 523.197 104.833" stroke="#565987" stroke-miterlimit="10"/>
<path d="M519.568 71.3066C519.568 71.3066 516.961 73.3272 517.79 76.3631" stroke="#565987" stroke-miterlimit="10"/>
<path d="M510.41 73.105C510.41 73.105 512.004 71.2403 513.943 72.269" stroke="#565987" stroke-miterlimit="10"/>
<path d="M517.893 82.482C517.893 82.482 520.691 80.8484 521.414 82.8945" stroke="#565987" stroke-miterlimit="10"/>
<path d="M524.817 85.8859C524.817 85.8859 522.715 85.6938 522.677 86.8492" stroke="#565987" stroke-miterlimit="10"/>
<path d="M523.457 105.026C523.457 105.026 515.937 87.4273 513.87 87.8125C512.89 87.9961 512.437 89.1063 512.233 90.2219C511.979 91.6641 512.122 93.1609 512.642 94.5055C513.708 97.3211 516.576 102.67 523.457 105.026Z" fill="#6C63FF"/>
<path d="M513.926 91.1524C513.926 91.1524 521.82 104.32 523.345 104.897" stroke="#565987" stroke-miterlimit="10"/>
<path d="M513.201 93.2078H515.043" stroke="#565987" stroke-miterlimit="10"/>
<path d="M515.407 98.025L518.295 98.1668" stroke="#565987" stroke-miterlimit="10"/>
<path d="M517.166 94.1711L516.852 95.9016" stroke="#565987" stroke-miterlimit="10"/>
<path d="M520.236 99.4383L520.18 101.01" stroke="#565987" stroke-miterlimit="10"/>
<path d="M523.233 105.026C523.233 105.026 530.754 87.4273 532.82 87.8125C533.801 87.9961 534.253 89.1063 534.458 90.2219C534.712 91.6641 534.568 93.1609 534.048 94.5055C532.982 97.3211 530.115 102.67 523.233 105.026Z" fill="#6C63FF"/>
<path d="M532.765 91.1524C532.765 91.1524 524.871 104.32 523.345 104.897" stroke="#565987" stroke-miterlimit="10"/>
<path d="M533.49 93.2078H531.648" stroke="#565987" stroke-miterlimit="10"/>
<path d="M531.284 98.025L528.395 98.1668" stroke="#565987" stroke-miterlimit="10"/>
<path d="M529.525 94.1711L529.839 95.9016" stroke="#565987" stroke-miterlimit="10"/>
<path d="M526.455 99.4383L526.511 101.01" stroke="#565987" stroke-miterlimit="10"/>
<path d="M510.321 109.135C510.116 108.944 509.966 108.684 509.892 108.392C509.859 108.246 509.872 108.091 509.926 107.953C509.979 107.816 510.074 107.703 510.192 107.636C510.466 107.515 510.76 107.734 510.982 107.955C511.204 108.176 511.46 108.429 511.752 108.382C511.602 108.226 511.489 108.027 511.426 107.806C511.362 107.586 511.35 107.35 511.389 107.122C511.402 107.027 511.437 106.939 511.489 106.866C511.642 106.678 511.919 106.759 512.102 106.906C512.682 107.376 512.845 108.284 512.848 109.1C512.879 108.8 512.882 108.497 512.858 108.196C512.847 108.045 512.868 107.894 512.919 107.755C512.971 107.615 513.051 107.492 513.153 107.397C513.291 107.312 513.447 107.27 513.603 107.275C513.732 107.254 513.864 107.264 513.989 107.305C514.116 107.346 514.234 107.417 514.333 107.514C514.43 107.665 514.479 107.848 514.474 108.035C514.468 108.222 514.409 108.402 514.304 108.545C514.089 108.825 513.833 109.061 513.548 109.241C513.332 109.389 513.148 109.592 513.01 109.834C512.992 109.867 512.979 109.902 512.969 109.939H511.332C510.965 109.725 510.624 109.455 510.321 109.135Z" fill="#6C63FF"/>
<path d="M529.427 109.135C529.223 108.944 529.072 108.684 528.999 108.392C528.965 108.246 528.977 108.091 529.032 107.953C529.086 107.816 529.179 107.703 529.298 107.636C529.572 107.515 529.867 107.734 530.088 107.955C530.311 108.176 530.566 108.429 530.858 108.382C530.708 108.226 530.596 108.027 530.533 107.806C530.469 107.586 530.457 107.35 530.496 107.122C530.509 107.027 530.544 106.939 530.597 106.866C530.748 106.678 531.026 106.759 531.209 106.906C531.789 107.376 531.951 108.284 531.953 109.1C531.985 108.8 531.989 108.497 531.965 108.196C531.952 108.045 531.974 107.894 532.026 107.755C532.077 107.615 532.157 107.492 532.26 107.397C532.398 107.312 532.553 107.27 532.709 107.275C532.839 107.254 532.971 107.264 533.097 107.305C533.222 107.346 533.339 107.417 533.44 107.514C533.536 107.665 533.586 107.848 533.58 108.035C533.574 108.222 533.516 108.402 533.411 108.545C533.196 108.825 532.94 109.061 532.655 109.241C532.439 109.389 532.254 109.592 532.115 109.834C532.099 109.867 532.086 109.902 532.075 109.939H530.438C530.071 109.725 529.731 109.455 529.427 109.135Z" fill="#6C63FF"/>
<path d="M502.34 94.8086C502.34 94.8086 501.727 95.7312 502.623 97.1242C503.521 98.518 504.259 99.6937 503.961 100.562C503.961 100.562 502.607 97.975 501.507 97.9391C500.406 97.9023 501.128 96.3648 502.34 94.8086Z" fill="#6C63FF"/>
<path opacity="0.1" d="M502.34 94.8086C502.286 94.8977 502.244 94.9953 502.215 95.0977C501.14 96.55 500.567 97.9047 501.6 97.9391C502.563 97.9703 503.716 99.9492 503.993 100.448C503.984 100.488 503.973 100.525 503.961 100.562C503.961 100.562 502.607 97.975 501.507 97.9391C500.406 97.9023 501.128 96.3648 502.34 94.8086Z" fill="black"/>
<path d="M501.2 95.9844C501.2 96.3094 501.232 96.5727 501.271 96.5727C501.309 96.5727 501.341 96.3094 501.341 95.9844C501.341 95.6602 501.302 95.8125 501.263 95.8125C501.223 95.8125 501.2 95.6602 501.2 95.9844Z" fill="#FFD037"/>
<path d="M500.808 96.3727C501.056 96.5281 501.273 96.6219 501.291 96.582C501.31 96.543 501.124 96.3852 500.876 96.2297C500.629 96.0742 500.726 96.1867 500.707 96.2266C500.688 96.2664 500.56 96.2172 500.808 96.3727Z" fill="#FFD037"/>
<path d="M505.58 94.8086C505.58 94.8086 506.194 95.7312 505.297 97.1242C504.401 98.518 503.662 99.6937 503.961 100.562C503.961 100.562 505.314 97.975 506.414 97.9391C507.515 97.9023 506.792 96.3648 505.58 94.8086Z" fill="#6C63FF"/>
<path opacity="0.1" d="M505.58 94.8086C505.634 94.8977 505.676 94.9953 505.706 95.0977C506.78 96.55 507.353 97.9047 506.32 97.9391C505.359 97.9703 504.204 99.9492 503.928 100.448C503.937 100.488 503.947 100.525 503.961 100.562C503.961 100.562 505.314 97.975 506.414 97.9391C507.515 97.9023 506.792 96.3648 505.58 94.8086Z" fill="black"/>
<path d="M506.722 95.9844C506.722 96.3094 506.69 96.5727 506.65 96.5727C506.612 96.5727 506.58 96.3094 506.58 95.9844C506.58 95.6602 506.619 95.8125 506.659 95.8125C506.698 95.8125 506.722 95.6602 506.722 95.9844Z" fill="#FFD037"/>
<path d="M507.112 96.3727C506.864 96.5281 506.648 96.6219 506.629 96.582C506.61 96.543 506.797 96.3852 507.045 96.2297C507.293 96.0742 507.195 96.1867 507.214 96.2266C507.232 96.2664 507.36 96.2172 507.112 96.3727Z" fill="#FFD037"/>
<path d="M506.525 100.441C506.525 100.441 504.811 100.381 504.294 99.9578C503.777 99.5344 501.654 99.0289 501.526 99.7078C501.398 100.387 498.949 103.085 500.886 103.103C502.823 103.121 505.386 102.756 505.901 102.395C506.417 102.033 506.525 100.441 506.525 100.441Z" fill="#A8A8A8"/>
<path opacity="0.2" d="M500.851 102.866C502.788 102.884 505.351 102.52 505.867 102.158C506.26 101.883 506.415 100.895 506.468 100.439C506.505 100.441 506.525 100.441 506.525 100.441C506.525 100.441 506.417 102.033 505.901 102.395C505.386 102.755 502.823 103.121 500.886 103.103C500.327 103.098 500.133 102.869 500.144 102.53C500.222 102.734 500.435 102.863 500.851 102.866Z" fill="black"/>
<path d="M178.399 157.815C178.399 157.815 183.523 157.131 186.596 160.152C186.596 160.152 184.342 161.634 179.493 159.582L178.399 157.815Z" fill="#67B9DD"/>
<path d="M177.852 157.748C177.852 157.748 174.584 161.111 176.187 164.841C176.187 164.841 178.852 163.951 179.141 159.421L177.852 157.748Z" fill="#67B9DD"/>
<path d="M174.916 152.23C174.916 152.23 176.965 149.096 185.163 153.484C185.163 153.484 184.069 155.593 180.449 155.422C176.828 155.251 175.872 153.883 174.916 152.23Z" fill="#67B9DD"/>
<path d="M174.387 152.005C174.387 152.005 170.135 151.6 169.722 159.718C169.722 159.718 172.419 160.185 174.334 157.616C176.248 155.047 175.457 153.608 174.387 152.005Z" fill="#67B9DD"/>
<path d="M171.909 145.528C171.909 145.528 174.301 140 182.975 143.932C182.975 143.932 180.996 149.004 172.799 147.409L171.909 145.528Z" fill="#67B9DD"/>
<path d="M169.246 137.265C169.246 137.265 173.755 131.68 181.746 136.866C181.746 136.866 178.946 142.109 169.93 139.259L169.246 137.265Z" fill="#67B9DD"/>
<path d="M168.289 129.4C168.289 129.4 173.55 124.271 181.474 129.4C181.474 129.4 176.487 133.902 168.289 130.711V129.4Z" fill="#67B9DD"/>
<path d="M167.471 121.764C167.471 121.764 172.799 116.407 180.38 121.479C180.38 121.479 174.369 126.209 167.471 123.018V121.764Z" fill="#67B9DD"/>
<path d="M167.949 114.982C167.949 114.982 173.55 108.087 180.654 112.76C180.654 112.76 174.642 118.687 167.949 116.293V114.982Z" fill="#67B9DD"/>
<path d="M169.246 107.061C169.246 107.061 175.189 100.223 182.088 105.466C182.088 105.466 175.053 111.392 169.246 108.315V107.061Z" fill="#67B9DD"/>
<path d="M171.228 99.9805C171.228 99.9805 178.263 93.5547 184.411 96.1195C184.411 96.1195 177.079 102.944 170.931 101.691L171.228 99.9805Z" fill="#67B9DD"/>
<path d="M173.686 93.2703C173.686 93.2703 181.814 85.4055 186.528 88.0273C186.528 88.0273 180.547 94.125 173.101 94.7516L173.686 93.2703Z" fill="#67B9DD"/>
<path d="M177.236 85.4852C177.236 85.4852 184.342 79.0578 189.534 80.6539C189.534 80.6539 183.455 87.3211 176.282 87.4922L177.236 85.4852Z" fill="#67B9DD"/>
<path d="M180.449 78.2031C180.449 78.2031 188.304 72.0484 191.72 73.1312C191.72 73.1312 186.05 79.9695 180.107 79.5711L180.449 78.2031Z" fill="#67B9DD"/>
<path d="M183.591 71.4785C183.591 71.4785 190.354 64.1271 194.042 64.697C194.042 64.697 189.944 71.2506 183.591 72.2194V71.4785Z" fill="#67B9DD"/>
<path d="M187.001 62.4137C187.001 62.4137 192.978 56.777 196.206 56.7908C196.206 56.7908 191.489 64.3162 186.755 64.2514L187.001 62.4137Z" fill="#67B9DD"/>
<path d="M189.022 56.3767L194.793 44.6372C194.793 44.6372 195.083 55.2491 188.286 58.5544L189.022 56.3767Z" fill="#67B9DD"/>
<path d="M191.365 43.4304C191.365 43.4304 192.321 33.6285 191.707 32.8307C191.707 32.8307 195.835 40.9799 191.325 47.7615L191.365 43.4304Z" fill="#67B9DD"/>
<path d="M171.687 145.397C171.687 145.397 165.699 142.301 161.824 149.877C161.824 149.877 167.151 152.827 172.391 147.33L171.687 145.397Z" fill="#67B9DD"/>
<path d="M169.054 136.949C169.054 136.949 161.711 134.155 158.149 142.062C158.149 142.062 163.822 145.309 169.722 138.948L169.054 136.949Z" fill="#67B9DD"/>
<path d="M167.949 129.87C167.949 129.87 162.689 124.741 154.764 129.87C154.764 129.87 159.751 134.373 167.949 131.181V129.87Z" fill="#67B9DD"/>
<path d="M167.291 121.764C167.291 121.764 161.963 116.407 154.38 121.479C154.38 121.479 160.391 126.209 167.291 123.018V121.764Z" fill="#67B9DD"/>
<path d="M167.949 115.177C167.949 115.177 164.21 107.453 156.088 110.775C156.088 110.775 160.47 117.624 167.618 116.459L167.949 115.177Z" fill="#67B9DD"/>
<path d="M169.717 107.022C169.717 107.022 166.003 99.1641 157.756 102.809C157.756 102.809 162.8 110.01 169.342 108.237L169.717 107.022Z" fill="#67B9DD"/>
<path d="M172.019 100.021C172.019 100.021 170.547 91.4055 163.736 90.6344C163.736 90.6344 165.184 99.7188 171.11 101.573L172.019 100.021Z" fill="#67B9DD"/>
<path d="M173.861 93.2852C173.861 93.2852 173.289 82.9117 167.642 82.5445C167.642 82.5445 167.832 90.4227 173.224 94.7516L173.861 93.2852Z" fill="#67B9DD"/>
<path d="M177.822 85.1883C177.822 85.1883 176.137 76.5576 170.75 75.5023C170.75 75.5023 171.42 83.8609 177.291 87.3016L177.822 85.1883Z" fill="#67B9DD"/>
<path d="M181.088 78.2656C181.088 78.2656 181.03 69.2751 177.738 67.9538C177.738 67.9538 175.696 76.0923 180.134 79.4141L181.088 78.2656Z" fill="#67B9DD"/>
<path d="M183.842 71.3784C183.842 71.3784 183.381 62.1195 179.971 60.8152C179.971 60.8152 178.803 68.1427 183.331 71.9843L183.842 71.3784Z" fill="#67B9DD"/>
<path d="M187.477 63.1508C187.477 63.1508 187.456 55.625 185.022 53.8552C185.022 53.8552 182.602 62.1041 186.206 64.6655L187.477 63.1508Z" fill="#67B9DD"/>
<path d="M188.734 56.0063L186.367 43.4721C186.367 43.4721 183.149 53.7416 188.848 58.2667L188.734 56.0063Z" fill="#67B9DD"/>
<path d="M189.197 43.5495C189.197 43.5495 183.117 35.1245 183.243 34.1817C183.243 34.1817 183.888 43.0124 191.54 47.4143L189.197 43.5495Z" fill="#67B9DD"/>
<path d="M189.909 41.0612C189.909 41.0612 184.172 29.0938 181.576 28.125C181.576 28.125 189.773 31.6013 190.388 40.7193L189.909 41.0612Z" fill="#67B9DD"/>
<path d="M186.725 64.3219L186.332 64.2217C191.174 51.0484 192.383 42.6395 189.734 40.5441L190.016 40.2961C192.824 42.5172 191.686 50.8252 186.725 64.3219Z" fill="#444053"/>
<path d="M173.391 95.157L172.811 94.9859C173.324 93.7789 173.879 92.5539 174.46 91.3461C179.514 80.8375 183.817 71.0611 186.575 63.5549L187.08 63.3434C184.317 70.8631 180.091 81.0148 175.03 91.5375C174.453 92.7383 173.901 93.9562 173.391 95.157Z" fill="#444053"/>
<path d="M185.609 167.675C185.531 167.602 177.681 160.23 172.21 147.641C169.004 140.272 167.217 132.526 166.919 124.69C166.544 114.895 169.007 103.957 173.228 94.0234L173.686 94.4711C164.212 116.769 167.976 135.876 172.969 147.38C178.383 159.852 186.141 167.145 186.219 167.218L185.609 167.675Z" fill="#444053"/>
<path d="M1287.25 128.277C1287.25 128.277 1283.01 127.711 1280.47 130.207C1280.47 130.207 1282.34 131.432 1286.36 129.736L1287.25 128.277Z" fill="#67B9DD"/>
<path d="M1287.71 128.221C1287.71 128.221 1290.42 131 1289.09 134.083C1289.09 134.083 1286.88 133.347 1286.65 129.603L1287.71 128.221Z" fill="#67B9DD"/>
<path d="M1290.14 123.661C1290.14 123.661 1288.44 121.07 1281.66 124.697C1281.66 124.697 1282.56 126.44 1285.56 126.298C1288.55 126.157 1289.35 125.027 1290.14 123.661Z" fill="#67B9DD"/>
<path d="M1290.57 123.474C1290.57 123.474 1294.1 123.14 1294.44 129.849C1294.44 129.849 1292.21 130.235 1290.63 128.112C1289.05 125.989 1289.69 124.799 1290.57 123.474Z" fill="#67B9DD"/>
<path d="M1292.63 118.122C1292.63 118.122 1290.66 113.553 1283.47 116.803C1283.47 116.803 1285.11 120.995 1291.9 119.676L1292.63 118.122Z" fill="#67B9DD"/>
<path d="M1294.84 111.292C1294.84 111.292 1291.11 106.677 1284.48 110.963C1284.48 110.963 1286.81 115.295 1294.28 112.941L1294.84 111.292Z" fill="#67B9DD"/>
<path d="M1295.63 104.793C1295.63 104.793 1291.27 100.554 1284.71 104.793C1284.71 104.793 1288.84 108.513 1295.63 105.876V104.793Z" fill="#67B9DD"/>
<path d="M1296.31 98.482C1296.31 98.482 1291.9 94.0547 1285.62 98.2461C1285.62 98.2461 1290.6 102.155 1296.31 99.518V98.482Z" fill="#67B9DD"/>
<path d="M1295.92 92.8774C1295.92 92.8774 1291.27 87.1781 1285.39 91.0406C1285.39 91.0406 1290.37 95.9383 1295.92 93.9602V92.8774Z" fill="#67B9DD"/>
<path d="M1294.84 86.3305C1294.84 86.3305 1289.92 80.6789 1284.2 85.0117C1284.2 85.0117 1290.03 89.9102 1294.84 87.3664V86.3305Z" fill="#67B9DD"/>
<path d="M1293.2 80.4789C1293.2 80.4789 1287.36 75.1684 1282.28 77.2878C1282.28 77.2878 1288.35 82.9281 1293.45 81.8922L1293.2 80.4789Z" fill="#67B9DD"/>
<path d="M1291.16 74.9329C1291.16 74.9329 1284.43 68.4334 1280.52 70.5999C1280.52 70.5999 1285.48 75.6394 1291.65 76.1574L1291.16 74.9329Z" fill="#67B9DD"/>
<path d="M1288.22 68.499C1288.22 68.499 1282.34 63.1873 1278.03 64.506C1278.03 64.506 1283.07 70.0165 1289.02 70.1577L1288.22 68.499Z" fill="#67B9DD"/>
<path d="M1285.56 62.4809C1285.56 62.4809 1279.05 57.3943 1276.22 58.2891C1276.22 58.2891 1280.91 63.9409 1285.85 63.6112L1285.56 62.4809Z" fill="#67B9DD"/>
<path d="M1282.95 56.9233C1282.95 56.9233 1277.36 50.8477 1274.29 51.3187C1274.29 51.3187 1277.69 56.7349 1282.95 57.5355V56.9233Z" fill="#67B9DD"/>
<path d="M1280.13 49.4316C1280.13 49.4316 1275.19 44.7732 1272.51 44.7846C1272.51 44.7846 1276.41 51.004 1280.34 50.9505L1280.13 49.4316Z" fill="#67B9DD"/>
<path d="M1278.46 44.4424L1273.68 34.7403C1273.68 34.7403 1273.43 43.5105 1279.07 46.2422L1278.46 44.4424Z" fill="#67B9DD"/>
<path d="M1276.51 33.743C1276.51 33.743 1275.73 25.6421 1276.23 24.9827C1276.23 24.9827 1272.82 31.7177 1276.55 37.3223L1276.51 33.743Z" fill="#67B9DD"/>
<path d="M1292.82 118.013C1292.82 118.013 1297.78 115.455 1300.99 121.716C1300.99 121.716 1296.58 124.154 1292.24 119.612L1292.82 118.013Z" fill="#67B9DD"/>
<path d="M1295 111.032C1295 111.032 1301.08 108.723 1304.03 115.257C1304.03 115.257 1299.34 117.941 1294.44 112.684L1295 111.032Z" fill="#67B9DD"/>
<path d="M1295.92 105.181C1295.92 105.181 1300.27 100.942 1306.83 105.181C1306.83 105.181 1302.71 108.902 1295.92 106.265V105.181Z" fill="#67B9DD"/>
<path d="M1296.46 98.482C1296.46 98.482 1300.87 94.0547 1307.15 98.2461C1307.15 98.2461 1302.18 102.155 1296.46 99.518V98.482Z" fill="#67B9DD"/>
<path d="M1295.92 93.0383C1295.92 93.0383 1299.01 86.6547 1305.74 89.4C1305.74 89.4 1302.11 95.0602 1296.19 94.0977L1295.92 93.0383Z" fill="#67B9DD"/>
<path d="M1294.44 86.2984C1294.44 86.2984 1297.53 79.8039 1304.35 82.8156C1304.35 82.8156 1300.18 88.768 1294.76 87.3016L1294.44 86.2984Z" fill="#67B9DD"/>
<path d="M1292.54 80.5125C1292.54 80.5125 1293.77 73.392 1299.4 72.7546C1299.4 72.7546 1298.2 80.2625 1293.29 81.7953L1292.54 80.5125Z" fill="#67B9DD"/>
<path d="M1291.02 74.9452C1291.02 74.9452 1291.49 66.372 1296.17 66.069C1296.17 66.069 1296.01 72.5795 1291.54 76.1574L1291.02 74.9452Z" fill="#67B9DD"/>
<path d="M1287.73 68.2536C1287.73 68.2536 1289.13 61.1209 1293.59 60.2488C1293.59 60.2488 1293.04 67.1569 1288.17 70.0001L1287.73 68.2536Z" fill="#67B9DD"/>
<path d="M1285.02 62.5324C1285.02 62.5324 1285.08 55.1023 1287.8 54.0102C1287.8 54.0102 1289.5 60.7364 1285.82 63.4813L1285.02 62.5324Z" fill="#67B9DD"/>
<path d="M1282.75 56.8405C1282.75 56.8405 1283.14 49.1886 1285.95 48.1105C1285.95 48.1105 1286.92 54.1664 1283.17 57.3413L1282.75 56.8405Z" fill="#67B9DD"/>
<path d="M1279.73 50.0409C1279.73 50.0409 1279.75 43.8211 1281.76 42.3585C1281.76 42.3585 1283.77 49.1758 1280.8 51.2927L1279.73 50.0409Z" fill="#67B9DD"/>
<path d="M1278.7 44.1362L1280.65 33.7773C1280.65 33.7773 1283.32 42.2646 1278.6 46.0044L1278.7 44.1362Z" fill="#67B9DD"/>
<path d="M1278.32 33.8413C1278.32 33.8413 1283.35 26.8784 1283.25 26.0994C1283.25 26.0994 1282.72 33.3975 1276.38 37.0354L1278.32 33.8413Z" fill="#67B9DD"/>
<path d="M1277.72 31.7849C1277.72 31.7849 1282.48 21.8944 1284.62 21.0938C1284.62 21.0938 1277.83 23.9667 1277.33 31.5023L1277.72 31.7849Z" fill="#67B9DD"/>
<path d="M1280.37 51.0087L1280.69 50.9259C1276.67 40.0388 1275.67 33.0893 1277.87 31.3576L1277.64 31.1525C1275.31 32.9882 1276.25 39.8544 1280.37 51.0087Z" fill="#444053"/>
<path d="M1291.41 76.4925L1291.89 76.3509C1291.46 75.3533 1291 74.3412 1290.52 73.343C1286.34 64.6577 1282.77 56.5783 1280.48 50.3748L1280.06 50.2001C1282.36 56.4148 1285.86 64.8047 1290.04 73.5009C1290.52 74.4937 1290.99 75.5003 1291.41 76.4925Z" fill="#444053"/>
<path d="M1281.28 136.425C1281.34 136.364 1287.86 130.272 1292.39 119.868C1295.04 113.778 1296.51 107.376 1296.77 100.9C1297.08 92.8047 1295.04 83.7656 1291.54 75.5554L1291.16 75.9255C1299.01 94.3531 1295.89 110.145 1291.76 119.652C1287.27 129.96 1280.84 135.987 1280.79 136.047L1281.28 136.425Z" fill="#444053"/>
<path d="M134.715 172.018C134.715 172.018 143.698 171.788 146.405 170.179C149.113 168.571 160.223 166.651 160.895 169.23C161.567 171.809 174.395 182.059 164.252 182.127C154.111 182.195 140.687 180.809 137.986 179.436C135.284 178.063 134.715 172.018 134.715 172.018Z" fill="#A8A8A8"/>
</g>
</g>
<defs>
<filter id="filter0_d_1_162" x="0" y="0" width="1313" height="283" filterUnits="userSpaceOnUse" color-interpolation-filters="sRGB">
<feFlood flood-opacity="0" result="BackgroundImageFix"/>
<feColorMatrix in="SourceAlpha" type="matrix" values="0 0 0 0 0 0 0 0 0 0 0 0 0 0 0 0 0 0 127 0" result="hardAlpha"/>
<feOffset dy="4"/>
<feGaussianBlur stdDeviation="2"/>
<feComposite in2="hardAlpha" operator="out"/>
<feColorMatrix type="matrix" values="0 0 0 0 0 0 0 0 0 0 0 0 0 0 0 0 0 0 0.25 0"/>
<feBlend mode="normal" in2="BackgroundImageFix" result="effect1_dropShadow_1_162"/>
<feBlend mode="normal" in="SourceGraphic" in2="effect1_dropShadow_1_162" result="shape"/>
</filter>
<filter id="filter1_i_1_162" x="-120.001" y="0" width="1462.3" height="279" filterUnits="userSpaceOnUse" color-interpolation-filters="sRGB">
<feFlood flood-opacity="0" result="BackgroundImageFix"/>
<feBlend mode="normal" in="SourceGraphic" in2="BackgroundImageFix" result="shape"/>
<feColorMatrix in="SourceAlpha" type="matrix" values="0 0 0 0 0 0 0 0 0 0 0 0 0 0 0 0 0 0 127 0" result="hardAlpha"/>
<feOffset dy="4"/>
<feGaussianBlur stdDeviation="2"/>
<feComposite in2="hardAlpha" operator="arithmetic" k2="-1" k3="1"/>
<feColorMatrix type="matrix" values="0 0 0 0 0 0 0 0 0 0 0 0 0 0 0 0 0 0 0.25 0"/>
<feBlend mode="normal" in2="shape" result="effect1_innerShadow_1_162"/>
</filter>
<clipPath id="clip0_1_162">
<rect width="1305" height="275" fill="white" transform="translate(4)"/>
</clipPath>
</defs>
</svg>
