<svg width="1392" height="245" viewBox="0 0 1392 245" fill="none" xmlns="http://www.w3.org/2000/svg">
<path fill-rule="evenodd" clip-rule="evenodd" d="M0 0L234.128 116L464 68.6531L698.128 139.673L928 163.347L1162.13 208.327L1392 184.653V232H1162.13H928H698.128H464H234.128H0V0Z" fill="#37375A"/>
<path fill-rule="evenodd" clip-rule="evenodd" d="M0 44L234.128 144.5L464 103.48L698.128 165.01L928 185.52L1162.13 224.49L1392 203.98V245H1162.13H928H698.128H464H234.128H0V44Z" fill="#59597C"/>
<path d="M1285 148.811C1301.02 148.811 1314.01 136.604 1314.01 121.545C1314.01 106.486 1301.02 94.2788 1285 94.2788C1268.97 94.2788 1255.98 106.486 1255.98 121.545C1255.98 136.604 1268.97 148.811 1285 148.811Z" fill="#E6E6E6" fill-opacity="0.16"/>
<path d="M1277.16 161.361L1284.29 165.517V137.423L1276.29 132.764C1275.63 132.379 1275.15 131.775 1274.94 131.07V131.07C1275.7 130.933 1276.49 131.071 1277.16 131.456L1284.29 135.612V124.718C1284.29 122.611 1284.57 120.511 1285.11 118.466C1285.66 120.511 1285.93 122.611 1285.93 124.718V142.499L1296.46 136.368C1297.3 135.878 1298.28 135.626 1299.27 135.641C1298.84 136.48 1298.17 137.186 1297.33 137.676L1285.93 144.31V210.75H1284.29V167.328L1276.29 162.669C1275.63 162.284 1275.15 161.68 1274.94 160.975V160.975C1275.7 160.838 1276.49 160.976 1277.16 161.361Z" fill="#CCCCCC" fill-opacity="0.33"/>
<path d="M1242.02 151.126C1258.04 151.126 1271.04 138.919 1271.04 123.86C1271.04 108.801 1258.04 96.5938 1242.02 96.5938C1225.99 96.5938 1213 108.801 1213 123.86C1213 138.919 1225.99 151.126 1242.02 151.126Z" fill="#E6E6E6" fill-opacity="0.16"/>
<path d="M1263.1 113.891C1290.69 113.891 1313.06 92.8728 1313.06 66.9455C1313.06 41.0182 1290.69 20 1263.1 20C1235.5 20 1213.14 41.0182 1213.14 66.9455C1213.14 92.8728 1235.5 113.891 1263.1 113.891Z" fill="#E6E6E6" fill-opacity="0.16"/>
<path d="M1276.59 135.498L1264.31 142.654V94.2834L1278.08 86.2625C1279.22 85.5994 1280.05 84.5585 1280.41 83.346L1280.41 83.346H1280.41C1279.1 83.1098 1277.73 83.3467 1276.59 84.0098L1264.31 91.1657V72.4089C1264.31 68.7803 1263.83 65.1654 1262.89 61.6452C1261.96 65.1654 1261.48 68.7803 1261.48 72.4089V103.023L1243.35 92.4666C1241.91 91.6236 1240.23 91.1894 1238.53 91.2156C1239.26 92.6601 1240.42 93.8763 1241.87 94.7193L1261.48 106.141V211H1264.31V145.772L1278.08 137.751C1279.22 137.088 1280.05 136.047 1280.41 134.835L1280.41 134.835H1280.41C1279.1 134.598 1277.73 134.835 1276.59 135.498V135.498Z" fill="#CCCCCC" fill-opacity="0.15"/>
<path d="M1249.86 163.676L1242.72 167.832V139.738L1250.72 135.079C1251.38 134.694 1251.87 134.09 1252.07 133.386V133.386C1251.31 133.248 1250.52 133.386 1249.86 133.771L1242.72 137.927V127.033C1242.72 124.926 1242.44 122.826 1241.9 120.782C1241.36 122.826 1241.08 124.926 1241.08 127.033V144.814L1230.55 138.683C1229.71 138.193 1228.74 137.941 1227.75 137.956C1228.17 138.795 1228.85 139.502 1229.69 139.991L1241.08 146.625V210.897H1242.72V169.643L1250.72 164.984C1251.38 164.599 1251.87 163.995 1252.07 163.29V163.29C1251.31 163.153 1250.52 163.291 1249.86 163.676V163.676Z" fill="#CCCCCC" fill-opacity="0.33"/>
<path d="M148.634 27.6416C157.554 40.8096 154.709 87.9534 154.709 87.9534C154.709 87.9534 109.875 73.1097 100.955 59.9476C96.6717 53.6241 95.0759 45.8582 96.5185 38.3582C97.9611 30.8581 102.324 24.2383 108.647 19.955C114.971 15.6717 122.737 14.0759 130.237 15.5185C137.737 16.9611 144.357 21.324 148.64 27.6475L148.634 27.6416Z" fill="#6C63FF"/>
<path opacity="0.1" d="M148.634 27.6416C157.554 40.8096 154.709 87.9534 154.709 87.9534C154.709 87.9534 109.875 73.1097 100.955 59.9476C96.6717 53.6241 95.0759 45.8582 96.5185 38.3582C97.9611 30.8581 102.324 24.2383 108.647 19.955C114.971 15.6717 122.737 14.0759 130.237 15.5185C137.737 16.9611 144.357 21.324 148.64 27.6475L148.634 27.6416Z" fill="black"/>
<path d="M108.816 19.984C108.816 19.984 142.414 45.9243 154.884 88" stroke="#59597C" stroke-miterlimit="10"/>
<path d="M163.344 52.2552C163.344 52.2552 139.487 48.182 155.78 87.6974C155.78 87.6974 172.357 81.3782 173.649 65.6558C173.905 62.5969 173.031 59.5501 171.192 57.0924C169.353 54.6346 166.677 52.9363 163.67 52.3192L163.344 52.2552Z" fill="#6C63FF"/>
<path d="M163.693 52.2144C163.693 52.2144 168.238 74.0698 155.803 87.7091" stroke="#59597C" stroke-miterlimit="10"/>
<path d="M754.51 154.281C754.51 154.281 751.299 143.384 755.109 135.361C756.729 132.007 757.217 128.217 756.5 124.562C756.139 122.828 755.62 121.13 754.949 119.491" stroke="#59597C" stroke-width="2" stroke-miterlimit="10"/>
<path d="M757.348 114.419C757.348 115.753 754.928 119.63 754.928 119.63C754.928 119.63 752.525 115.753 752.525 114.419C752.525 113.778 752.779 113.162 753.233 112.709C753.687 112.255 754.302 112 754.944 112C755.585 112 756.201 112.255 756.655 112.709C757.108 113.162 757.363 113.778 757.363 114.419H757.348Z" fill="#6C63FF"/>
<path d="M761.349 121.817C760.625 122.939 756.49 124.877 756.49 124.877C756.49 124.877 756.567 120.313 757.291 119.191C757.459 118.914 757.681 118.674 757.943 118.484C758.206 118.294 758.504 118.16 758.819 118.087C759.135 118.015 759.462 118.007 759.781 118.063C760.1 118.12 760.404 118.239 760.676 118.416C760.947 118.592 761.181 118.821 761.362 119.089C761.544 119.357 761.67 119.659 761.733 119.976C761.796 120.294 761.794 120.621 761.728 120.938C761.662 121.255 761.533 121.556 761.349 121.822V121.817Z" fill="#6C63FF"/>
<path d="M761.173 134.451C759.979 135.051 755.435 134.637 755.435 134.637C755.435 134.637 757.803 130.734 758.997 130.135C759.28 129.992 759.59 129.906 759.906 129.883C760.223 129.859 760.542 129.898 760.843 129.998C761.145 130.098 761.424 130.256 761.665 130.463C761.905 130.671 762.103 130.924 762.246 131.207C762.389 131.491 762.474 131.8 762.498 132.117C762.521 132.434 762.482 132.752 762.382 133.054C762.283 133.356 762.125 133.635 761.917 133.875C761.71 134.116 761.457 134.313 761.173 134.456V134.451Z" fill="#6C63FF"/>
<path d="M758.888 143.999C757.813 144.795 753.264 145.152 753.264 145.152C753.264 145.152 754.939 140.903 756.014 140.112C756.531 139.761 757.163 139.624 757.779 139.729C758.395 139.834 758.946 140.174 759.317 140.676C759.688 141.178 759.851 141.804 759.771 142.424C759.691 143.043 759.375 143.608 758.888 143.999Z" fill="#6C63FF"/>
<path d="M751.408 125.146C752.364 126.077 756.831 127.043 756.831 127.043C756.831 127.043 755.74 122.608 754.763 121.677C754.299 121.252 753.687 121.024 753.058 121.043C752.429 121.061 751.832 121.324 751.393 121.775C750.955 122.226 750.709 122.831 750.709 123.46C750.709 124.09 750.954 124.694 751.392 125.146H751.408Z" fill="#6C63FF"/>
<path d="M748.875 136.322C750.069 136.922 754.613 136.509 754.613 136.509C754.613 136.509 752.245 132.606 751.051 132.006C750.478 131.717 749.814 131.668 749.204 131.869C748.595 132.071 748.091 132.506 747.802 133.079C747.514 133.652 747.464 134.316 747.666 134.925C747.867 135.535 748.302 136.039 748.875 136.328V136.322Z" fill="#6C63FF"/>
<path d="M747.903 147.535C748.978 148.331 753.527 148.688 753.527 148.688C753.527 148.688 751.852 144.439 750.777 143.648C750.26 143.297 749.628 143.16 749.012 143.265C748.396 143.37 747.845 143.71 747.474 144.212C747.103 144.714 746.94 145.34 747.02 145.96C747.1 146.579 747.416 147.144 747.903 147.535V147.535Z" fill="#6C63FF"/>
<path d="M747.526 153.216C747.526 153.216 753.393 152.043 754.954 150.477C756.515 148.91 763.556 146.176 764.342 148.13C765.128 150.084 774.903 156.732 768.25 157.905C761.597 159.079 752.607 159.456 750.674 158.686C748.74 157.916 747.526 153.216 747.526 153.216Z" fill="#A8A8A8"/>
<path opacity="0.1" d="M1136.66 212.202C1139.28 212.202 1141.39 211.868 1141.39 211.456C1141.39 211.044 1139.28 210.709 1136.66 210.709C1134.05 210.709 1131.93 211.044 1131.93 211.456C1131.93 211.868 1134.05 212.202 1136.66 212.202Z" fill="#6C63FF"/>
<path opacity="0.1" d="M1158.01 209.344C1160.63 209.344 1162.74 209.01 1162.74 208.597C1162.74 208.185 1160.63 207.851 1158.01 207.851C1155.4 207.851 1153.28 208.185 1153.28 208.597C1153.28 209.01 1155.4 209.344 1158.01 209.344Z" fill="#6C63FF"/>
<path opacity="0.1" d="M1129.41 218C1131.27 218 1132.77 217.762 1132.77 217.469C1132.77 217.176 1131.27 216.939 1129.41 216.939C1127.55 216.939 1126.04 217.176 1126.04 217.469C1126.04 217.762 1127.55 218 1129.41 218Z" fill="#6C63FF"/>
<path opacity="0.1" d="M1148.22 217.469C1150.08 217.469 1151.58 217.232 1151.58 216.939C1151.58 216.645 1150.08 216.408 1148.22 216.408C1146.36 216.408 1144.86 216.645 1144.86 216.939C1144.86 217.232 1146.36 217.469 1148.22 217.469Z" fill="#6C63FF"/>
<path d="M1136.76 211.288C1136.76 211.288 1130.13 186.288 1137.8 176.275C1143.54 168.784 1150.06 169.68 1152.98 170.607C1153.74 170.838 1154.44 171.255 1155.04 171.829C1155.64 172.403 1156.13 173.12 1156.46 173.931C1157.48 176.462 1157.3 180.568 1150.09 185.36C1138.03 193.384 1137.28 204.392 1137.28 204.392L1136.76 211.288Z" fill="#6C63FF"/>
<path d="M1151.94 174.153C1151.94 174.153 1132.38 181.182 1136.76 211.288" stroke="#565987" stroke-miterlimit="10"/>
<path d="M1140.52 176.673C1140.52 176.673 1143.21 178.759 1142.35 181.894" stroke="#565987" stroke-miterlimit="10"/>
<path d="M1149.98 178.53C1149.98 178.53 1148.33 176.604 1146.33 177.666" stroke="#565987" stroke-miterlimit="10"/>
<path d="M1142.25 188.211C1142.25 188.211 1139.35 186.525 1138.61 188.637" stroke="#565987" stroke-miterlimit="10"/>
<path d="M1135.09 191.726C1135.09 191.726 1137.26 191.527 1137.3 192.721" stroke="#565987" stroke-miterlimit="10"/>
<path d="M1136.5 211.487C1136.5 211.487 1144.27 193.318 1146.4 193.715C1147.42 193.904 1147.89 195.051 1148.1 196.203C1148.36 197.692 1148.21 199.238 1147.67 200.626C1146.57 203.533 1143.61 209.054 1136.5 211.487Z" fill="#6C63FF"/>
<path d="M1146.35 197.164C1146.35 197.164 1138.19 210.758 1136.61 211.355" stroke="#565987" stroke-miterlimit="10"/>
<path d="M1147.1 199.286H1145.19" stroke="#565987" stroke-miterlimit="10"/>
<path d="M1144.82 204.259L1141.83 204.406" stroke="#565987" stroke-miterlimit="10"/>
<path d="M1143 200.28L1143.32 202.067" stroke="#565987" stroke-miterlimit="10"/>
<path d="M1139.82 205.718L1139.88 207.342" stroke="#565987" stroke-miterlimit="10"/>
<path d="M1136.73 211.487C1136.73 211.487 1128.95 193.318 1126.82 193.715C1125.8 193.904 1125.34 195.051 1125.13 196.203C1124.86 197.692 1125.01 199.238 1125.55 200.626C1126.65 203.533 1129.61 209.054 1136.73 211.487Z" fill="#6C63FF"/>
<path d="M1126.88 197.164C1126.88 197.164 1135.04 210.758 1136.61 211.355" stroke="#565987" stroke-miterlimit="10"/>
<path d="M1126.13 199.286H1128.03" stroke="#565987" stroke-miterlimit="10"/>
<path d="M1128.41 204.259L1131.39 204.406" stroke="#565987" stroke-miterlimit="10"/>
<path d="M1130.22 200.28L1129.9 202.067" stroke="#565987" stroke-miterlimit="10"/>
<path d="M1133.4 205.718L1133.34 207.342" stroke="#565987" stroke-miterlimit="10"/>
<path d="M1150.07 215.731C1150.28 215.533 1150.44 215.265 1150.51 214.964C1150.55 214.812 1150.54 214.652 1150.48 214.51C1150.42 214.368 1150.33 214.252 1150.21 214.182C1149.92 214.057 1149.62 214.284 1149.39 214.512C1149.16 214.74 1148.89 215.001 1148.59 214.953C1148.75 214.791 1148.86 214.587 1148.93 214.359C1149 214.131 1149.01 213.887 1148.97 213.651C1148.95 213.554 1148.92 213.463 1148.86 213.387C1148.71 213.194 1148.42 213.277 1148.23 213.429C1147.63 213.914 1147.46 214.851 1147.46 215.694C1147.43 215.385 1147.42 215.072 1147.45 214.761C1147.46 214.606 1147.44 214.449 1147.39 214.305C1147.33 214.161 1147.25 214.034 1147.14 213.936C1147 213.848 1146.84 213.804 1146.68 213.81C1146.55 213.788 1146.41 213.799 1146.28 213.841C1146.15 213.884 1146.03 213.957 1145.93 214.057C1145.83 214.212 1145.77 214.402 1145.78 214.595C1145.79 214.788 1145.85 214.973 1145.96 215.121C1146.18 215.411 1146.44 215.654 1146.74 215.84C1146.96 215.993 1147.15 216.202 1147.29 216.452C1147.31 216.486 1147.32 216.523 1147.34 216.561H1149.03C1149.41 216.34 1149.76 216.061 1150.07 215.731V215.731Z" fill="#6C63FF"/>
<path d="M1130.33 215.731C1130.54 215.533 1130.69 215.265 1130.77 214.964C1130.8 214.812 1130.79 214.652 1130.73 214.51C1130.68 214.368 1130.58 214.252 1130.46 214.182C1130.18 214.057 1129.87 214.284 1129.64 214.512C1129.41 214.74 1129.15 215.001 1128.85 214.953C1129 214.791 1129.12 214.587 1129.18 214.359C1129.25 214.131 1129.26 213.887 1129.22 213.651C1129.21 213.554 1129.17 213.463 1129.12 213.387C1128.96 213.194 1128.67 213.277 1128.49 213.429C1127.89 213.914 1127.72 214.851 1127.71 215.694C1127.68 215.385 1127.68 215.072 1127.7 214.761C1127.72 214.606 1127.69 214.449 1127.64 214.305C1127.59 214.161 1127.5 214.034 1127.4 213.936C1127.26 213.848 1127.1 213.804 1126.93 213.81C1126.8 213.788 1126.66 213.799 1126.53 213.841C1126.4 213.884 1126.28 213.957 1126.18 214.057C1126.08 214.212 1126.03 214.402 1126.03 214.595C1126.04 214.788 1126.1 214.973 1126.21 215.121C1126.43 215.411 1126.7 215.654 1126.99 215.84C1127.21 215.993 1127.4 216.202 1127.55 216.452C1127.56 216.486 1127.58 216.523 1127.59 216.561H1129.28C1129.66 216.34 1130.01 216.061 1130.33 215.731Z" fill="#6C63FF"/>
<path d="M1158.32 200.938C1158.32 200.938 1158.95 201.891 1158.03 203.33C1157.1 204.768 1156.34 205.982 1156.65 206.879C1156.65 206.879 1158.04 204.208 1159.18 204.17C1160.32 204.133 1159.57 202.545 1158.32 200.938Z" fill="#6C63FF"/>
<path opacity="0.1" d="M1158.32 200.938C1158.38 201.03 1158.42 201.131 1158.45 201.237C1159.56 202.736 1160.15 204.135 1159.08 204.17C1158.09 204.203 1156.9 206.246 1156.61 206.762C1156.62 206.802 1156.63 206.841 1156.65 206.879C1156.65 206.879 1158.04 204.208 1159.18 204.17C1160.32 204.133 1159.57 202.545 1158.32 200.938Z" fill="black"/>
<path d="M1159.5 202.153C1159.5 202.488 1159.47 202.76 1159.43 202.76C1159.39 202.76 1159.35 202.488 1159.35 202.153C1159.35 201.817 1159.39 201.975 1159.43 201.975C1159.47 201.975 1159.5 201.817 1159.5 202.153Z" fill="#FFD037"/>
<path d="M1159.9 202.553C1159.65 202.714 1159.42 202.811 1159.4 202.77C1159.38 202.729 1159.58 202.566 1159.83 202.405C1160.09 202.245 1159.99 202.362 1160.01 202.402C1160.03 202.443 1160.16 202.393 1159.9 202.553Z" fill="#FFD037"/>
<path d="M1154.97 200.938C1154.97 200.938 1154.34 201.891 1155.26 203.33C1156.19 204.768 1156.95 205.982 1156.65 206.879C1156.65 206.879 1155.25 204.208 1154.11 204.17C1152.97 204.133 1153.72 202.545 1154.97 200.938Z" fill="#6C63FF"/>
<path opacity="0.1" d="M1154.97 200.938C1154.92 201.03 1154.87 201.131 1154.84 201.237C1153.73 202.736 1153.14 204.135 1154.21 204.17C1155.2 204.203 1156.39 206.246 1156.68 206.762C1156.67 206.802 1156.66 206.841 1156.65 206.879C1156.65 206.879 1155.25 204.208 1154.11 204.17C1152.97 204.133 1153.72 202.545 1154.97 200.938Z" fill="black"/>
<path d="M1153.79 202.153C1153.79 202.488 1153.83 202.76 1153.87 202.76C1153.91 202.76 1153.94 202.488 1153.94 202.153C1153.94 201.817 1153.9 201.975 1153.86 201.975C1153.82 201.975 1153.79 201.817 1153.79 202.153Z" fill="#FFD037"/>
<path d="M1153.39 202.553C1153.64 202.714 1153.87 202.811 1153.89 202.77C1153.91 202.729 1153.71 202.566 1153.46 202.405C1153.2 202.245 1153.3 202.362 1153.28 202.402C1153.26 202.443 1153.13 202.393 1153.39 202.553Z" fill="#FFD037"/>
<path d="M1153.99 206.755C1153.99 206.755 1155.77 206.692 1156.3 206.255C1156.84 205.817 1159.03 205.295 1159.16 205.997C1159.29 206.698 1161.82 209.484 1159.82 209.502C1157.82 209.521 1155.17 209.144 1154.64 208.771C1154.11 208.397 1153.99 206.755 1153.99 206.755Z" fill="#A8A8A8"/>
<path opacity="0.2" d="M1159.86 209.258C1157.86 209.277 1155.21 208.9 1154.68 208.527C1154.27 208.242 1154.11 207.222 1154.05 206.752C1154.02 206.754 1153.99 206.755 1153.99 206.755C1153.99 206.755 1154.11 208.397 1154.64 208.771C1155.17 209.144 1157.82 209.521 1159.82 209.502C1160.4 209.497 1160.6 209.261 1160.59 208.911C1160.51 209.122 1160.29 209.254 1159.86 209.258Z" fill="black"/>
<path d="M490.281 64.7951C491.497 55.0199 497.555 45.3884 506.878 42.2073C503.201 52.2687 503.202 63.3064 506.88 73.3673C508.312 77.2422 510.309 81.4029 508.962 85.3082C508.123 87.7382 506.072 89.5974 503.78 90.7599C501.487 91.9224 498.942 92.4765 496.43 93.0195L495.935 93.4284C491.947 84.4216 489.066 74.5703 490.281 64.7951Z" fill="#313149"/>
<path d="M506.97 42.3921C501.541 48.4752 498.167 56.1143 497.326 64.2243C497.115 65.967 497.179 67.7322 497.517 69.4549C497.9 71.1224 498.723 72.6569 499.899 73.8988C500.974 75.0789 502.209 76.1616 502.977 77.5822C503.36 78.3152 503.583 79.1209 503.633 79.9462C503.682 80.7716 503.556 81.5981 503.264 82.3715C502.585 84.3175 501.248 85.9037 499.886 87.4095C498.375 89.0813 496.778 90.7938 496.135 93.0102C496.057 93.2788 495.645 93.1422 495.723 92.8741C496.841 89.0179 500.584 86.8276 502.369 83.3544C503.202 81.7338 503.552 79.8523 502.771 78.1415C502.088 76.6455 500.815 75.528 499.718 74.3425C498.552 73.1478 497.696 71.6857 497.226 70.0841C496.801 68.3841 496.669 66.6244 496.835 64.8801C497.146 60.9473 498.074 57.0878 499.584 53.443C501.284 49.2738 503.685 45.4262 506.683 42.0665C506.869 41.8587 507.155 42.1856 506.97 42.3921H506.97Z" fill="#313149"/>
<path d="M497.443 61.597C496.102 61.2713 494.92 60.4793 494.108 59.3625C493.297 58.2457 492.909 56.8768 493.013 55.5003C493.035 55.2218 493.469 55.2431 493.447 55.5219C493.347 56.8036 493.709 58.0787 494.467 59.1171C495.224 60.1555 496.328 60.8889 497.579 61.1848C497.851 61.2494 497.714 61.6613 497.443 61.597H497.443Z" fill="#313149"/>
<path d="M499.276 73.3722C501.699 71.9255 503.488 69.6187 504.285 66.9117C504.364 66.6434 504.776 66.7799 504.698 67.0478C503.862 69.8632 501.996 72.26 499.471 73.76C499.231 73.9028 499.037 73.5143 499.276 73.3722V73.3722Z" fill="#313149"/>
<path d="M501.687 49.6851C502.18 49.9193 502.723 50.0274 503.268 49.9997C503.813 49.9721 504.342 49.8095 504.809 49.5266C505.048 49.3808 505.241 49.7696 505.004 49.9144C504.487 50.2245 503.902 50.4034 503.3 50.4353C502.698 50.4672 502.098 50.3511 501.551 50.0973C501.497 50.0777 501.453 50.0385 501.428 49.9876C501.402 49.9366 501.397 49.8779 501.413 49.8232C501.431 49.7687 501.47 49.7236 501.521 49.6977C501.573 49.6719 501.632 49.6674 501.687 49.6851H501.687Z" fill="#313149"/>
<path d="M535.294 59.6671C535.148 59.7623 535.001 59.8576 534.854 59.9565C532.891 61.2476 531.036 62.696 529.307 64.2875C529.171 64.4084 529.036 64.533 528.904 64.6576C524.78 68.5363 521.412 73.1469 518.971 78.2552C518.001 80.2888 517.188 82.3932 516.538 84.5502C515.64 87.5291 514.903 90.8305 513.126 93.2671C512.944 93.5234 512.745 93.7682 512.533 94H496.473C496.436 93.9817 496.399 93.967 496.363 93.9487L495.722 93.978C495.747 93.8644 495.777 93.7472 495.802 93.6336C495.817 93.5676 495.835 93.5017 495.85 93.4357C495.861 93.3918 495.872 93.3478 495.879 93.3075C495.883 93.2928 495.887 93.2782 495.89 93.2672C495.897 93.2269 495.909 93.1902 495.916 93.1536C496.077 92.4977 496.243 91.8418 496.414 91.1859C496.414 91.1823 496.414 91.1823 496.418 91.1786C497.673 86.1684 499.518 81.3248 501.914 76.7492C501.987 76.6137 502.06 76.4744 502.141 76.3388C503.251 74.3134 504.524 72.3821 505.948 70.5642C506.731 69.5712 507.564 68.6186 508.444 67.7098C510.72 65.3662 513.352 63.3952 516.241 61.8692C522.001 58.828 528.669 57.6628 534.825 59.5205C534.983 59.5681 535.137 59.6158 535.294 59.6671Z" fill="#313149"/>
<path d="M535.258 59.8709C527.261 61.4592 519.967 65.527 514.414 71.4965C513.195 72.7604 512.184 74.2084 511.416 75.7873C510.718 77.3495 510.451 79.07 510.643 80.7702C510.79 82.3591 511.125 83.9673 510.883 85.5643C510.747 86.3799 510.441 87.1575 509.983 87.8463C509.526 88.535 508.928 89.1193 508.229 89.5608C506.515 90.7061 504.492 91.1675 502.499 91.5499C500.285 91.9745 497.979 92.3805 496.131 93.7632C495.908 93.9307 495.661 93.5736 495.884 93.4063C499.099 91.0005 503.406 91.5054 506.923 89.807C508.563 89.0146 509.975 87.7228 510.382 85.8867C510.737 84.2811 510.394 82.6224 510.231 81.0149C510.02 79.3591 510.217 77.6766 510.805 76.1145C511.49 74.5017 512.444 73.0171 513.627 71.7244C516.243 68.7715 519.307 66.2484 522.707 64.2474C526.575 61.9422 530.809 60.3156 535.225 59.438C535.498 59.3838 535.53 59.817 535.258 59.8709H535.258Z" fill="#313149"/>
<path d="M516.089 69.4691C515.214 68.4013 514.747 67.0573 514.771 65.677C514.796 64.2967 515.31 62.97 516.222 61.9339C516.408 61.7249 516.741 62.003 516.555 62.2123C515.704 63.1756 515.225 64.4115 515.205 65.6968C515.185 66.9822 515.625 68.2324 516.446 69.2219C516.624 69.4371 516.266 69.6831 516.089 69.4691V69.4691Z" fill="#313149"/>
<path d="M510.463 79.9744C513.268 80.2781 516.085 79.5131 518.352 77.832C518.577 77.6653 518.823 78.0224 518.599 78.1889C516.237 79.9339 513.304 80.724 510.385 80.4016C510.107 80.3707 510.186 79.9437 510.463 79.9744V79.9744Z" fill="#313149"/>
<path d="M526.649 62.513C526.901 62.9967 527.27 63.4101 527.722 63.7161C528.174 64.0221 528.694 64.2111 529.237 64.2662C529.516 64.2935 529.436 64.7205 529.16 64.6933C528.56 64.6297 527.985 64.4203 527.485 64.0833C526.986 63.7463 526.576 63.2921 526.292 62.7602C526.261 62.7123 526.25 62.6545 526.26 62.5984C526.27 62.5423 526.301 62.4922 526.347 62.4582C526.394 62.4257 526.453 62.4132 526.509 62.4235C526.566 62.4338 526.616 62.466 526.649 62.513Z" fill="#313149"/>
<path d="M270.615 100.713C270.034 95.2611 267.134 89.8897 262.673 88.1156C264.432 93.7268 264.432 99.8824 262.672 105.493C261.986 107.654 261.03 109.975 261.675 112.153C262.076 113.508 263.058 114.545 264.155 115.193C265.253 115.841 266.47 116.15 267.673 116.453L267.909 116.681C269.818 111.658 271.197 106.164 270.615 100.713Z" fill="#37375A"/>
<path d="M262.628 88.2187C265.227 91.6112 266.842 95.8714 267.244 100.394C267.345 101.366 267.314 102.351 267.153 103.311C266.969 104.241 266.576 105.097 266.012 105.79C265.498 106.448 264.907 107.052 264.539 107.844C264.356 108.253 264.249 108.702 264.226 109.162C264.202 109.623 264.262 110.084 264.402 110.515C264.727 111.6 265.367 112.485 266.018 113.325C266.742 114.257 267.506 115.212 267.814 116.448C267.851 116.598 268.048 116.522 268.011 116.372C267.476 114.222 265.685 113 264.83 111.063C264.432 110.159 264.264 109.11 264.638 108.156C264.965 107.322 265.574 106.698 266.099 106.037C266.657 105.371 267.067 104.555 267.292 103.662C267.495 102.714 267.558 101.733 267.479 100.76C267.33 98.5667 266.886 96.4143 266.163 94.3817C265.35 92.0565 264.201 89.9107 262.766 88.0371C262.677 87.9212 262.54 88.1035 262.628 88.2187H262.628Z" fill="#37375A"/>
<path d="M267.188 98.9291C267.83 98.7475 268.396 98.3058 268.784 97.6829C269.172 97.0601 269.358 96.2967 269.308 95.529C269.297 95.3737 269.09 95.3856 269.1 95.5411C269.148 96.2558 268.975 96.967 268.612 97.5461C268.25 98.1252 267.721 98.5342 267.123 98.6992C266.993 98.7352 267.058 98.9649 267.188 98.9291H267.188Z" fill="#37375A"/>
<path d="M266.311 105.496C265.151 104.689 264.295 103.403 263.913 101.893C263.876 101.743 263.678 101.82 263.716 101.969C264.116 103.539 265.009 104.876 266.217 105.712C266.332 105.792 266.425 105.575 266.311 105.496V105.496Z" fill="#37375A"/>
<path d="M265.157 92.2859C264.921 92.4165 264.661 92.4768 264.4 92.4614C264.139 92.446 263.886 92.3553 263.663 92.1975C263.548 92.1162 263.456 92.333 263.569 92.4138C263.817 92.5868 264.097 92.6865 264.385 92.7043C264.673 92.7221 264.96 92.6574 265.222 92.5158C265.248 92.5049 265.269 92.483 265.281 92.4546C265.293 92.4262 265.296 92.3934 265.288 92.3629C265.279 92.3325 265.261 92.3074 265.236 92.293C265.211 92.2786 265.183 92.276 265.157 92.2859H265.157Z" fill="#37375A"/>
<path d="M249.073 97.8528C249.143 97.9059 249.213 97.959 249.283 98.0142C250.223 98.7342 251.111 99.542 251.938 100.43C252.003 100.497 252.068 100.566 252.131 100.636C254.105 102.799 255.717 105.37 256.885 108.219C257.349 109.353 257.738 110.527 258.05 111.73C258.479 113.391 258.832 115.232 259.682 116.591C259.77 116.734 259.864 116.871 259.966 117H267.652C267.67 116.99 267.687 116.982 267.705 116.971L268.012 116.988C267.999 116.924 267.985 116.859 267.973 116.796C267.966 116.759 267.957 116.722 267.95 116.685C267.945 116.661 267.94 116.636 267.936 116.614C267.935 116.606 267.933 116.597 267.931 116.591C267.928 116.569 267.922 116.548 267.919 116.528C267.842 116.162 267.762 115.796 267.68 115.431C267.68 115.429 267.68 115.429 267.679 115.427C267.078 112.632 266.195 109.931 265.048 107.379C265.013 107.304 264.978 107.226 264.939 107.151C264.408 106.021 263.799 104.944 263.117 103.93C262.743 103.376 262.344 102.845 261.923 102.338C260.834 101.031 259.574 99.9319 258.192 99.0809C255.435 97.3848 252.243 96.735 249.297 97.771C249.222 97.7976 249.148 97.8242 249.073 97.8528Z" fill="#37375A"/>
<path d="M249.09 97.9665C252.917 98.8523 256.408 101.121 259.066 104.45C259.649 105.155 260.133 105.962 260.501 106.843C260.835 107.714 260.962 108.674 260.87 109.622C260.8 110.508 260.64 111.405 260.756 112.295C260.821 112.75 260.967 113.184 261.186 113.568C261.405 113.952 261.691 114.278 262.026 114.524C262.846 115.163 263.814 115.42 264.768 115.634C265.828 115.87 266.931 116.097 267.816 116.868C267.923 116.961 268.041 116.762 267.934 116.669C266.396 115.327 264.334 115.609 262.651 114.662C261.866 114.22 261.19 113.499 260.996 112.475C260.825 111.58 260.99 110.655 261.068 109.758C261.169 108.835 261.075 107.897 260.793 107.025C260.465 106.126 260.009 105.298 259.443 104.577C258.191 102.93 256.724 101.523 255.097 100.407C253.246 99.1216 251.22 98.2144 249.106 97.725C248.975 97.6948 248.96 97.9364 249.09 97.9665H249.09Z" fill="#37375A"/>
<path d="M258.264 103.319C258.683 102.724 258.907 101.974 258.895 101.204C258.883 100.435 258.637 99.6948 258.2 99.117C258.112 99.0004 257.952 99.1555 258.041 99.2723C258.448 99.8095 258.678 100.499 258.687 101.216C258.697 101.932 258.486 102.63 258.093 103.181C258.008 103.301 258.18 103.439 258.264 103.319V103.319Z" fill="#37375A"/>
<path d="M260.957 109.178C259.614 109.347 258.266 108.921 257.181 107.983C257.074 107.89 256.956 108.089 257.063 108.182C258.193 109.155 259.597 109.596 260.994 109.416C261.127 109.399 261.089 109.161 260.957 109.178V109.178Z" fill="#37375A"/>
<path d="M253.21 99.44C253.09 99.7097 252.913 99.9403 252.697 100.111C252.481 100.282 252.232 100.387 251.972 100.418C251.838 100.433 251.876 100.671 252.009 100.656C252.296 100.62 252.571 100.504 252.81 100.316C253.049 100.128 253.245 99.8744 253.381 99.5778C253.396 99.5511 253.402 99.5188 253.397 99.4876C253.392 99.4563 253.377 99.4283 253.355 99.4094C253.332 99.3913 253.304 99.3843 253.277 99.39C253.25 99.3958 253.226 99.4137 253.21 99.44Z" fill="#37375A"/>
<path d="M920.64 153.959C920.165 149.26 917.799 144.629 914.158 143.1C915.594 147.937 915.594 153.243 914.157 158.08C913.598 159.943 912.818 161.944 913.344 163.821C913.672 164.99 914.473 165.883 915.368 166.442C916.264 167.001 917.257 167.268 918.239 167.529L918.432 167.725C919.99 163.395 921.115 158.659 920.64 153.959Z" fill="#30304E"/>
<path d="M914.122 143.189C916.242 146.113 917.56 149.786 917.888 153.685C917.971 154.523 917.946 155.371 917.814 156.199C917.665 157.001 917.343 157.739 916.884 158.336C916.464 158.903 915.982 159.424 915.681 160.107C915.532 160.459 915.445 160.847 915.426 161.243C915.406 161.64 915.455 162.038 915.57 162.409C915.835 163.345 916.357 164.108 916.889 164.831C917.479 165.635 918.103 166.459 918.354 167.524C918.384 167.653 918.545 167.588 918.515 167.459C918.078 165.605 916.616 164.552 915.919 162.882C915.594 162.103 915.457 161.198 915.762 160.376C916.029 159.657 916.526 159.119 916.955 158.549C917.41 157.975 917.744 157.272 917.928 156.502C918.094 155.685 918.145 154.839 918.08 154C917.959 152.109 917.597 150.254 917.007 148.501C916.343 146.497 915.405 144.647 914.234 143.032C914.162 142.932 914.05 143.089 914.122 143.189H914.122Z" fill="#30304E"/>
<path d="M917.843 152.422C918.367 152.265 918.829 151.884 919.145 151.347C919.462 150.81 919.614 150.152 919.573 149.491C919.565 149.357 919.395 149.367 919.404 149.501C919.443 150.117 919.301 150.73 919.005 151.229C918.71 151.729 918.278 152.081 917.79 152.223C917.684 152.254 917.737 152.453 917.843 152.422H917.843Z" fill="#30304E"/>
<path d="M917.127 158.083C916.181 157.387 915.482 156.278 915.171 154.977C915.14 154.848 914.979 154.913 915.01 155.042C915.336 156.396 916.065 157.548 917.051 158.269C917.145 158.338 917.221 158.151 917.127 158.083V158.083Z" fill="#30304E"/>
<path d="M916.185 146.695C915.993 146.807 915.781 146.859 915.568 146.846C915.355 146.833 915.148 146.755 914.966 146.619C914.873 146.548 914.797 146.735 914.89 146.805C915.092 146.954 915.32 147.04 915.555 147.055C915.79 147.071 916.025 147.015 916.239 146.893C916.26 146.884 916.277 146.865 916.287 146.84C916.297 146.816 916.299 146.787 916.293 146.761C916.285 146.735 916.27 146.713 916.25 146.701C916.23 146.688 916.207 146.686 916.185 146.695H916.185Z" fill="#30304E"/>
<path d="M903.059 151.494C903.117 151.54 903.174 151.585 903.231 151.633C903.998 152.254 904.723 152.95 905.398 153.715C905.451 153.773 905.504 153.833 905.555 153.893C907.166 155.758 908.482 157.974 909.435 160.43C909.814 161.408 910.131 162.42 910.385 163.457C910.736 164.889 911.024 166.476 911.718 167.648C911.789 167.771 911.866 167.889 911.949 168H918.222C918.236 167.991 918.251 167.984 918.265 167.975L918.515 167.989C918.505 167.935 918.494 167.878 918.484 167.824C918.478 167.792 918.471 167.76 918.465 167.729C918.461 167.708 918.457 167.686 918.454 167.667C918.452 167.66 918.451 167.653 918.449 167.648C918.447 167.628 918.442 167.611 918.439 167.593C918.376 167.278 918.312 166.962 918.245 166.647C918.245 166.645 918.245 166.645 918.243 166.644C917.753 164.235 917.033 161.906 916.097 159.706C916.068 159.641 916.04 159.574 916.008 159.509C915.575 158.535 915.077 157.607 914.521 156.733C914.215 156.255 913.89 155.797 913.547 155.36C912.657 154.234 911.63 153.286 910.501 152.553C908.251 151.09 905.647 150.53 903.243 151.423C903.181 151.446 903.121 151.469 903.059 151.494Z" fill="#30304E"/>
<path d="M903.074 151.592C906.197 152.355 909.046 154.311 911.215 157.181C911.691 157.789 912.086 158.485 912.385 159.244C912.658 159.995 912.762 160.822 912.687 161.64C912.63 162.403 912.499 163.177 912.594 163.944C912.647 164.336 912.767 164.71 912.945 165.041C913.124 165.373 913.357 165.654 913.63 165.866C914.3 166.416 915.09 166.638 915.868 166.822C916.733 167.026 917.634 167.221 918.355 167.886C918.443 167.967 918.539 167.795 918.452 167.715C917.196 166.558 915.514 166.801 914.141 165.984C913.5 165.603 912.948 164.982 912.789 164.099C912.651 163.327 912.785 162.53 912.848 161.757C912.931 160.961 912.854 160.152 912.624 159.401C912.357 158.626 911.984 157.912 911.522 157.291C910.5 155.871 909.304 154.658 907.976 153.696C906.465 152.588 904.811 151.806 903.087 151.384C902.98 151.358 902.968 151.566 903.074 151.592H903.074Z" fill="#30304E"/>
<path d="M910.561 156.206C910.902 155.693 911.085 155.047 911.075 154.383C911.066 153.72 910.865 153.082 910.508 152.584C910.436 152.483 910.306 152.617 910.378 152.717C910.711 153.181 910.898 153.775 910.906 154.393C910.914 155.011 910.742 155.612 910.421 156.087C910.352 156.191 910.491 156.309 910.561 156.206V156.206Z" fill="#30304E"/>
<path d="M912.758 161.257C911.662 161.403 910.562 161.035 909.677 160.227C909.589 160.147 909.492 160.318 909.58 160.399C910.503 161.237 911.648 161.617 912.788 161.462C912.897 161.447 912.866 161.242 912.758 161.257V161.257Z" fill="#30304E"/>
<path d="M906.436 152.862C906.337 153.095 906.193 153.293 906.017 153.44C905.841 153.588 905.637 153.678 905.425 153.705C905.316 153.718 905.347 153.923 905.456 153.91C905.69 153.88 905.914 153.779 906.109 153.617C906.305 153.455 906.465 153.237 906.575 152.981C906.588 152.958 906.592 152.93 906.588 152.903C906.584 152.876 906.572 152.852 906.554 152.836C906.536 152.82 906.513 152.814 906.491 152.819C906.469 152.824 906.449 152.839 906.436 152.862Z" fill="#30304E"/>
<path d="M1068.14 184.028C1068.77 178.012 1071.87 172.085 1076.63 170.128C1074.75 176.319 1074.75 183.112 1076.64 189.303C1077.37 191.688 1078.39 194.248 1077.7 196.651C1077.27 198.147 1076.22 199.291 1075.05 200.006C1073.88 200.721 1072.57 201.062 1071.29 201.397L1071.04 201.648C1069 196.106 1067.52 190.043 1068.14 184.028Z" fill="#37375A"/>
<path d="M1076.68 170.241C1073.9 173.985 1072.18 178.686 1071.75 183.676C1071.64 184.749 1071.67 185.835 1071.85 186.895C1072.04 187.922 1072.46 188.866 1073.06 189.63C1073.61 190.356 1074.25 191.023 1074.64 191.897C1074.83 192.348 1074.95 192.844 1074.97 193.352C1075 193.859 1074.94 194.368 1074.79 194.844C1074.44 196.042 1073.75 197.018 1073.06 197.944C1072.28 198.973 1071.47 200.027 1071.14 201.391C1071.1 201.556 1070.89 201.472 1070.93 201.307C1071.5 198.934 1073.41 197.586 1074.33 195.449C1074.75 194.452 1074.93 193.294 1074.53 192.241C1074.18 191.32 1073.53 190.633 1072.97 189.903C1072.37 189.168 1071.94 188.268 1071.7 187.283C1071.48 186.236 1071.41 185.153 1071.5 184.08C1071.66 181.66 1072.13 179.285 1072.9 177.042C1073.77 174.476 1075 172.108 1076.53 170.041C1076.63 169.913 1076.78 170.114 1076.68 170.241H1076.68Z" fill="#37375A"/>
<path d="M1071.81 182.06C1071.12 181.859 1070.52 181.372 1070.1 180.685C1069.69 179.997 1069.49 179.155 1069.54 178.308C1069.55 178.137 1069.77 178.15 1069.76 178.321C1069.71 179.11 1069.9 179.895 1070.29 180.534C1070.67 181.173 1071.24 181.624 1071.88 181.806C1072.02 181.846 1071.95 182.099 1071.81 182.06H1071.81Z" fill="#37375A"/>
<path d="M1072.75 189.306C1073.99 188.416 1074.9 186.996 1075.31 185.33C1075.35 185.165 1075.56 185.249 1075.52 185.414C1075.09 187.147 1074.14 188.622 1072.85 189.545C1072.72 189.632 1072.62 189.393 1072.75 189.306V189.306Z" fill="#37375A"/>
<path d="M1073.98 174.729C1074.23 174.873 1074.51 174.94 1074.79 174.923C1075.07 174.906 1075.34 174.806 1075.58 174.632C1075.7 174.542 1075.8 174.781 1075.68 174.87C1075.41 175.061 1075.11 175.171 1074.8 175.191C1074.5 175.211 1074.19 175.139 1073.91 174.983C1073.88 174.971 1073.86 174.947 1073.85 174.915C1073.83 174.884 1073.83 174.848 1073.84 174.814C1073.85 174.781 1073.87 174.753 1073.89 174.737C1073.92 174.721 1073.95 174.718 1073.98 174.729H1073.98Z" fill="#37375A"/>
<path d="M1091.17 180.872C1091.1 180.931 1091.02 180.989 1090.95 181.05C1089.94 181.845 1088.99 182.736 1088.11 183.715C1088.04 183.79 1087.97 183.866 1087.9 183.943C1085.79 186.33 1084.07 189.167 1082.82 192.311C1082.33 193.562 1081.91 194.857 1081.58 196.185C1081.12 198.018 1080.74 200.05 1079.83 201.549C1079.74 201.707 1079.64 201.857 1079.53 202H1071.31C1071.29 201.989 1071.27 201.98 1071.26 201.968L1070.93 201.986C1070.94 201.917 1070.96 201.844 1070.97 201.775C1070.98 201.734 1070.99 201.693 1070.99 201.653C1071 201.626 1071 201.599 1071.01 201.574C1071.01 201.565 1071.01 201.556 1071.01 201.549C1071.02 201.524 1071.02 201.502 1071.03 201.479C1071.11 201.076 1071.19 200.672 1071.28 200.268C1071.28 200.266 1071.28 200.266 1071.28 200.264C1071.93 197.181 1072.87 194.2 1074.1 191.384C1074.13 191.301 1074.17 191.215 1074.21 191.132C1074.78 189.885 1075.43 188.697 1076.16 187.578C1076.56 186.967 1076.99 186.381 1077.44 185.821C1078.6 184.379 1079.95 183.166 1081.42 182.227C1084.37 180.356 1087.78 179.639 1090.93 180.782C1091.01 180.811 1091.09 180.84 1091.17 180.872Z" fill="#37375A"/>
<path d="M1091.15 180.997C1087.06 181.975 1083.33 184.478 1080.49 188.152C1079.87 188.929 1079.35 189.821 1078.96 190.792C1078.6 191.754 1078.46 192.812 1078.56 193.859C1078.64 194.836 1078.81 195.826 1078.68 196.809C1078.61 197.311 1078.46 197.789 1078.22 198.213C1077.99 198.637 1077.68 198.997 1077.33 199.268C1076.45 199.973 1075.41 200.257 1074.39 200.492C1073.26 200.754 1072.08 201.003 1071.14 201.854C1071.02 201.957 1070.9 201.738 1071.01 201.635C1072.65 200.154 1074.86 200.465 1076.66 199.42C1077.5 198.932 1078.22 198.137 1078.43 197.007C1078.61 196.019 1078.43 194.998 1078.35 194.009C1078.24 192.99 1078.34 191.955 1078.64 190.994C1078.99 190.001 1079.48 189.087 1080.09 188.292C1081.43 186.475 1082.99 184.922 1084.73 183.691C1086.71 182.272 1088.88 181.271 1091.14 180.731C1091.28 180.698 1091.29 180.964 1091.15 180.997H1091.15Z" fill="#37375A"/>
<path d="M1081.35 186.904C1080.9 186.247 1080.66 185.42 1080.67 184.57C1080.69 183.721 1080.95 182.905 1081.42 182.267C1081.51 182.138 1081.68 182.31 1081.59 182.438C1081.15 183.031 1080.9 183.792 1080.89 184.583C1080.88 185.374 1081.11 186.143 1081.53 186.752C1081.62 186.884 1081.44 187.036 1081.35 186.904V186.904Z" fill="#37375A"/>
<path d="M1078.47 193.369C1079.9 193.556 1081.35 193.085 1082.5 192.05C1082.62 191.948 1082.75 192.168 1082.63 192.27C1081.42 193.344 1079.92 193.83 1078.43 193.632C1078.29 193.613 1078.33 193.35 1078.47 193.369V193.369Z" fill="#37375A"/>
<path d="M1086.75 182.623C1086.88 182.921 1087.07 183.175 1087.3 183.364C1087.53 183.552 1087.8 183.668 1088.07 183.702C1088.22 183.719 1088.18 183.982 1088.03 183.965C1087.73 183.926 1087.43 183.797 1087.18 183.59C1086.92 183.382 1086.71 183.103 1086.57 182.776C1086.55 182.746 1086.54 182.71 1086.55 182.676C1086.56 182.641 1086.57 182.611 1086.59 182.59C1086.62 182.57 1086.65 182.562 1086.68 182.568C1086.71 182.575 1086.73 182.594 1086.75 182.623Z" fill="#37375A"/>
</svg>
