<svg width="1482" height="283" viewBox="0 0 1482 283" fill="none" xmlns="http://www.w3.org/2000/svg">
<g clip-path="url(#clip0_8_5)" filter="url(#filter0_d_8_5)">
<path fill-rule="evenodd" clip-rule="evenodd" d="M1514.37 140.625L1481.07 131.25C1447.76 121.875 1381.17 103.125 1314.57 93.75C1247.96 84.375 1181.37 84.375 1114.77 103.125C1048.17 121.875 981.567 159.375 914.967 150C848.368 140.625 781.767 84.375 715.168 75C648.568 65.625 581.968 103.125 515.368 107.812C448.768 112.5 382.168 84.375 315.569 103.125C248.969 121.875 182.368 187.5 115.769 178.125C49.1691 168.75 -17.4308 84.375 -50.7308 42.1875L-84.0306 0V253.125H-50.7308C-17.4308 253.125 49.1691 253.125 115.769 253.125C182.368 253.125 248.969 253.125 315.569 253.125C382.168 253.125 448.768 253.125 515.368 253.125C581.968 253.125 648.568 253.125 715.168 253.125C781.767 253.125 848.368 253.125 914.967 253.125C981.567 253.125 1048.17 253.125 1114.77 253.125C1181.37 253.125 1247.96 253.125 1314.57 253.125C1381.17 253.125 1447.76 253.125 1481.07 253.125H1514.37V140.625Z" fill="#333246"/>
<path fill-rule="evenodd" clip-rule="evenodd" d="M1478 162.5L1447.29 153.125C1416.58 143.75 1355.16 125 1293.75 115.625C1232.34 106.25 1170.92 106.25 1109.5 125C1048.08 143.75 986.664 181.25 925.25 171.875C863.834 162.5 802.416 106.25 741 96.875C679.584 87.5 618.166 125 556.75 129.688C495.334 134.375 433.916 106.25 372.5 125C311.084 143.75 249.666 209.375 188.25 200C126.833 190.625 65.4167 106.25 34.7084 64.0625L4 21.875V275H34.7084C65.4167 275 126.833 275 188.25 275C249.666 275 311.084 275 372.5 275C433.916 275 495.334 275 556.75 275C618.166 275 679.584 275 741 275C802.416 275 863.834 275 925.25 275C986.664 275 1048.08 275 1109.5 275C1170.92 275 1232.34 275 1293.75 275C1355.16 275 1416.58 275 1447.29 275H1478V162.5Z" fill="#282833"/>
<path d="M1094.66 90.625L1084.93 124.483H1104.38L1094.66 90.625Z" fill="#333246"/>
<path d="M1084.42 93.4859L1074.7 127.344H1094.15L1084.42 93.4859Z" fill="#333246"/>
<path d="M1072.14 93.4859L1062.41 127.344H1081.86L1072.14 93.4859Z" fill="#333246"/>
<path opacity="0.1" d="M1272.1 101.057C1276.42 101.057 1279.93 100.69 1279.93 100.237C1279.93 99.7836 1276.42 99.4164 1272.1 99.4164C1267.77 99.4164 1264.27 99.7836 1264.27 100.237C1264.27 100.69 1267.77 101.057 1272.1 101.057Z" fill="#6C63FF"/>
<path opacity="0.1" d="M1307.42 97.9164C1311.74 97.9164 1315.25 97.5492 1315.25 97.0961C1315.25 96.643 1311.74 96.2758 1307.42 96.2758C1303.1 96.2758 1299.58 96.643 1299.58 97.0961C1299.58 97.5492 1303.1 97.9164 1307.42 97.9164Z" fill="#6C63FF"/>
<path opacity="0.1" d="M1260.09 107.427C1263.17 107.427 1265.66 107.166 1265.66 106.844C1265.66 106.522 1263.17 106.261 1260.09 106.261C1257.02 106.261 1254.54 106.522 1254.54 106.844C1254.54 107.166 1257.02 107.427 1260.09 107.427Z" fill="#6C63FF"/>
<path opacity="0.1" d="M1291.22 106.844C1294.29 106.844 1296.78 106.583 1296.78 106.261C1296.78 105.939 1294.29 105.677 1291.22 105.677C1288.14 105.677 1285.65 105.939 1285.65 106.261C1285.65 106.583 1288.14 106.844 1291.22 106.844Z" fill="#6C63FF"/>
<path d="M1272.26 100.053C1272.26 100.053 1261.29 72.5841 1273.98 61.582C1283.48 53.3515 1294.26 54.3364 1299.09 55.3549C1300.34 55.6087 1301.51 56.0667 1302.5 56.6974C1303.49 57.328 1304.29 58.1161 1304.86 59.007C1306.55 61.7873 1306.24 66.2988 1294.32 71.5641C1274.36 80.3805 1273.12 92.475 1273.12 92.475L1272.26 100.053Z" fill="#6C63FF"/>
<path d="M1297.37 59.2505C1297.37 59.2505 1265.01 66.9737 1272.26 100.053" stroke="#565987" stroke-miterlimit="10"/>
<path d="M1278.47 62.0192C1278.47 62.0192 1282.93 64.3114 1281.51 67.7556" stroke="#565987" stroke-miterlimit="10"/>
<path d="M1294.13 64.0593C1294.13 64.0593 1291.41 61.9441 1288.09 63.1109" stroke="#565987" stroke-miterlimit="10"/>
<path d="M1281.33 74.6971C1281.33 74.6971 1276.55 72.8441 1275.31 75.1648" stroke="#565987" stroke-miterlimit="10"/>
<path d="M1269.5 78.5586C1269.5 78.5586 1273.09 78.3398 1273.15 79.6516" stroke="#565987" stroke-miterlimit="10"/>
<path d="M1271.82 100.271C1271.82 100.271 1284.68 80.307 1288.21 80.7445C1289.89 80.9523 1290.67 82.2117 1291.02 83.4773C1291.45 85.1133 1291.2 86.8117 1290.31 88.3367C1288.49 91.5313 1283.59 97.5984 1271.82 100.271Z" fill="#6C63FF"/>
<path d="M1288.12 84.5336C1288.12 84.5336 1274.62 99.4703 1272.02 100.126" stroke="#565987" stroke-miterlimit="10"/>
<path d="M1289.36 86.8648H1286.21" stroke="#565987" stroke-miterlimit="10"/>
<path d="M1285.58 92.3297L1280.65 92.4901" stroke="#565987" stroke-miterlimit="10"/>
<path d="M1282.58 87.9578L1283.11 89.9211" stroke="#565987" stroke-miterlimit="10"/>
<path d="M1277.33 93.9328L1277.42 95.7164" stroke="#565987" stroke-miterlimit="10"/>
<path d="M1272.2 100.271C1272.2 100.271 1259.35 80.307 1255.81 80.7445C1254.14 80.9523 1253.37 82.2117 1253.01 83.4773C1252.58 85.1133 1252.83 86.8117 1253.72 88.3367C1255.54 91.5313 1260.44 97.5984 1272.2 100.271Z" fill="#6C63FF"/>
<path d="M1255.91 84.5336C1255.91 84.5336 1269.41 99.4703 1272.02 100.126" stroke="#565987" stroke-miterlimit="10"/>
<path d="M1254.67 86.8648H1257.82" stroke="#565987" stroke-miterlimit="10"/>
<path d="M1258.45 92.3297L1263.38 92.4901" stroke="#565987" stroke-miterlimit="10"/>
<path d="M1261.44 87.9578L1260.91 89.9211" stroke="#565987" stroke-miterlimit="10"/>
<path d="M1266.7 93.9328L1266.6 95.7164" stroke="#565987" stroke-miterlimit="10"/>
<path d="M1294.28 104.934C1294.63 104.716 1294.89 104.422 1295.02 104.091C1295.07 103.925 1295.05 103.748 1294.96 103.592C1294.87 103.436 1294.7 103.309 1294.51 103.232C1294.04 103.095 1293.54 103.344 1293.15 103.595C1292.77 103.845 1292.34 104.132 1291.84 104.079C1292.09 103.902 1292.29 103.677 1292.39 103.426C1292.5 103.176 1292.52 102.908 1292.46 102.649C1292.43 102.542 1292.38 102.442 1292.29 102.359C1292.02 102.146 1291.55 102.238 1291.24 102.405C1290.25 102.938 1289.96 103.967 1289.96 104.894C1289.91 104.553 1289.9 104.209 1289.94 103.869C1289.96 103.698 1289.93 103.525 1289.84 103.367C1289.75 103.209 1289.61 103.07 1289.44 102.962C1289.21 102.865 1288.94 102.817 1288.67 102.823C1288.45 102.799 1288.22 102.811 1288.01 102.858C1287.79 102.904 1287.6 102.985 1287.42 103.095C1287.26 103.266 1287.17 103.473 1287.18 103.686C1287.19 103.898 1287.29 104.102 1287.48 104.264C1287.84 104.582 1288.27 104.849 1288.77 105.054C1289.13 105.222 1289.45 105.452 1289.69 105.726C1289.72 105.764 1289.74 105.804 1289.76 105.846H1292.55C1293.18 105.603 1293.76 105.296 1294.28 104.934Z" fill="#6C63FF"/>
<path d="M1261.62 104.934C1261.97 104.716 1262.22 104.422 1262.35 104.091C1262.41 103.925 1262.39 103.748 1262.29 103.592C1262.2 103.436 1262.04 103.309 1261.83 103.232C1261.36 103.095 1260.86 103.344 1260.48 103.595C1260.1 103.845 1259.66 104.132 1259.17 104.079C1259.43 103.902 1259.62 103.677 1259.73 103.426C1259.84 103.176 1259.86 102.908 1259.79 102.649C1259.77 102.542 1259.7 102.442 1259.61 102.359C1259.36 102.146 1258.89 102.238 1258.57 102.405C1257.58 102.938 1257.3 103.967 1257.3 104.894C1257.24 104.553 1257.24 104.209 1257.28 103.869C1257.3 103.698 1257.26 103.525 1257.18 103.367C1257.08 103.209 1256.95 103.07 1256.78 102.962C1256.54 102.865 1256.28 102.817 1256 102.823C1255.78 102.799 1255.56 102.811 1255.34 102.858C1255.13 102.904 1254.92 102.985 1254.76 103.095C1254.59 103.266 1254.5 103.473 1254.52 103.686C1254.53 103.898 1254.63 104.102 1254.8 104.264C1255.17 104.582 1255.61 104.849 1256.1 105.054C1256.47 105.222 1256.79 105.452 1257.02 105.726C1257.04 105.764 1257.07 105.804 1257.08 105.846H1259.89C1260.51 105.603 1261.1 105.296 1261.62 104.934Z" fill="#6C63FF"/>
<path d="M1307.93 88.6805C1307.93 88.6805 1308.97 89.7273 1307.45 91.3078C1305.91 92.8891 1304.64 94.2227 1305.15 95.2078C1305.15 95.2078 1307.47 92.2727 1309.35 92.232C1311.23 92.1906 1309.99 90.4461 1307.93 88.6805Z" fill="#6C63FF"/>
<path opacity="0.1" d="M1307.93 88.6805C1308.02 88.782 1308.09 88.8922 1308.14 89.0094C1309.97 90.6563 1310.96 92.193 1309.19 92.232C1307.55 92.268 1305.57 94.5125 1305.1 95.0789C1305.11 95.1227 1305.13 95.1656 1305.15 95.2078C1305.15 95.2078 1307.47 92.2727 1309.35 92.232C1311.23 92.1906 1309.99 90.4461 1307.93 88.6805Z" fill="black"/>
<path d="M1309.87 90.0148C1309.87 90.3836 1309.82 90.682 1309.76 90.682C1309.69 90.682 1309.64 90.3836 1309.64 90.0148C1309.64 89.6469 1309.7 89.8203 1309.77 89.8203C1309.83 89.8203 1309.87 89.6469 1309.87 90.0148Z" fill="#FFD037"/>
<path d="M1310.55 90.4547C1310.12 90.6313 1309.75 90.7375 1309.72 90.693C1309.69 90.6484 1310.01 90.4688 1310.42 90.293C1310.85 90.1164 1310.69 90.2445 1310.72 90.2891C1310.75 90.3344 1310.97 90.2789 1310.55 90.4547Z" fill="#FFD037"/>
<path d="M1302.39 88.6805C1302.39 88.6805 1301.33 89.7273 1302.87 91.3078C1304.41 92.8891 1305.66 94.2227 1305.15 95.2078C1305.15 95.2078 1302.84 92.2727 1300.96 92.232C1299.08 92.1906 1300.31 90.4461 1302.39 88.6805Z" fill="#6C63FF"/>
<path opacity="0.1" d="M1302.39 88.6805C1302.3 88.782 1302.23 88.8922 1302.17 89.0094C1300.33 90.6563 1299.36 92.193 1301.12 92.232C1302.77 92.268 1304.74 94.5125 1305.21 95.0789C1305.19 95.1227 1305.17 95.1656 1305.15 95.2078C1305.15 95.2078 1302.84 92.2727 1300.96 92.232C1299.08 92.1906 1300.31 90.4461 1302.39 88.6805Z" fill="black"/>
<path d="M1300.43 90.0148C1300.43 90.3836 1300.49 90.682 1300.56 90.682C1300.63 90.682 1300.68 90.3836 1300.68 90.0148C1300.68 89.6469 1300.61 89.8203 1300.55 89.8203C1300.48 89.8203 1300.43 89.6469 1300.43 90.0148Z" fill="#FFD037"/>
<path d="M1299.77 90.4547C1300.19 90.6313 1300.56 90.7375 1300.59 90.693C1300.63 90.6484 1300.31 90.4688 1299.88 90.293C1299.46 90.1164 1299.63 90.2445 1299.59 90.2891C1299.56 90.3344 1299.34 90.2789 1299.77 90.4547Z" fill="#FFD037"/>
<path d="M1300.77 95.0711C1300.77 95.0711 1303.7 95.0023 1304.59 94.5219C1305.47 94.0414 1309.09 93.468 1309.32 94.2383C1309.53 95.0086 1313.72 98.0695 1310.41 98.0898C1307.1 98.1102 1302.72 97.6961 1301.84 97.2867C1300.96 96.8766 1300.77 95.0711 1300.77 95.0711Z" fill="#A8A8A8"/>
<path opacity="0.2" d="M1310.48 97.8219C1307.16 97.8422 1302.78 97.4281 1301.9 97.018C1301.22 96.7062 1300.96 95.5852 1300.86 95.068C1300.8 95.0703 1300.77 95.0711 1300.77 95.0711C1300.77 95.0711 1300.96 96.8766 1301.84 97.2867C1302.72 97.6969 1307.1 98.1102 1310.41 98.0898C1311.37 98.0844 1311.69 97.825 1311.68 97.4406C1311.55 97.6727 1311.18 97.8172 1310.48 97.8219Z" fill="black"/>
<path opacity="0.1" d="M619.139 105.718C616.374 105.718 614.134 105.395 614.134 104.995C614.134 104.596 616.374 104.272 619.139 104.272C621.903 104.272 624.143 104.596 624.143 104.995C624.143 105.395 621.903 105.718 619.139 105.718Z" fill="#6C63FF"/>
<path opacity="0.1" d="M596.557 102.949C593.793 102.949 591.553 102.626 591.553 102.227C591.553 101.827 593.793 101.503 596.557 101.503C599.322 101.503 601.563 101.827 601.563 102.227C601.563 102.626 599.322 102.949 596.557 102.949Z" fill="#6C63FF"/>
<path opacity="0.1" d="M626.812 111.334C624.847 111.334 623.254 111.103 623.254 110.82C623.254 110.535 624.847 110.305 626.812 110.305C628.776 110.305 630.369 110.535 630.369 110.82C630.369 111.103 628.776 111.334 626.812 111.334Z" fill="#6C63FF"/>
<path opacity="0.1" d="M606.914 110.82C604.95 110.82 603.357 110.589 603.357 110.305C603.357 110.021 604.95 109.791 606.914 109.791C608.879 109.791 610.472 110.021 610.472 110.305C610.472 110.589 608.879 110.82 606.914 110.82Z" fill="#6C63FF"/>
<path d="M619.031 104.833C619.031 104.833 626.051 80.6195 617.932 70.9212C611.859 63.6661 604.967 64.5342 601.88 65.432C601.082 65.6557 600.338 66.0595 599.703 66.6154C599.066 67.1713 598.553 67.866 598.198 68.6514C597.119 71.1021 597.314 75.0791 604.932 79.7203C617.689 87.4914 618.482 98.1531 618.482 98.1531L619.031 104.833Z" fill="#6C63FF"/>
<path d="M602.979 68.8659C602.979 68.8659 623.67 75.674 619.031 104.833" stroke="#565987" stroke-miterlimit="10"/>
<path d="M615.064 71.3066C615.064 71.3066 612.214 73.3272 613.12 76.3631" stroke="#565987" stroke-miterlimit="10"/>
<path d="M605.054 73.105C605.054 73.105 606.796 71.2403 608.915 72.269" stroke="#565987" stroke-miterlimit="10"/>
<path d="M613.233 82.482C613.233 82.482 616.291 80.8484 617.082 82.8945" stroke="#565987" stroke-miterlimit="10"/>
<path d="M620.801 85.8859C620.801 85.8859 618.504 85.6938 618.462 86.8492" stroke="#565987" stroke-miterlimit="10"/>
<path d="M619.315 105.026C619.315 105.026 611.095 87.4273 608.836 87.8125C607.764 87.9961 607.269 89.1063 607.046 90.2219C606.769 91.6641 606.925 93.1609 607.493 94.5055C608.659 97.3211 611.793 102.67 619.315 105.026Z" fill="#6C63FF"/>
<path d="M608.897 91.1524C608.897 91.1524 617.526 104.32 619.192 104.897" stroke="#565987" stroke-miterlimit="10"/>
<path d="M608.104 93.2078H610.118" stroke="#565987" stroke-miterlimit="10"/>
<path d="M610.516 98.025L613.673 98.1668" stroke="#565987" stroke-miterlimit="10"/>
<path d="M612.438 94.1711L612.095 95.9016" stroke="#565987" stroke-miterlimit="10"/>
<path d="M615.794 99.4383L615.733 101.01" stroke="#565987" stroke-miterlimit="10"/>
<path d="M619.07 105.026C619.07 105.026 627.291 87.4273 629.549 87.8125C630.622 87.9961 631.116 89.1063 631.34 90.2219C631.617 91.6641 631.46 93.1609 630.892 94.5055C629.726 97.3211 626.593 102.67 619.07 105.026Z" fill="#6C63FF"/>
<path d="M629.489 91.1524C629.489 91.1524 620.86 104.32 619.192 104.897" stroke="#565987" stroke-miterlimit="10"/>
<path d="M630.282 93.2078H628.268" stroke="#565987" stroke-miterlimit="10"/>
<path d="M627.87 98.025L624.713 98.1668" stroke="#565987" stroke-miterlimit="10"/>
<path d="M625.948 94.1711L626.291 95.9016" stroke="#565987" stroke-miterlimit="10"/>
<path d="M622.592 99.4383L622.653 101.01" stroke="#565987" stroke-miterlimit="10"/>
<path d="M604.956 109.135C604.732 108.944 604.568 108.684 604.487 108.392C604.451 108.246 604.465 108.091 604.524 107.953C604.583 107.816 604.686 107.703 604.815 107.636C605.115 107.515 605.436 107.734 605.679 107.955C605.922 108.176 606.201 108.429 606.52 108.382C606.356 108.226 606.233 108.027 606.164 107.806C606.094 107.586 606.081 107.35 606.124 107.122C606.138 107.027 606.176 106.939 606.233 106.866C606.4 106.678 606.703 106.759 606.903 106.906C607.537 107.376 607.715 108.284 607.718 109.1C607.752 108.8 607.756 108.497 607.729 108.196C607.717 108.045 607.74 107.894 607.796 107.755C607.853 107.615 607.94 107.492 608.052 107.397C608.203 107.312 608.373 107.27 608.544 107.275C608.685 107.254 608.829 107.264 608.966 107.305C609.105 107.346 609.233 107.417 609.342 107.514C609.448 107.665 609.501 107.848 609.496 108.035C609.489 108.222 609.425 108.402 609.31 108.545C609.075 108.825 608.795 109.061 608.484 109.241C608.248 109.389 608.046 109.592 607.895 109.834C607.876 109.867 607.862 109.902 607.851 109.939H606.061C605.66 109.725 605.288 109.455 604.956 109.135Z" fill="#6C63FF"/>
<path d="M625.841 109.135C625.617 108.944 625.453 108.684 625.373 108.392C625.336 108.246 625.349 108.091 625.409 107.953C625.468 107.816 625.57 107.703 625.699 107.636C625.999 107.515 626.321 107.734 626.563 107.955C626.807 108.176 627.086 108.429 627.405 108.382C627.241 108.226 627.118 108.027 627.049 107.806C626.979 107.586 626.966 107.35 627.009 107.122C627.023 107.027 627.061 106.939 627.119 106.866C627.285 106.678 627.588 106.759 627.788 106.906C628.422 107.376 628.599 108.284 628.602 109.1C628.637 108.8 628.641 108.497 628.615 108.196C628.601 108.045 628.625 107.894 628.681 107.755C628.737 107.615 628.825 107.492 628.937 107.397C629.088 107.312 629.257 107.27 629.428 107.275C629.57 107.254 629.714 107.264 629.852 107.305C629.989 107.346 630.117 107.417 630.227 107.514C630.332 107.665 630.387 107.848 630.38 108.035C630.374 108.222 630.31 108.402 630.195 108.545C629.96 108.825 629.68 109.061 629.369 109.241C629.133 109.389 628.931 109.592 628.779 109.834C628.761 109.867 628.747 109.902 628.735 109.939H626.946C626.545 109.725 626.173 109.455 625.841 109.135Z" fill="#6C63FF"/>
<path d="M596.233 94.8086C596.233 94.8086 595.562 95.7312 596.542 97.1242C597.523 98.518 598.33 99.6937 598.004 100.562C598.004 100.562 596.524 97.975 595.322 97.9391C594.118 97.9023 594.908 96.3648 596.233 94.8086Z" fill="#6C63FF"/>
<path opacity="0.1" d="M596.233 94.8086C596.174 94.8977 596.128 94.9953 596.096 95.0977C594.921 96.55 594.295 97.9047 595.424 97.9391C596.476 97.9703 597.737 99.9492 598.039 100.448C598.029 100.488 598.018 100.525 598.004 100.562C598.004 100.562 596.524 97.975 595.322 97.9391C594.118 97.9023 594.908 96.3648 596.233 94.8086Z" fill="black"/>
<path d="M594.986 95.9844C594.986 96.3094 595.021 96.5727 595.064 96.5727C595.106 96.5727 595.141 96.3094 595.141 95.9844C595.141 95.6602 595.098 95.8125 595.055 95.8125C595.012 95.8125 594.986 95.6602 594.986 95.9844Z" fill="#FFD037"/>
<path d="M594.558 96.3727C594.829 96.5281 595.066 96.6219 595.086 96.582C595.107 96.543 594.903 96.3852 594.632 96.2297C594.362 96.0742 594.468 96.1867 594.448 96.2266C594.427 96.2664 594.287 96.2172 594.558 96.3727Z" fill="#FFD037"/>
<path d="M599.774 94.8086C599.774 94.8086 600.445 95.7312 599.465 97.1242C598.485 98.518 597.677 99.6937 598.004 100.562C598.004 100.562 599.483 97.975 600.686 97.9391C601.889 97.9023 601.099 96.3648 599.774 94.8086Z" fill="#6C63FF"/>
<path opacity="0.1" d="M599.774 94.8086C599.833 94.8977 599.879 94.9953 599.912 95.0977C601.086 96.55 601.712 97.9047 600.583 97.9391C599.532 97.9703 598.27 99.9492 597.968 100.448C597.978 100.488 597.989 100.525 598.004 100.562C598.004 100.562 599.483 97.975 600.686 97.9391C601.889 97.9023 601.099 96.3648 599.774 94.8086Z" fill="black"/>
<path d="M601.022 95.9844C601.022 96.3094 600.987 96.5727 600.944 96.5727C600.902 96.5727 600.867 96.3094 600.867 95.9844C600.867 95.6602 600.91 95.8125 600.953 95.8125C600.996 95.8125 601.022 95.6602 601.022 95.9844Z" fill="#FFD037"/>
<path d="M601.449 96.3727C601.178 96.5281 600.941 96.6219 600.921 96.582C600.9 96.543 601.104 96.3852 601.375 96.2297C601.646 96.0742 601.539 96.1867 601.56 96.2266C601.58 96.2664 601.72 96.2172 601.449 96.3727Z" fill="#FFD037"/>
<path d="M600.807 100.441C600.807 100.441 598.933 100.381 598.368 99.9578C597.803 99.5344 595.483 99.0289 595.343 99.7078C595.203 100.387 592.526 103.085 594.643 103.103C596.76 103.121 599.562 102.756 600.125 102.395C600.689 102.033 600.807 100.441 600.807 100.441Z" fill="#A8A8A8"/>
<path opacity="0.2" d="M594.605 102.866C596.722 102.884 599.524 102.52 600.088 102.158C600.517 101.883 600.687 100.895 600.745 100.439C600.785 100.441 600.807 100.441 600.807 100.441C600.807 100.441 600.689 102.033 600.125 102.395C599.562 102.755 596.76 103.121 594.643 103.103C594.032 103.098 593.82 102.869 593.832 102.53C593.917 102.734 594.15 102.863 594.605 102.866Z" fill="black"/>
<path d="M242.142 157.815C242.142 157.815 247.742 157.131 251.102 160.152C251.102 160.152 248.638 161.634 243.337 159.582L242.142 157.815Z" fill="#67B9DD"/>
<path d="M241.544 157.748C241.544 157.748 237.972 161.111 239.724 164.841C239.724 164.841 242.637 163.951 242.953 159.421L241.544 157.748Z" fill="#67B9DD"/>
<path d="M238.334 152.23C238.334 152.23 240.574 149.096 249.535 153.484C249.535 153.484 248.339 155.593 244.382 155.422C240.424 155.251 239.379 153.883 238.334 152.23Z" fill="#67B9DD"/>
<path d="M237.756 152.005C237.756 152.005 233.109 151.6 232.657 159.718C232.657 159.718 235.605 160.185 237.698 157.616C239.791 155.047 238.926 153.608 237.756 152.005Z" fill="#67B9DD"/>
<path d="M235.048 145.528C235.048 145.528 237.662 140 247.144 143.932C247.144 143.932 244.98 149.004 236.02 147.409L235.048 145.528Z" fill="#67B9DD"/>
<path d="M232.137 137.265C232.137 137.265 237.065 131.68 245.8 136.866C245.8 136.866 242.74 142.109 232.884 139.259L232.137 137.265Z" fill="#67B9DD"/>
<path d="M231.091 129.4C231.091 129.4 236.841 124.271 245.503 129.4C245.503 129.4 240.052 133.902 231.091 130.711V129.4Z" fill="#67B9DD"/>
<path d="M230.196 121.764C230.196 121.764 236.02 116.407 244.307 121.479C244.307 121.479 237.736 126.209 230.196 123.018V121.764Z" fill="#67B9DD"/>
<path d="M230.719 114.982C230.719 114.982 236.841 108.087 244.606 112.76C244.606 112.76 238.035 118.687 230.719 116.293V114.982Z" fill="#67B9DD"/>
<path d="M232.137 107.061C232.137 107.061 238.633 100.223 246.174 105.466C246.174 105.466 238.484 111.392 232.137 108.315V107.061Z" fill="#67B9DD"/>
<path d="M234.303 99.9805C234.303 99.9805 241.993 93.5547 248.713 96.1195C248.713 96.1195 240.699 102.944 233.979 101.691L234.303 99.9805Z" fill="#67B9DD"/>
<path d="M236.99 93.2703C236.99 93.2703 245.875 85.4055 251.027 88.0273C251.027 88.0273 244.489 94.125 236.351 94.7516L236.99 93.2703Z" fill="#67B9DD"/>
<path d="M240.87 85.4852C240.87 85.4852 248.638 79.0578 254.313 80.6539C254.313 80.6539 247.668 87.3211 239.828 87.4922L240.87 85.4852Z" fill="#67B9DD"/>
<path d="M244.382 78.2031C244.382 78.2031 252.969 72.0484 256.702 73.1312C256.702 73.1312 250.505 79.9695 244.009 79.5711L244.382 78.2031Z" fill="#67B9DD"/>
<path d="M247.817 71.4785C247.817 71.4785 255.209 64.1271 259.241 64.697C259.241 64.697 254.761 71.2506 247.817 72.2194V71.4785Z" fill="#67B9DD"/>
<path d="M251.544 62.4137C251.544 62.4137 258.078 56.777 261.606 56.7908C261.606 56.7908 256.45 64.3162 251.275 64.2514L251.544 62.4137Z" fill="#67B9DD"/>
<path d="M253.753 56.3767L260.062 44.6372C260.062 44.6372 260.379 55.2491 252.949 58.5544L253.753 56.3767Z" fill="#67B9DD"/>
<path d="M256.314 43.4304C256.314 43.4304 257.359 33.6285 256.688 32.8307C256.688 32.8307 261.2 40.9799 256.271 47.7615L256.314 43.4304Z" fill="#67B9DD"/>
<path d="M234.805 145.397C234.805 145.397 228.26 142.301 224.024 149.877C224.024 149.877 229.847 152.827 235.574 147.33L234.805 145.397Z" fill="#67B9DD"/>
<path d="M231.927 136.949C231.927 136.949 223.901 134.155 220.007 142.062C220.007 142.062 226.208 145.309 232.657 138.948L231.927 136.949Z" fill="#67B9DD"/>
<path d="M230.719 129.87C230.719 129.87 224.969 124.741 216.307 129.87C216.307 129.87 221.758 134.373 230.719 131.181V129.87Z" fill="#67B9DD"/>
<path d="M230 121.764C230 121.764 224.176 116.407 215.887 121.479C215.887 121.479 222.458 126.209 230 123.018V121.764Z" fill="#67B9DD"/>
<path d="M230.719 115.177C230.719 115.177 226.632 107.453 217.754 110.775C217.754 110.775 222.544 117.624 230.357 116.459L230.719 115.177Z" fill="#67B9DD"/>
<path d="M232.651 107.022C232.651 107.022 228.592 99.1641 219.577 102.809C219.577 102.809 225.091 110.01 232.242 108.237L232.651 107.022Z" fill="#67B9DD"/>
<path d="M235.168 100.021C235.168 100.021 233.559 91.4055 226.114 90.6344C226.114 90.6344 227.697 99.7188 234.174 101.573L235.168 100.021Z" fill="#67B9DD"/>
<path d="M237.181 93.2852C237.181 93.2852 236.556 82.9117 230.383 82.5445C230.383 82.5445 230.591 90.4227 236.485 94.7516L237.181 93.2852Z" fill="#67B9DD"/>
<path d="M241.511 85.1883C241.511 85.1883 239.669 76.5576 233.781 75.5023C233.781 75.5023 234.513 83.8609 240.931 87.3016L241.511 85.1883Z" fill="#67B9DD"/>
<path d="M245.081 78.2656C245.081 78.2656 245.018 69.2751 241.419 67.9538C241.419 67.9538 239.187 76.0923 244.038 79.4141L245.081 78.2656Z" fill="#67B9DD"/>
<path d="M248.091 71.3784C248.091 71.3784 247.587 62.1195 243.86 60.8152C243.86 60.8152 242.583 68.1427 247.533 71.9843L248.091 71.3784Z" fill="#67B9DD"/>
<path d="M252.065 63.1508C252.065 63.1508 252.042 55.625 249.381 53.8552C249.381 53.8552 246.736 62.1041 250.675 64.6655L252.065 63.1508Z" fill="#67B9DD"/>
<path d="M253.439 56.0063L250.851 43.4721C250.851 43.4721 247.334 53.7416 253.563 58.2667L253.439 56.0063Z" fill="#67B9DD"/>
<path d="M253.945 43.5495C253.945 43.5495 247.299 35.1245 247.436 34.1817C247.436 34.1817 248.141 43.0124 256.506 47.4143L253.945 43.5495Z" fill="#67B9DD"/>
<path d="M254.723 41.0612C254.723 41.0612 248.452 29.0938 245.614 28.125C245.614 28.125 254.574 31.6013 255.246 40.7193L254.723 41.0612Z" fill="#67B9DD"/>
<path d="M251.242 64.3219L250.813 64.2217C256.106 51.0484 257.427 42.6395 254.532 40.5441L254.84 40.2961C257.909 42.5172 256.665 50.8252 251.242 64.3219Z" fill="#444053"/>
<path d="M236.668 95.157L236.034 94.9859C236.594 93.7789 237.201 92.5539 237.836 91.3461C243.36 80.8375 248.064 71.0611 251.079 63.5549L251.631 63.3434C248.61 70.8631 243.991 81.0148 238.459 91.5375C237.828 92.7383 237.225 93.9562 236.668 95.157Z" fill="#444053"/>
<path d="M250.023 167.675C249.937 167.602 241.357 160.23 235.377 147.641C231.872 140.272 229.919 132.526 229.593 124.69C229.183 114.895 231.875 103.957 236.489 94.0234L236.99 94.4711C226.634 116.769 230.749 135.876 236.206 147.38C242.124 159.852 250.604 167.145 250.689 167.218L250.023 167.675Z" fill="#444053"/>
<path d="M1454.2 128.277C1454.2 128.277 1449.56 127.711 1446.78 130.207C1446.78 130.207 1448.83 131.432 1453.22 129.736L1454.2 128.277Z" fill="#67B9DD"/>
<path d="M1454.7 128.221C1454.7 128.221 1457.66 131 1456.21 134.083C1456.21 134.083 1453.79 133.347 1453.54 129.603L1454.7 128.221Z" fill="#67B9DD"/>
<path d="M1457.35 123.661C1457.35 123.661 1455.5 121.07 1448.08 124.697C1448.08 124.697 1449.07 126.44 1452.35 126.298C1455.62 126.157 1456.49 125.027 1457.35 123.661Z" fill="#67B9DD"/>
<path d="M1457.83 123.474C1457.83 123.474 1461.68 123.14 1462.06 129.849C1462.06 129.849 1459.62 130.235 1457.89 128.112C1456.16 125.989 1456.86 124.799 1457.83 123.474Z" fill="#67B9DD"/>
<path d="M1460.08 118.122C1460.08 118.122 1457.92 113.553 1450.06 116.803C1450.06 116.803 1451.86 120.995 1459.28 119.676L1460.08 118.122Z" fill="#67B9DD"/>
<path d="M1462.49 111.292C1462.49 111.292 1458.41 106.677 1451.17 110.963C1451.17 110.963 1453.71 115.295 1461.88 112.941L1462.49 111.292Z" fill="#67B9DD"/>
<path d="M1463.36 104.793C1463.36 104.793 1458.59 100.554 1451.42 104.793C1451.42 104.793 1455.93 108.513 1463.36 105.876V104.793Z" fill="#67B9DD"/>
<path d="M1464.1 98.482C1464.1 98.482 1459.28 94.0547 1452.41 98.2461C1452.41 98.2461 1457.86 102.155 1464.1 99.518V98.482Z" fill="#67B9DD"/>
<path d="M1463.67 92.8774C1463.67 92.8774 1458.59 87.1781 1452.16 91.0406C1452.16 91.0406 1457.61 95.9383 1463.67 93.9602V92.8774Z" fill="#67B9DD"/>
<path d="M1462.49 86.3305C1462.49 86.3305 1457.11 80.6789 1450.86 85.0117C1450.86 85.0117 1457.23 89.9102 1462.49 87.3664V86.3305Z" fill="#67B9DD"/>
<path d="M1460.7 80.4789C1460.7 80.4789 1454.32 75.1684 1448.76 77.2878C1448.76 77.2878 1455.4 82.9281 1460.97 81.8922L1460.7 80.4789Z" fill="#67B9DD"/>
<path d="M1458.47 74.9329C1458.47 74.9329 1451.11 68.4334 1446.84 70.5999C1446.84 70.5999 1452.26 75.6394 1459 76.1574L1458.47 74.9329Z" fill="#67B9DD"/>
<path d="M1455.26 68.499C1455.26 68.499 1448.83 63.1873 1444.12 64.506C1444.12 64.506 1449.63 70.0165 1456.13 70.1577L1455.26 68.499Z" fill="#67B9DD"/>
<path d="M1452.35 62.4809C1452.35 62.4809 1445.23 57.3943 1442.14 58.2891C1442.14 58.2891 1447.27 63.9409 1452.66 63.6112L1452.35 62.4809Z" fill="#67B9DD"/>
<path d="M1449.5 56.9233C1449.5 56.9233 1443.38 50.8477 1440.03 51.3187C1440.03 51.3187 1443.75 56.7349 1449.5 57.5355V56.9233Z" fill="#67B9DD"/>
<path d="M1446.41 49.4316C1446.41 49.4316 1441.01 44.7732 1438.08 44.7846C1438.08 44.7846 1442.35 51.004 1446.64 50.9505L1446.41 49.4316Z" fill="#67B9DD"/>
<path d="M1444.59 44.4424L1439.36 34.7403C1439.36 34.7403 1439.09 43.5105 1445.25 46.2422L1444.59 44.4424Z" fill="#67B9DD"/>
<path d="M1442.46 33.743C1442.46 33.743 1441.6 25.6421 1442.15 24.9827C1442.15 24.9827 1438.42 31.7177 1442.5 37.3223L1442.46 33.743Z" fill="#67B9DD"/>
<path d="M1460.28 118.013C1460.28 118.013 1465.71 115.455 1469.21 121.716C1469.21 121.716 1464.39 124.154 1459.65 119.612L1460.28 118.013Z" fill="#67B9DD"/>
<path d="M1462.67 111.032C1462.67 111.032 1469.31 108.723 1472.54 115.257C1472.54 115.257 1467.41 117.941 1462.06 112.684L1462.67 111.032Z" fill="#67B9DD"/>
<path d="M1463.67 105.181C1463.67 105.181 1468.43 100.942 1475.6 105.181C1475.6 105.181 1471.09 108.902 1463.67 106.265V105.181Z" fill="#67B9DD"/>
<path d="M1464.26 98.482C1464.26 98.482 1469.08 94.0547 1475.95 98.2461C1475.95 98.2461 1470.51 102.155 1464.26 99.518V98.482Z" fill="#67B9DD"/>
<path d="M1463.67 93.0383C1463.67 93.0383 1467.05 86.6547 1474.41 89.4C1474.41 89.4 1470.44 95.0602 1463.97 94.0977L1463.67 93.0383Z" fill="#67B9DD"/>
<path d="M1462.06 86.2984C1462.06 86.2984 1465.43 79.8039 1472.89 82.8156C1472.89 82.8156 1468.33 88.768 1462.4 87.3016L1462.06 86.2984Z" fill="#67B9DD"/>
<path d="M1459.98 80.5125C1459.98 80.5125 1461.32 73.392 1467.48 72.7546C1467.48 72.7546 1466.17 80.2625 1460.8 81.7953L1459.98 80.5125Z" fill="#67B9DD"/>
<path d="M1458.32 74.9452C1458.32 74.9452 1458.83 66.372 1463.95 66.069C1463.95 66.069 1463.77 72.5795 1458.89 76.1574L1458.32 74.9452Z" fill="#67B9DD"/>
<path d="M1454.72 68.2536C1454.72 68.2536 1456.25 61.1209 1461.13 60.2488C1461.13 60.2488 1460.53 67.1569 1455.2 70.0001L1454.72 68.2536Z" fill="#67B9DD"/>
<path d="M1451.76 62.5324C1451.76 62.5324 1451.82 55.1023 1454.8 54.0102C1454.8 54.0102 1456.65 60.7364 1452.63 63.4813L1451.76 62.5324Z" fill="#67B9DD"/>
<path d="M1449.28 56.8405C1449.28 56.8405 1449.7 49.1886 1452.78 48.1105C1452.78 48.1105 1453.83 54.1664 1449.74 57.3413L1449.28 56.8405Z" fill="#67B9DD"/>
<path d="M1445.98 50.0409C1445.98 50.0409 1446 43.8211 1448.2 42.3585C1448.2 42.3585 1450.39 49.1758 1447.14 51.2927L1445.98 50.0409Z" fill="#67B9DD"/>
<path d="M1444.85 44.1362L1446.98 33.7773C1446.98 33.7773 1449.9 42.2646 1444.74 46.0044L1444.85 44.1362Z" fill="#67B9DD"/>
<path d="M1444.43 33.8413C1444.43 33.8413 1449.93 26.8784 1449.82 26.0994C1449.82 26.0994 1449.24 33.3975 1442.31 37.0354L1444.43 33.8413Z" fill="#67B9DD"/>
<path d="M1443.78 31.7849C1443.78 31.7849 1448.98 21.8944 1451.32 21.0938C1451.32 21.0938 1443.9 23.9667 1443.35 31.5023L1443.78 31.7849Z" fill="#67B9DD"/>
<path d="M1446.67 51.0087L1447.02 50.9259C1442.63 40.0388 1441.54 33.0893 1443.94 31.3576L1443.69 31.1525C1441.14 32.9882 1442.17 39.8544 1446.67 51.0087Z" fill="#444053"/>
<path d="M1458.74 76.4925L1459.27 76.3509C1458.8 75.3533 1458.3 74.3412 1457.77 73.343C1453.2 64.6577 1449.3 56.5783 1446.8 50.3748L1446.34 50.2001C1448.85 56.4148 1452.68 64.8047 1457.25 73.5009C1457.77 74.4937 1458.28 75.5003 1458.74 76.4925Z" fill="#444053"/>
<path d="M1447.67 136.425C1447.74 136.364 1454.86 130.272 1459.81 119.868C1462.71 113.778 1464.32 107.376 1464.6 100.9C1464.94 92.8047 1462.71 83.7656 1458.89 75.5554L1458.47 75.9255C1467.05 94.3531 1463.64 110.145 1459.12 119.652C1454.22 129.96 1447.19 135.987 1447.13 136.047L1447.67 136.425Z" fill="#444053"/>
<path d="M194.392 172.018C194.392 172.018 204.211 171.788 207.17 170.179C210.13 168.571 222.274 166.651 223.009 169.23C223.743 171.809 237.765 182.059 226.678 182.127C215.593 182.195 200.92 180.809 197.967 179.436C195.014 178.063 194.392 172.018 194.392 172.018Z" fill="#A8A8A8"/>
</g>
<defs>
<filter id="filter0_d_8_5" x="0" y="0" width="1482" height="283" filterUnits="userSpaceOnUse" color-interpolation-filters="sRGB">
<feFlood flood-opacity="0" result="BackgroundImageFix"/>
<feColorMatrix in="SourceAlpha" type="matrix" values="0 0 0 0 0 0 0 0 0 0 0 0 0 0 0 0 0 0 127 0" result="hardAlpha"/>
<feOffset dy="4"/>
<feGaussianBlur stdDeviation="2"/>
<feComposite in2="hardAlpha" operator="out"/>
<feColorMatrix type="matrix" values="0 0 0 0 0 0 0 0 0 0 0 0 0 0 0 0 0 0 0.25 0"/>
<feBlend mode="normal" in2="BackgroundImageFix" result="effect1_dropShadow_8_5"/>
<feBlend mode="normal" in="SourceGraphic" in2="effect1_dropShadow_8_5" result="shape"/>
</filter>
<clipPath id="clip0_8_5">
<rect width="1474" height="275" fill="white" transform="translate(4)"/>
</clipPath>
</defs>
</svg>
