<svg width="1550" height="324" viewBox="0 0 1550 324" fill="none" xmlns="http://www.w3.org/2000/svg">
<path d="M1114.5 120L1105 163.338H1124L1114.5 120Z" fill="#333246"/>
<path d="M1104.5 123.662L1095 167H1114L1104.5 123.662Z" fill="#333246"/>
<path d="M1092.5 123.662L1083 167H1102L1092.5 123.662Z" fill="#333246"/>
<path fill-rule="evenodd" clip-rule="evenodd" d="M1550 180L1517.71 168C1485.42 156 1420.83 132 1356.25 120C1291.67 108 1227.08 108 1162.5 132C1097.92 156 1033.33 204 968.75 192C904.167 180 839.583 108 775 96C710.417 84 645.833 132 581.25 138C516.667 144 452.083 108 387.5 132C322.917 156 258.333 240 193.75 228C129.167 216 64.5834 108 32.2917 54L0 0V324H32.2917C64.5834 324 129.167 324 193.75 324C258.333 324 322.917 324 387.5 324C452.083 324 516.667 324 581.25 324C645.833 324 710.417 324 775 324C839.583 324 904.167 324 968.75 324C1033.33 324 1097.92 324 1162.5 324C1227.08 324 1291.67 324 1356.25 324C1420.83 324 1485.42 324 1517.71 324H1550V180Z" fill="#333246"/>
<path fill-rule="evenodd" clip-rule="evenodd" d="M1550 180L1517.71 168C1485.42 156 1391.08 132 1326.5 120C1261.92 108 1244.58 126.5 1180 150.5C1115.42 174.5 1090.58 211 1026 199C961.417 187 875.083 132 810.5 120C745.917 108 680.083 174 615.5 180C550.917 186 485.083 96 420.5 120C355.917 144 258.333 265 193.75 253C129.167 241 64.5834 108 32.2917 54L0 0V324H32.2917C64.5834 324 129.167 324 193.75 324C258.333 324 322.917 324 387.5 324C452.083 324 516.667 324 581.25 324C645.833 324 710.417 324 775 324C839.583 324 904.167 324 968.75 324C1033.33 324 1097.92 324 1162.5 324C1227.08 324 1291.67 324 1356.25 324C1420.83 324 1485.42 324 1517.71 324H1550V180Z" fill="#282833"/>
<path opacity="0.1" d="M1185.85 121.353C1190.07 121.353 1193.5 120.883 1193.5 120.303C1193.5 119.723 1190.07 119.253 1185.85 119.253C1181.62 119.253 1178.2 119.723 1178.2 120.303C1178.2 120.883 1181.62 121.353 1185.85 121.353Z" fill="#6C63FF"/>
<path opacity="0.1" d="M1180.5 141C1183.54 141 1186 140.552 1186 140C1186 139.448 1183.54 139 1180.5 139C1177.47 139 1175 139.448 1175 140C1175 140.552 1177.47 141 1180.5 141Z" fill="#6C63FF"/>
<path opacity="0.1" d="M1174.12 129.507C1177.13 129.507 1179.56 129.172 1179.56 128.76C1179.56 128.348 1177.13 128.014 1174.12 128.014C1171.12 128.014 1168.69 128.348 1168.69 128.76C1168.69 129.172 1171.12 129.507 1174.12 129.507Z" fill="#6C63FF"/>
<path opacity="0.1" d="M1204.53 128.76C1207.53 128.76 1209.96 128.426 1209.96 128.014C1209.96 127.602 1207.53 127.267 1204.53 127.267C1201.52 127.267 1199.09 127.602 1199.09 128.014C1199.09 128.426 1201.52 128.76 1204.53 128.76Z" fill="#6C63FF"/>
<path d="M1156.92 143C1156.92 143 1149.65 118.78 1158.06 109.079C1164.35 101.822 1171.49 102.69 1174.69 103.588C1175.52 103.812 1176.29 104.216 1176.95 104.772C1177.61 105.328 1178.13 106.023 1178.51 106.809C1179.63 109.26 1179.42 113.238 1171.53 117.88C1158.31 125.654 1157.49 136.318 1157.49 136.318L1156.92 143Z" fill="#6C63FF"/>
<path d="M1174 107C1174 107 1151.74 113.814 1156.73 143" stroke="#565987" stroke-miterlimit="10"/>
<path d="M1161 109C1161 109 1163.69 110.998 1162.83 114" stroke="#565987" stroke-miterlimit="10"/>
<path d="M1172 111C1172 111 1170.2 109.372 1168 110.27" stroke="#565987" stroke-miterlimit="10"/>
<path d="M1163 120.6C1163 120.6 1159.82 119.014 1159 121" stroke="#565987" stroke-miterlimit="10"/>
<path d="M1155 124.012C1155 124.012 1157.95 123.815 1158 125" stroke="#565987" stroke-miterlimit="10"/>
<path d="M1157 143C1157 143 1165.62 125.625 1167.98 126.006C1169.11 126.187 1169.63 127.283 1169.86 128.385C1170.15 129.808 1169.99 131.286 1169.39 132.614C1168.17 135.394 1164.88 140.674 1157 143Z" fill="#6C63FF"/>
<path d="M1168 129C1168 129 1158.78 142.411 1157 143" stroke="#565987" stroke-miterlimit="10"/>
<path d="M1168 131H1166" stroke="#565987" stroke-miterlimit="10"/>
<path d="M1166 136H1163" stroke="#565987" stroke-miterlimit="10"/>
<path d="M1164 132V134" stroke="#565987" stroke-miterlimit="10"/>
<path d="M1160 137V139" stroke="#565987" stroke-miterlimit="10"/>
<path d="M1157 143C1157 143 1148.38 125.625 1146.02 126.006C1144.89 126.187 1144.38 127.283 1144.14 128.385C1143.85 129.808 1144.01 131.286 1144.61 132.614C1145.83 135.394 1149.12 140.674 1157 143Z" fill="#6C63FF"/>
<path d="M1146 129C1146 129 1155.22 142.411 1157 143" stroke="#565987" stroke-miterlimit="10"/>
<path d="M1145 131H1147" stroke="#565987" stroke-miterlimit="10"/>
<path d="M1148 136H1151" stroke="#565987" stroke-miterlimit="10"/>
<path d="M1150 132L1149 134" stroke="#565987" stroke-miterlimit="10"/>
<path d="M1153 137V139" stroke="#565987" stroke-miterlimit="10"/>
<path d="M1207.52 126.315C1207.86 126.036 1208.11 125.66 1208.24 125.236C1208.29 125.024 1208.27 124.798 1208.18 124.598C1208.09 124.398 1207.93 124.236 1207.74 124.137C1207.28 123.962 1206.79 124.28 1206.41 124.601C1206.04 124.922 1205.62 125.289 1205.13 125.221C1205.38 124.994 1205.57 124.706 1205.67 124.385C1205.78 124.065 1205.8 123.722 1205.74 123.391C1205.71 123.254 1205.66 123.126 1205.57 123.019C1205.31 122.747 1204.85 122.864 1204.55 123.078C1203.58 123.761 1203.3 125.078 1203.3 126.264C1203.25 125.828 1203.24 125.388 1203.28 124.952C1203.3 124.733 1203.27 124.512 1203.18 124.31C1203.09 124.108 1202.96 123.929 1202.79 123.791C1202.56 123.667 1202.3 123.606 1202.04 123.614C1201.82 123.583 1201.6 123.598 1201.39 123.658C1201.18 123.717 1200.99 123.821 1200.82 123.961C1200.66 124.18 1200.57 124.446 1200.58 124.718C1200.59 124.989 1200.69 125.25 1200.87 125.458C1201.23 125.865 1201.65 126.207 1202.13 126.469C1202.49 126.684 1202.8 126.978 1203.03 127.329C1203.06 127.378 1203.08 127.429 1203.1 127.483H1205.83C1206.44 127.172 1207.01 126.779 1207.52 126.315Z" fill="#6C63FF"/>
<path d="M1175.61 126.315C1175.95 126.036 1176.2 125.66 1176.32 125.236C1176.38 125.024 1176.36 124.798 1176.27 124.598C1176.18 124.398 1176.02 124.236 1175.82 124.137C1175.36 123.962 1174.87 124.28 1174.5 124.601C1174.13 124.922 1173.7 125.289 1173.22 125.221C1173.47 124.994 1173.66 124.706 1173.76 124.385C1173.87 124.065 1173.89 123.722 1173.82 123.391C1173.8 123.254 1173.74 123.126 1173.65 123.019C1173.4 122.747 1172.94 122.864 1172.63 123.078C1171.66 123.761 1171.39 125.078 1171.39 126.264C1171.33 125.828 1171.33 125.388 1171.37 124.952C1171.39 124.733 1171.35 124.512 1171.27 124.31C1171.18 124.108 1171.05 123.929 1170.88 123.791C1170.65 123.667 1170.39 123.606 1170.12 123.614C1169.91 123.583 1169.69 123.598 1169.48 123.658C1169.27 123.717 1169.07 123.821 1168.91 123.961C1168.74 124.18 1168.66 124.446 1168.67 124.718C1168.68 124.989 1168.78 125.25 1168.95 125.458C1169.31 125.865 1169.74 126.207 1170.22 126.469C1170.58 126.684 1170.89 126.978 1171.12 127.329C1171.14 127.378 1171.17 127.429 1171.18 127.483H1173.92C1174.53 127.172 1175.1 126.779 1175.61 126.315Z" fill="#6C63FF"/>
<path d="M1180.65 133C1180.65 133 1181.25 133.962 1180.38 135.415C1179.5 136.869 1178.77 138.094 1179.07 139C1179.07 139 1180.39 136.302 1181.47 136.265C1182.55 136.227 1181.84 134.623 1180.65 133Z" fill="#6C63FF"/>
<path opacity="0.1" d="M1180.64 133C1180.69 133.093 1180.73 133.195 1180.76 133.302C1181.82 134.816 1182.39 136.229 1181.37 136.265C1180.42 136.298 1179.27 138.361 1179 138.882C1179.01 138.922 1179.02 138.961 1179.03 139C1179.03 139 1180.37 136.302 1181.46 136.265C1182.55 136.227 1181.84 134.623 1180.64 133Z" fill="black"/>
<path d="M1182.76 134.504C1182.37 134.856 1182.03 135.069 1182 134.98C1181.97 134.891 1182.27 134.532 1182.65 134.181C1183.05 133.828 1182.9 134.084 1182.92 134.173C1182.95 134.264 1183.15 134.153 1182.76 134.504Z" fill="#FFD037"/>
<path d="M1177.35 133C1177.35 133 1176.75 133.962 1177.63 135.415C1178.51 136.869 1179.23 138.094 1178.93 139C1178.93 139 1177.61 136.302 1176.53 136.265C1175.46 136.227 1176.16 134.623 1177.35 133Z" fill="#6C63FF"/>
<path opacity="0.1" d="M1177.36 133C1177.31 133.093 1177.27 133.195 1177.24 133.302C1176.17 134.816 1175.61 136.229 1176.63 136.265C1177.58 136.298 1178.73 138.361 1179 138.882C1178.99 138.922 1178.98 138.961 1178.96 139C1178.96 139 1177.63 136.302 1176.53 136.265C1175.45 136.227 1176.16 134.623 1177.36 133Z" fill="black"/>
<path d="M1175.24 134.504C1175.63 134.856 1175.97 135.069 1176 134.98C1176.03 134.891 1175.74 134.532 1175.34 134.181C1174.96 133.828 1175.11 134.084 1175.08 134.173C1175.05 134.264 1174.84 134.153 1175.24 134.504Z" fill="#FFD037"/>
<path d="M1176 138.144C1176 138.144 1177.88 138.079 1178.45 137.624C1179.01 137.17 1181.34 136.628 1181.48 137.356C1181.62 138.085 1184.31 140.98 1182.19 140.999C1180.06 141.019 1177.25 140.627 1176.68 140.24C1176.12 139.852 1176 138.144 1176 138.144Z" fill="#A8A8A8"/>
<path opacity="0.2" d="M1182.22 140.733C1180.1 140.753 1177.29 140.343 1176.72 139.935C1176.29 139.626 1176.12 138.513 1176.06 138C1176.02 138.002 1176 138.003 1176 138.003C1176 138.003 1176.12 139.795 1176.68 140.202C1177.25 140.609 1180.06 141.019 1182.19 140.999C1182.8 140.994 1183.01 140.736 1183 140.355C1182.91 140.585 1182.68 140.729 1182.22 140.733Z" fill="black"/>
<path d="M1386 125.023C1386 125.023 1382.88 124.788 1381 125.823C1381 125.823 1382.38 126.33 1385.34 125.628L1386 125.023Z" fill="#67B9DD"/>
<path d="M1386.76 125C1386.76 125 1388.68 126.422 1387.74 128C1387.74 128 1386.17 127.623 1386 125.707L1386.76 125Z" fill="#67B9DD"/>
<path d="M1388 121.506C1388 121.506 1386.8 120.043 1382 122.091C1382 122.091 1382.64 123.075 1384.76 122.995C1386.88 122.916 1387.44 122.277 1388 121.506Z" fill="#67B9DD"/>
<path d="M1388.57 121.002C1388.57 121.002 1390.78 120.793 1391 124.983C1391 124.983 1389.6 125.224 1388.6 123.898C1387.61 122.572 1388.02 121.829 1388.57 121.002Z" fill="#67B9DD"/>
<path d="M1390 117.736C1390 117.736 1388.49 114.546 1383 116.815C1383 116.815 1384.26 119.742 1389.44 118.821L1390 117.736Z" fill="#67B9DD"/>
<path d="M1392 112.956C1392 112.956 1389.11 110.906 1384 112.81C1384 112.81 1385.79 114.735 1391.57 113.689L1392 112.956Z" fill="#67B9DD"/>
<path d="M1393 109.445C1393 109.445 1389.41 106.194 1384 109.445C1384 109.445 1387.4 112.298 1393 110.275V109.445Z" fill="#67B9DD"/>
<path d="M1393 105.022C1393 105.022 1389.7 102.803 1385 104.904C1385 104.904 1388.73 106.864 1393 105.542V105.022Z" fill="#67B9DD"/>
<path d="M1393 101.015C1393 101.015 1389.47 97.4027 1385 99.8511C1385 99.8511 1388.79 102.956 1393 101.702V101.015Z" fill="#67B9DD"/>
<path d="M1392 96.8764C1392 96.8764 1387.83 93.2857 1383 96.0386C1383 96.0386 1387.93 99.1508 1392 97.5346V96.8764Z" fill="#67B9DD"/>
<path d="M1389.83 92.8222C1389.83 92.8222 1385.65 88.7613 1382 90.382C1382 90.382 1386.35 94.695 1390 93.9029L1389.83 92.8222Z" fill="#67B9DD"/>
<path d="M1388.65 89.3877C1388.65 89.3877 1383.81 86.1378 1381 87.2211C1381 87.2211 1384.56 89.741 1389 90L1388.65 89.3877Z" fill="#67B9DD"/>
<path d="M1387.35 85.8682C1387.35 85.8682 1382.53 82.2437 1379 83.1436C1379 83.1436 1383.13 86.9036 1388 87L1387.35 85.8682Z" fill="#67B9DD"/>
<path d="M1384.8 81.1589C1384.8 81.1589 1380.06 77.4198 1378 78.0776C1378 78.0776 1381.41 82.2321 1385 81.9898L1384.8 81.1589Z" fill="#67B9DD"/>
<path d="M1383 77.6077C1383 77.6077 1378.47 73.7149 1376 74.0167C1376 74.0167 1378.75 77.487 1383 78V77.6077Z" fill="#67B9DD"/>
<path d="M1380.84 72.2609C1380.84 72.2609 1377.05 69.9945 1375 70C1375 70 1377.99 73.0259 1381 72.9998L1380.84 72.2609Z" fill="#67B9DD"/>
<path d="M1379.55 68.9047L1376 63C1376 63 1375.82 68.3375 1380 70L1379.55 68.9047Z" fill="#67B9DD"/>
<path d="M1377.96 62.3894C1377.96 62.3894 1377.06 56.4809 1377.64 56C1377.64 56 1373.72 60.9122 1378 65L1377.96 62.3894Z" fill="#67B9DD"/>
<path d="M1390.4 118.318C1390.4 118.318 1393.8 116.744 1396 120.598C1396 120.598 1392.97 122.098 1390 119.303L1390.4 118.318Z" fill="#67B9DD"/>
<path d="M1391.46 113.224C1391.46 113.224 1396.53 111.918 1399 115.613C1399 115.613 1395.08 117.13 1391 114.158L1391.46 113.224Z" fill="#67B9DD"/>
<path d="M1393 109.445C1393 109.445 1396.19 106.194 1401 109.445C1401 109.445 1397.97 112.298 1393 110.275V109.445Z" fill="#67B9DD"/>
<path d="M1393 105.022C1393 105.022 1396.3 102.803 1401 104.904C1401 104.904 1397.27 106.864 1393 105.542V105.022Z" fill="#67B9DD"/>
<path d="M1393 101.148C1393 101.148 1395.2 96.5004 1400 98.4993C1400 98.4993 1397.41 102.621 1393.19 101.92L1393 101.148Z" fill="#67B9DD"/>
<path d="M1391 96.3279C1391 96.3279 1393.49 92.7953 1399 94.4335C1399 94.4335 1395.63 97.6712 1391.25 96.8736L1391 96.3279Z" fill="#67B9DD"/>
<path d="M1390 93.1486C1390 93.1486 1390.89 88.423 1395 88C1395 88 1394.13 92.9827 1390.55 94L1390 93.1486Z" fill="#67B9DD"/>
<path d="M1389 89.1589C1389 89.1589 1389.36 83.2103 1393 83C1393 83 1392.88 87.5174 1389.41 90L1389 89.1589Z" fill="#67B9DD"/>
<path d="M1386 84.9254C1386 84.9254 1387.19 80.5366 1391 80C1391 80 1390.53 84.2506 1386.38 86L1386 84.9254Z" fill="#67B9DD"/>
<path d="M1384 81.3989C1384 81.3989 1384.04 76.6918 1386.63 76C1386.63 76 1388.23 80.2611 1384.75 82L1384 81.3989Z" fill="#67B9DD"/>
<path d="M1383 77.6745C1383 77.6745 1383.23 72.7007 1384.93 72C1384.93 72 1385.51 75.9363 1383.25 78L1383 77.6745Z" fill="#67B9DD"/>
<path d="M1381 73.1593C1381 73.1593 1381.01 68.9822 1382.51 68C1382.51 68 1384 72.5783 1381.79 74L1381 73.1593Z" fill="#67B9DD"/>
<path d="M1380.07 68.9305L1381.46 63C1381.46 63 1383.37 67.859 1380 70L1380.07 68.9305Z" fill="#67B9DD"/>
<path d="M1379.41 61.9555C1379.41 61.9555 1383.07 57.4987 1383 57C1383 57 1382.61 61.6714 1378 64L1379.41 61.9555Z" fill="#67B9DD"/>
<path d="M1379.27 61C1379.27 61 1382.53 54.5242 1384 54C1384 54 1379.35 55.8811 1379 60.815L1379.27 61Z" fill="#67B9DD"/>
<path d="M1380.78 73L1381 72.95C1378.2 66.3704 1377.5 62.1705 1379.04 61.1239L1378.87 61C1377.24 62.1094 1377.9 66.2589 1380.78 73Z" fill="#444053"/>
<path d="M1389.63 90L1390 89.9085C1389.67 89.2634 1389.32 88.6091 1388.96 87.9636C1385.77 82.3479 1383.06 77.124 1381.32 73.113L1381 73C1382.75 77.0183 1385.41 82.443 1388.6 88.0657C1388.96 88.7077 1389.31 89.3585 1389.63 90Z" fill="#444053"/>
<path d="M1381.37 130C1381.42 129.96 1386.3 125.957 1389.69 119.12C1391.68 115.118 1392.79 110.911 1392.98 106.655C1393.21 101.335 1391.68 95.3953 1389.06 90L1388.77 90.2432C1394.65 102.353 1392.32 112.73 1389.22 118.977C1385.86 125.752 1381.04 129.713 1381 129.752L1381.37 130Z" fill="#444053"/>
<path opacity="0.1" d="M676.95 122.319C674.249 122.319 672.06 121.905 672.06 121.394C672.06 120.883 674.249 120.468 676.95 120.468C679.65 120.468 681.839 120.883 681.839 121.394C681.839 121.905 679.65 122.319 676.95 122.319Z" fill="#6C63FF"/>
<path opacity="0.1" d="M654.889 118.775C652.189 118.775 650 118.361 650 117.85C650 117.339 652.189 116.924 654.889 116.924C657.59 116.924 659.779 117.339 659.779 117.85C659.779 118.361 657.59 118.775 654.889 118.775Z" fill="#6C63FF"/>
<path opacity="0.1" d="M684.446 129.507C682.526 129.507 680.97 129.212 680.97 128.849C680.97 128.485 682.526 128.191 684.446 128.191C686.365 128.191 687.921 128.485 687.921 128.849C687.921 129.212 686.365 129.507 684.446 129.507Z" fill="#6C63FF"/>
<path opacity="0.1" d="M665.007 128.849C663.088 128.849 661.532 128.554 661.532 128.191C661.532 127.827 663.088 127.533 665.007 127.533C666.927 127.533 668.483 127.827 668.483 128.191C668.483 128.554 666.927 128.849 665.007 128.849Z" fill="#6C63FF"/>
<path d="M676.844 121.186C676.844 121.186 683.702 90.193 675.771 77.7792C669.838 68.4926 663.105 69.6038 660.089 70.753C659.309 71.0393 658.583 71.5562 657.962 72.2677C657.34 72.9793 656.839 73.8685 656.492 74.8738C655.438 78.0107 655.628 83.1012 663.071 89.042C675.533 98.989 676.308 112.636 676.308 112.636L676.844 121.186Z" fill="#6C63FF"/>
<path d="M661.163 75.1484C661.163 75.1484 681.376 83.8627 676.844 121.186" stroke="#565987" stroke-miterlimit="10"/>
<path d="M672.969 78.2725C672.969 78.2725 670.185 80.8589 671.07 84.7449" stroke="#565987" stroke-miterlimit="10"/>
<path d="M663.19 80.5744C663.19 80.5744 664.892 78.1876 666.962 79.5043" stroke="#565987" stroke-miterlimit="10"/>
<path d="M671.18 92.577C671.18 92.577 674.168 90.486 674.94 93.105" stroke="#565987" stroke-miterlimit="10"/>
<path d="M678.574 96.934C678.574 96.934 676.33 96.688 676.289 98.167" stroke="#565987" stroke-miterlimit="10"/>
<path d="M677.122 121.433C677.122 121.433 669.091 98.9071 666.885 99.4001C665.837 99.6351 665.354 101.056 665.136 102.484C664.865 104.33 665.018 106.246 665.573 107.967C666.712 111.571 669.773 118.417 677.122 121.433Z" fill="#6C63FF"/>
<path d="M666.944 103.675C666.944 103.675 675.374 120.529 677.002 121.268" stroke="#565987" stroke-miterlimit="10"/>
<path d="M666.169 106.306H668.137" stroke="#565987" stroke-miterlimit="10"/>
<path d="M668.526 112.472L671.61 112.654" stroke="#565987" stroke-miterlimit="10"/>
<path d="M670.403 107.539L670.068 109.754" stroke="#565987" stroke-miterlimit="10"/>
<path d="M673.682 114.281L673.622 116.293" stroke="#565987" stroke-miterlimit="10"/>
<path d="M676.883 121.433C676.883 121.433 684.914 98.9071 687.12 99.4001C688.168 99.6351 688.651 101.056 688.869 102.484C689.14 104.33 688.987 106.246 688.432 107.967C687.293 111.571 684.232 118.417 676.883 121.433Z" fill="#6C63FF"/>
<path d="M687.061 103.675C687.061 103.675 678.631 120.529 677.002 121.268" stroke="#565987" stroke-miterlimit="10"/>
<path d="M687.836 106.306H685.868" stroke="#565987" stroke-miterlimit="10"/>
<path d="M685.479 112.472L682.395 112.654" stroke="#565987" stroke-miterlimit="10"/>
<path d="M683.602 107.539L683.937 109.754" stroke="#565987" stroke-miterlimit="10"/>
<path d="M680.323 114.281L680.383 116.293" stroke="#565987" stroke-miterlimit="10"/>
<path d="M663.094 126.693C662.875 126.448 662.715 126.116 662.636 125.742C662.601 125.555 662.614 125.356 662.672 125.18C662.73 125.004 662.83 124.86 662.956 124.774C663.249 124.619 663.563 124.899 663.8 125.182C664.038 125.465 664.31 125.789 664.622 125.729C664.462 125.529 664.342 125.275 664.274 124.992C664.206 124.71 664.193 124.408 664.235 124.116C664.249 123.995 664.286 123.882 664.342 123.788C664.505 123.548 664.801 123.651 664.996 123.84C665.616 124.441 665.789 125.603 665.792 126.648C665.826 126.264 665.83 125.876 665.803 125.491C665.791 125.298 665.814 125.104 665.869 124.926C665.924 124.747 666.009 124.59 666.119 124.468C666.266 124.359 666.432 124.305 666.599 124.312C666.737 124.285 666.878 124.298 667.012 124.351C667.147 124.403 667.272 124.494 667.379 124.618C667.482 124.811 667.534 125.046 667.529 125.285C667.523 125.524 667.46 125.754 667.348 125.938C667.118 126.296 666.845 126.598 666.541 126.829C666.31 127.018 666.113 127.278 665.965 127.587C665.947 127.63 665.933 127.675 665.922 127.722H664.174C663.782 127.448 663.418 127.102 663.094 126.693Z" fill="#6C63FF"/>
<path d="M683.497 126.693C683.278 126.448 683.118 126.116 683.04 125.742C683.004 125.555 683.017 125.356 683.075 125.18C683.133 125.004 683.233 124.86 683.359 124.774C683.652 124.619 683.966 124.899 684.203 125.182C684.441 125.465 684.714 125.789 685.025 125.729C684.865 125.529 684.745 125.275 684.677 124.992C684.609 124.71 684.596 124.408 684.638 124.116C684.652 123.995 684.689 123.882 684.746 123.788C684.908 123.548 685.204 123.651 685.399 123.84C686.019 124.441 686.192 125.603 686.195 126.648C686.229 126.264 686.233 125.876 686.207 125.491C686.194 125.298 686.217 125.104 686.272 124.926C686.327 124.747 686.413 124.59 686.522 124.468C686.669 124.359 686.835 124.305 687.002 124.312C687.14 124.285 687.281 124.298 687.416 124.351C687.55 124.403 687.675 124.494 687.782 124.618C687.885 124.811 687.938 125.046 687.932 125.285C687.926 125.524 687.863 125.754 687.751 125.938C687.521 126.296 687.248 126.598 686.944 126.829C686.713 127.018 686.516 127.278 686.368 127.587C686.35 127.63 686.336 127.675 686.325 127.722H684.577C684.185 127.448 683.822 127.102 683.497 126.693Z" fill="#6C63FF"/>
<path d="M654.572 108.355C654.572 108.355 653.917 109.536 654.874 111.319C655.832 113.103 656.621 114.608 656.302 115.72C656.302 115.72 654.857 112.408 653.682 112.362C652.506 112.315 653.278 110.347 654.572 108.355Z" fill="#6C63FF"/>
<path opacity="0.1" d="M654.572 108.355C654.515 108.469 654.47 108.594 654.438 108.725C653.291 110.584 652.679 112.318 653.782 112.362C654.81 112.402 656.042 114.935 656.337 115.574C656.327 115.624 656.316 115.672 656.302 115.72C656.302 115.72 654.857 112.408 653.682 112.362C652.506 112.315 653.278 110.347 654.572 108.355Z" fill="black"/>
<path d="M653.354 109.86C653.354 110.276 653.388 110.613 653.43 110.613C653.471 110.613 653.505 110.276 653.505 109.86C653.505 109.445 653.463 109.64 653.421 109.64C653.379 109.64 653.354 109.445 653.354 109.86Z" fill="#FFD037"/>
<path d="M652.936 110.357C653.201 110.556 653.432 110.676 653.452 110.625C653.472 110.575 653.273 110.373 653.008 110.174C652.744 109.975 652.848 110.119 652.828 110.17C652.808 110.221 652.671 110.158 652.936 110.357Z" fill="#FFD037"/>
<path d="M658.032 108.355C658.032 108.355 658.687 109.536 657.73 111.319C656.772 113.103 655.983 114.608 656.302 115.72C656.302 115.72 657.747 112.408 658.923 112.362C660.098 112.315 659.326 110.347 658.032 108.355Z" fill="#6C63FF"/>
<path opacity="0.1" d="M658.032 108.355C658.089 108.469 658.134 108.594 658.166 108.725C659.313 110.584 659.925 112.318 658.822 112.362C657.795 112.402 656.562 114.935 656.267 115.574C656.277 115.624 656.288 115.672 656.302 115.72C656.302 115.72 657.747 112.408 658.923 112.362C660.098 112.315 659.326 110.347 658.032 108.355Z" fill="black"/>
<path d="M659.25 109.86C659.25 110.276 659.216 110.613 659.174 110.613C659.133 110.613 659.099 110.276 659.099 109.86C659.099 109.445 659.141 109.64 659.183 109.64C659.225 109.64 659.25 109.445 659.25 109.86Z" fill="#FFD037"/>
<path d="M659.668 110.357C659.403 110.556 659.172 110.676 659.152 110.625C659.132 110.575 659.331 110.373 659.596 110.174C659.86 109.975 659.756 110.119 659.776 110.17C659.796 110.221 659.933 110.158 659.668 110.357Z" fill="#FFD037"/>
<path d="M659.041 115.565C659.041 115.565 657.21 115.488 656.658 114.946C656.106 114.404 653.84 113.757 653.703 114.626C653.566 115.495 650.951 118.949 653.019 118.972C655.087 118.995 657.824 118.528 658.374 118.065C658.925 117.602 659.041 115.565 659.041 115.565Z" fill="#A8A8A8"/>
<path opacity="0.2" d="M652.982 118.669C655.05 118.692 657.787 118.225 658.338 117.762C658.757 117.41 658.924 116.145 658.98 115.562C659.019 115.564 659.041 115.565 659.041 115.565C659.041 115.565 658.925 117.602 658.374 118.065C657.824 118.527 655.087 118.995 653.019 118.972C652.422 118.965 652.215 118.672 652.227 118.238C652.31 118.5 652.537 118.664 652.982 118.669Z" fill="black"/>
<path d="M236.649 219.003C236.649 219.003 242.12 218.128 245.402 221.994C245.402 221.994 242.995 223.891 237.816 221.265L236.649 219.003Z" fill="#67B9DD"/>
<path d="M236.065 218.918C236.065 218.918 232.575 223.222 234.287 227.996C234.287 227.996 237.132 226.857 237.441 221.059L236.065 218.918Z" fill="#67B9DD"/>
<path d="M232.929 211.855C232.929 211.855 235.117 207.843 243.871 213.46C243.871 213.46 242.703 216.159 238.837 215.94C234.971 215.721 233.95 213.97 232.929 211.855Z" fill="#67B9DD"/>
<path d="M232.364 211.566C232.364 211.566 227.824 211.048 227.383 221.439C227.383 221.439 230.263 222.037 232.307 218.749C234.352 215.46 233.507 213.618 232.364 211.566Z" fill="#67B9DD"/>
<path d="M229.719 203.276C229.719 203.276 232.272 196.2 241.536 201.233C241.536 201.233 239.421 207.725 230.668 205.683L229.719 203.276Z" fill="#67B9DD"/>
<path d="M226.875 192.699C226.875 192.699 231.689 185.55 240.223 192.188C240.223 192.188 237.233 198.899 227.604 195.252L226.875 192.699Z" fill="#67B9DD"/>
<path d="M225.853 182.632C225.853 182.632 231.47 176.067 239.932 182.632C239.932 182.632 234.607 188.395 225.853 184.31V182.632Z" fill="#67B9DD"/>
<path d="M224.978 172.858C224.978 172.858 230.668 166.001 238.764 172.493C238.764 172.493 232.345 178.548 224.978 174.463V172.858Z" fill="#67B9DD"/>
<path d="M225.489 164.177C225.489 164.177 231.47 155.351 239.056 161.333C239.056 161.333 232.637 168.919 225.489 165.855V164.177Z" fill="#67B9DD"/>
<path d="M226.875 154.038C226.875 154.038 233.221 145.285 240.588 151.996C240.588 151.996 233.075 159.582 226.875 155.643V154.038Z" fill="#67B9DD"/>
<path d="M228.991 144.975C228.991 144.975 236.503 136.75 243.068 140.033C243.068 140.033 235.239 148.768 228.674 147.164L228.991 144.975Z" fill="#67B9DD"/>
<path d="M231.616 136.386C231.616 136.386 240.296 126.319 245.329 129.675C245.329 129.675 238.942 137.48 230.991 138.282L231.616 136.386Z" fill="#67B9DD"/>
<path d="M235.406 126.421C235.406 126.421 242.995 118.194 248.539 120.237C248.539 120.237 242.047 128.771 234.388 128.99L235.406 126.421Z" fill="#67B9DD"/>
<path d="M238.837 117.1C238.837 117.1 247.226 109.222 250.873 110.608C250.873 110.608 244.819 119.361 238.473 118.851L238.837 117.1Z" fill="#67B9DD"/>
<path d="M242.193 108.492C242.193 108.492 249.414 99.0826 253.353 99.812C253.353 99.812 248.977 108.201 242.193 109.441V108.492Z" fill="#67B9DD"/>
<path d="M245.834 96.8895C245.834 96.8895 252.217 89.6746 255.664 89.6922C255.664 89.6922 250.627 99.3247 245.571 99.2418L245.834 96.8895Z" fill="#67B9DD"/>
<path d="M247.992 89.1622L254.156 74.1356C254.156 74.1356 254.465 87.7189 247.207 91.9496L247.992 89.1622Z" fill="#67B9DD"/>
<path d="M250.494 72.5909C250.494 72.5909 251.515 60.0445 250.859 59.0233C250.859 59.0233 255.267 69.4543 250.452 78.1347L250.494 72.5909Z" fill="#67B9DD"/>
<path d="M229.481 203.108C229.481 203.108 223.087 199.145 218.949 208.842C218.949 208.842 224.638 212.619 230.232 205.583L229.481 203.108Z" fill="#67B9DD"/>
<path d="M226.67 192.295C226.67 192.295 218.829 188.719 215.024 198.839C215.024 198.839 221.082 202.996 227.383 194.853L226.67 192.295Z" fill="#67B9DD"/>
<path d="M225.489 183.234C225.489 183.234 219.872 176.669 211.41 183.234C211.41 183.234 216.735 188.997 225.489 184.912V183.234Z" fill="#67B9DD"/>
<path d="M224.787 172.858C224.787 172.858 219.097 166.001 211 172.493C211 172.493 217.419 178.548 224.787 174.463V172.858Z" fill="#67B9DD"/>
<path d="M225.489 164.427C225.489 164.427 221.497 154.54 212.823 158.792C212.823 158.792 217.503 167.559 225.136 166.067L225.489 164.427Z" fill="#67B9DD"/>
<path d="M227.377 153.988C227.377 153.988 223.411 143.93 214.604 148.595C214.604 148.595 219.991 157.813 226.977 155.543L227.377 153.988Z" fill="#67B9DD"/>
<path d="M229.836 145.027C229.836 145.027 228.264 133.999 220.991 133.012C220.991 133.012 222.537 144.64 228.865 147.013L229.836 145.027Z" fill="#67B9DD"/>
<path d="M231.802 136.405C231.802 136.405 231.192 123.127 225.161 122.657C225.161 122.657 225.364 132.741 231.122 138.282L231.802 136.405Z" fill="#67B9DD"/>
<path d="M236.032 126.041C236.032 126.041 234.233 114.994 228.481 113.643C228.481 113.643 229.196 124.342 235.466 128.746L236.032 126.041Z" fill="#67B9DD"/>
<path d="M239.52 117.18C239.52 117.18 239.459 105.672 235.943 103.981C235.943 103.981 233.762 114.398 238.501 118.65L239.52 117.18Z" fill="#67B9DD"/>
<path d="M242.461 108.364C242.461 108.364 241.968 96.513 238.327 94.8434C238.327 94.8434 237.08 104.223 241.916 109.14L242.461 108.364Z" fill="#67B9DD"/>
<path d="M246.343 97.833C246.343 97.833 246.321 88.2 243.721 85.9347C243.721 85.9347 241.137 96.4932 244.985 99.7718L246.343 97.833Z" fill="#67B9DD"/>
<path d="M247.685 88.688L245.157 72.6443C245.157 72.6443 241.721 85.7892 247.806 91.5814L247.685 88.688Z" fill="#67B9DD"/>
<path d="M248.18 72.7433C248.18 72.7433 241.687 61.9593 241.821 60.7526C241.821 60.7526 242.51 72.0559 250.682 77.6903L248.18 72.7433Z" fill="#67B9DD"/>
<path d="M248.94 69.5584C248.94 69.5584 242.813 54.2401 240.041 53C240.041 53 248.794 57.4496 249.451 69.1207L248.94 69.5584Z" fill="#67B9DD"/>
<path d="M245.539 99.332L245.12 99.2038C250.291 82.342 251.581 71.5786 248.753 68.8965L249.054 68.579C252.052 71.422 250.837 82.0563 245.539 99.332Z" fill="#444053"/>
<path d="M231.301 138.801L230.682 138.582C231.229 137.037 231.822 135.469 232.442 133.923C237.839 120.472 242.434 107.958 245.38 98.3503L245.919 98.0796C242.968 107.705 238.455 120.699 233.051 134.168C232.434 135.705 231.845 137.264 231.301 138.801Z" fill="#444053"/>
<path d="M244.348 231.624C244.264 231.53 235.882 222.094 230.04 205.981C226.616 196.548 224.708 186.633 224.389 176.603C223.989 164.065 226.619 150.065 231.126 137.35L231.616 137.923C221.499 166.464 225.519 190.921 230.85 205.646C236.631 221.611 244.916 230.946 244.999 231.039L244.348 231.624Z" fill="#444053"/>
<path d="M190 237.183C190 237.183 199.593 236.888 202.484 234.829C205.375 232.771 217.239 230.313 217.957 233.614C218.674 236.916 232.373 250.035 221.542 250.122C210.712 250.209 196.378 248.435 193.493 246.678C190.608 244.92 190 237.183 190 237.183Z" fill="#A8A8A8"/>
</svg>
