<svg width="1440" height="352" viewBox="0 0 1440 352" fill="none" xmlns="http://www.w3.org/2000/svg">
<path fill-rule="evenodd" clip-rule="evenodd" d="M1475.53 180L1443 168C1410.46 156 1345.4 132 1280.34 120C1215.27 108 1150.21 108 1085.15 132C1020.08 156 955.018 204 889.954 192C824.891 180 759.827 108 694.764 96C629.7 84 564.636 132 499.573 138C434.509 144 369.445 108 304.382 132C239.318 156 174.254 240 109.191 228C44.1272 216 -20.9364 108 -53.4683 54L-86 0V324H-53.4683C-20.9364 324 44.1272 324 109.191 324C174.254 324 239.318 324 304.382 324C369.445 324 434.509 324 499.573 324C564.636 324 629.7 324 694.764 324C759.827 324 824.891 324 889.954 324C955.018 324 1020.08 324 1085.15 324C1150.21 324 1215.27 324 1280.34 324C1345.4 324 1410.46 324 1443 324H1475.53V180Z" fill="#333246"/>
<path fill-rule="evenodd" clip-rule="evenodd" d="M1558 208L1524.27 196C1490.54 184 1423.08 160 1355.62 148C1288.17 136 1220.71 136 1153.25 160C1085.79 184 1018.33 232 950.875 220C883.417 208 815.958 136 748.5 124C681.042 112 613.583 160 546.125 166C478.667 172 411.208 136 343.75 160C276.292 184 208.833 268 141.375 256C73.9166 244 6.45837 136 -27.2708 82L-61 28V352H-27.2708C6.45837 352 73.9166 352 141.375 352C208.833 352 276.292 352 343.75 352C411.208 352 478.667 352 546.125 352C613.583 352 681.042 352 748.5 352C815.958 352 883.417 352 950.875 352C1018.33 352 1085.79 352 1153.25 352C1220.71 352 1288.17 352 1355.62 352C1423.08 352 1490.54 352 1524.27 352H1558V208Z" fill="#282833"/>
<path d="M1065.5 116L1056 159.338H1075L1065.5 116Z" fill="#333246"/>
<path d="M1055.5 119.662L1046 163H1065L1055.5 119.662Z" fill="#333246"/>
<path d="M1043.5 119.662L1034 163H1053L1043.5 119.662Z" fill="#333246"/>
<path opacity="0.1" d="M1238.85 129.353C1243.07 129.353 1246.5 128.883 1246.5 128.303C1246.5 127.723 1243.07 127.253 1238.85 127.253C1234.62 127.253 1231.2 127.723 1231.2 128.303C1231.2 128.883 1234.62 129.353 1238.85 129.353Z" fill="#6C63FF"/>
<path opacity="0.1" d="M1273.35 125.333C1277.58 125.333 1281 124.863 1281 124.283C1281 123.703 1277.58 123.233 1273.35 123.233C1269.13 123.233 1265.7 123.703 1265.7 124.283C1265.7 124.863 1269.13 125.333 1273.35 125.333Z" fill="#6C63FF"/>
<path opacity="0.1" d="M1227.12 137.507C1230.13 137.507 1232.56 137.172 1232.56 136.76C1232.56 136.348 1230.13 136.014 1227.12 136.014C1224.12 136.014 1221.69 136.348 1221.69 136.76C1221.69 137.172 1224.12 137.507 1227.12 137.507Z" fill="#6C63FF"/>
<path opacity="0.1" d="M1257.53 136.76C1260.53 136.76 1262.96 136.426 1262.96 136.014C1262.96 135.602 1260.53 135.267 1257.53 135.267C1254.52 135.267 1252.09 135.602 1252.09 136.014C1252.09 136.426 1254.52 136.76 1257.53 136.76Z" fill="#6C63FF"/>
<path d="M1239.01 128.068C1239.01 128.068 1228.29 92.9077 1240.69 78.825C1249.97 68.2899 1260.5 69.5506 1265.22 70.8542C1266.44 71.1791 1267.58 71.7654 1268.55 72.5726C1269.52 73.3798 1270.3 74.3886 1270.85 75.529C1272.5 79.0877 1272.2 84.8625 1260.56 91.602C1241.06 102.887 1239.85 118.368 1239.85 118.368L1239.01 128.068Z" fill="#6C63FF"/>
<path d="M1263.54 75.8406C1263.54 75.8406 1231.92 85.7264 1239.01 128.068" stroke="#565987" stroke-miterlimit="10"/>
<path d="M1245.07 79.3846C1245.07 79.3846 1249.43 82.3186 1248.04 86.7271" stroke="#565987" stroke-miterlimit="10"/>
<path d="M1260.37 81.9959C1260.37 81.9959 1257.71 79.2884 1254.47 80.782" stroke="#565987" stroke-miterlimit="10"/>
<path d="M1247.87 95.6123C1247.87 95.6123 1243.2 93.2405 1241.99 96.211" stroke="#565987" stroke-miterlimit="10"/>
<path d="M1236.31 100.555C1236.31 100.555 1239.82 100.275 1239.88 101.954" stroke="#565987" stroke-miterlimit="10"/>
<path d="M1238.58 128.347C1238.58 128.347 1251.14 102.793 1254.59 103.353C1256.23 103.619 1256.99 105.231 1257.33 106.851C1257.75 108.945 1257.51 111.119 1256.64 113.071C1254.86 117.16 1250.07 124.926 1238.58 128.347Z" fill="#6C63FF"/>
<path d="M1254.5 108.203C1254.5 108.203 1241.31 127.322 1238.77 128.161" stroke="#565987" stroke-miterlimit="10"/>
<path d="M1255.71 111.187H1252.63" stroke="#565987" stroke-miterlimit="10"/>
<path d="M1252.02 118.182L1247.2 118.388" stroke="#565987" stroke-miterlimit="10"/>
<path d="M1249.09 112.586L1249.61 115.099" stroke="#565987" stroke-miterlimit="10"/>
<path d="M1243.96 120.234L1244.05 122.517" stroke="#565987" stroke-miterlimit="10"/>
<path d="M1238.95 128.347C1238.95 128.347 1226.39 102.793 1222.94 103.353C1221.3 103.619 1220.55 105.231 1220.2 106.851C1219.78 108.945 1220.02 111.119 1220.89 113.071C1222.67 117.16 1227.46 124.926 1238.95 128.347Z" fill="#6C63FF"/>
<path d="M1223.03 108.203C1223.03 108.203 1236.22 127.322 1238.77 128.161" stroke="#565987" stroke-miterlimit="10"/>
<path d="M1221.82 111.187H1224.9" stroke="#565987" stroke-miterlimit="10"/>
<path d="M1225.51 118.182L1230.33 118.388" stroke="#565987" stroke-miterlimit="10"/>
<path d="M1228.44 112.586L1227.92 115.099" stroke="#565987" stroke-miterlimit="10"/>
<path d="M1233.57 120.234L1233.48 122.517" stroke="#565987" stroke-miterlimit="10"/>
<path d="M1260.52 134.315C1260.86 134.036 1261.11 133.66 1261.24 133.236C1261.29 133.024 1261.27 132.798 1261.18 132.598C1261.09 132.398 1260.93 132.236 1260.74 132.137C1260.28 131.962 1259.79 132.28 1259.41 132.601C1259.04 132.922 1258.62 133.289 1258.13 133.221C1258.38 132.994 1258.57 132.706 1258.67 132.385C1258.78 132.065 1258.8 131.722 1258.74 131.391C1258.71 131.254 1258.66 131.126 1258.57 131.019C1258.31 130.747 1257.85 130.864 1257.55 131.078C1256.58 131.761 1256.3 133.078 1256.3 134.264C1256.25 133.828 1256.24 133.388 1256.28 132.952C1256.3 132.733 1256.27 132.512 1256.18 132.31C1256.09 132.108 1255.96 131.929 1255.79 131.791C1255.56 131.667 1255.3 131.606 1255.04 131.614C1254.82 131.583 1254.6 131.598 1254.39 131.658C1254.18 131.717 1253.99 131.821 1253.82 131.961C1253.66 132.18 1253.57 132.446 1253.58 132.718C1253.59 132.989 1253.69 133.25 1253.87 133.458C1254.23 133.865 1254.65 134.207 1255.13 134.469C1255.49 134.684 1255.8 134.978 1256.03 135.329C1256.06 135.378 1256.08 135.429 1256.1 135.483H1258.83C1259.44 135.172 1260.01 134.779 1260.52 134.315Z" fill="#6C63FF"/>
<path d="M1228.61 134.315C1228.95 134.036 1229.2 133.66 1229.32 133.236C1229.38 133.024 1229.36 132.798 1229.27 132.598C1229.18 132.398 1229.02 132.236 1228.82 132.137C1228.36 131.962 1227.87 132.28 1227.5 132.601C1227.13 132.922 1226.7 133.289 1226.22 133.221C1226.47 132.994 1226.66 132.706 1226.76 132.385C1226.87 132.065 1226.89 131.722 1226.82 131.391C1226.8 131.254 1226.74 131.126 1226.65 131.019C1226.4 130.747 1225.94 130.864 1225.63 131.078C1224.66 131.761 1224.39 133.078 1224.39 134.264C1224.33 133.828 1224.33 133.388 1224.37 132.952C1224.39 132.733 1224.35 132.512 1224.27 132.31C1224.18 132.108 1224.05 131.929 1223.88 131.791C1223.65 131.667 1223.39 131.606 1223.12 131.614C1222.91 131.583 1222.69 131.598 1222.48 131.658C1222.27 131.717 1222.07 131.821 1221.91 131.961C1221.74 132.18 1221.66 132.446 1221.67 132.718C1221.68 132.989 1221.78 133.25 1221.95 133.458C1222.31 133.865 1222.74 134.207 1223.22 134.469C1223.58 134.684 1223.89 134.978 1224.12 135.329C1224.14 135.378 1224.17 135.429 1224.18 135.483H1226.92C1227.53 135.172 1228.1 134.779 1228.61 134.315Z" fill="#6C63FF"/>
<path d="M1273.85 113.511C1273.85 113.511 1274.87 114.851 1273.38 116.874C1271.88 118.898 1270.64 120.605 1271.14 121.866C1271.14 121.866 1273.4 118.109 1275.24 118.057C1277.08 118.004 1275.87 115.771 1273.85 113.511Z" fill="#6C63FF"/>
<path opacity="0.1" d="M1273.85 113.511C1273.94 113.641 1274.01 113.782 1274.06 113.932C1275.85 116.04 1276.81 118.007 1275.08 118.057C1273.48 118.103 1271.55 120.976 1271.09 121.701C1271.1 121.757 1271.12 121.812 1271.14 121.866C1271.14 121.866 1273.4 118.109 1275.24 118.057C1277.08 118.004 1275.87 115.771 1273.85 113.511Z" fill="black"/>
<path d="M1275.75 115.219C1275.75 115.691 1275.7 116.073 1275.64 116.073C1275.57 116.073 1275.52 115.691 1275.52 115.219C1275.52 114.748 1275.58 114.97 1275.65 114.97C1275.71 114.97 1275.75 114.748 1275.75 115.219Z" fill="#FFD037"/>
<path d="M1276.41 115.782C1275.99 116.008 1275.63 116.144 1275.6 116.087C1275.57 116.03 1275.88 115.8 1276.29 115.575C1276.71 115.349 1276.55 115.513 1276.58 115.57C1276.61 115.628 1276.82 115.557 1276.41 115.782Z" fill="#FFD037"/>
<path d="M1268.44 113.511C1268.44 113.511 1267.41 114.851 1268.91 116.874C1270.41 118.898 1271.64 120.605 1271.14 121.866C1271.14 121.866 1268.88 118.109 1267.04 118.057C1265.21 118.004 1266.41 115.771 1268.44 113.511Z" fill="#6C63FF"/>
<path opacity="0.1" d="M1268.44 113.511C1268.35 113.641 1268.28 113.782 1268.23 113.932C1266.43 116.04 1265.48 118.007 1267.2 118.057C1268.81 118.103 1270.74 120.976 1271.2 121.701C1271.18 121.757 1271.16 121.812 1271.14 121.866C1271.14 121.866 1268.88 118.109 1267.04 118.057C1265.21 118.004 1266.41 115.771 1268.44 113.511Z" fill="black"/>
<path d="M1266.53 115.219C1266.53 115.691 1266.58 116.073 1266.65 116.073C1266.72 116.073 1266.77 115.691 1266.77 115.219C1266.77 114.748 1266.7 114.97 1266.64 114.97C1266.57 114.97 1266.53 114.748 1266.53 115.219Z" fill="#FFD037"/>
<path d="M1265.88 115.782C1266.29 116.008 1266.65 116.144 1266.68 116.087C1266.72 116.03 1266.41 115.8 1265.99 115.575C1265.58 115.349 1265.74 115.513 1265.71 115.57C1265.68 115.628 1265.46 115.557 1265.88 115.782Z" fill="#FFD037"/>
<path d="M1266.86 121.691C1266.86 121.691 1269.72 121.603 1270.59 120.988C1271.45 120.373 1274.99 119.639 1275.21 120.625C1275.42 121.611 1279.51 125.529 1276.28 125.555C1273.04 125.581 1268.76 125.051 1267.9 124.527C1267.04 124.002 1266.86 121.691 1266.86 121.691Z" fill="#A8A8A8"/>
<path opacity="0.2" d="M1276.34 125.212C1273.1 125.238 1268.82 124.708 1267.96 124.183C1267.3 123.784 1267.04 122.349 1266.95 121.687C1266.89 121.69 1266.86 121.691 1266.86 121.691C1266.86 121.691 1267.04 124.002 1267.9 124.527C1268.76 125.052 1273.04 125.581 1276.28 125.555C1277.21 125.548 1277.53 125.216 1277.52 124.724C1277.39 125.021 1277.03 125.206 1276.34 125.212Z" fill="black"/>
<path opacity="0.1" d="M600.95 135.319C598.249 135.319 596.06 134.905 596.06 134.394C596.06 133.883 598.249 133.468 600.95 133.468C603.65 133.468 605.839 133.883 605.839 134.394C605.839 134.905 603.65 135.319 600.95 135.319Z" fill="#6C63FF"/>
<path opacity="0.1" d="M578.889 131.775C576.189 131.775 574 131.361 574 130.85C574 130.339 576.189 129.924 578.889 129.924C581.59 129.924 583.779 130.339 583.779 130.85C583.779 131.361 581.59 131.775 578.889 131.775Z" fill="#6C63FF"/>
<path opacity="0.1" d="M608.446 142.507C606.526 142.507 604.97 142.212 604.97 141.849C604.97 141.485 606.526 141.191 608.446 141.191C610.365 141.191 611.921 141.485 611.921 141.849C611.921 142.212 610.365 142.507 608.446 142.507Z" fill="#6C63FF"/>
<path opacity="0.1" d="M589.007 141.849C587.088 141.849 585.532 141.554 585.532 141.191C585.532 140.827 587.088 140.533 589.007 140.533C590.927 140.533 592.483 140.827 592.483 141.191C592.483 141.554 590.927 141.849 589.007 141.849Z" fill="#6C63FF"/>
<path d="M600.844 134.186C600.844 134.186 607.702 103.193 599.771 90.7792C593.838 81.4926 587.105 82.6038 584.089 83.753C583.309 84.0393 582.583 84.5562 581.962 85.2677C581.34 85.9793 580.839 86.8685 580.492 87.8738C579.438 91.0107 579.628 96.1012 587.071 102.042C599.533 111.989 600.308 125.636 600.308 125.636L600.844 134.186Z" fill="#6C63FF"/>
<path d="M585.163 88.1484C585.163 88.1484 605.376 96.8627 600.844 134.186" stroke="#565987" stroke-miterlimit="10"/>
<path d="M596.969 91.2724C596.969 91.2724 594.185 93.8588 595.07 97.7448" stroke="#565987" stroke-miterlimit="10"/>
<path d="M587.19 93.5744C587.19 93.5744 588.892 91.1876 590.962 92.5043" stroke="#565987" stroke-miterlimit="10"/>
<path d="M595.18 105.577C595.18 105.577 598.168 103.486 598.94 106.105" stroke="#565987" stroke-miterlimit="10"/>
<path d="M602.574 109.934C602.574 109.934 600.33 109.688 600.289 111.167" stroke="#565987" stroke-miterlimit="10"/>
<path d="M601.122 134.433C601.122 134.433 593.091 111.907 590.885 112.4C589.837 112.635 589.354 114.056 589.136 115.484C588.865 117.33 589.018 119.246 589.573 120.967C590.712 124.571 593.773 131.417 601.122 134.433Z" fill="#6C63FF"/>
<path d="M590.944 116.675C590.944 116.675 599.374 133.529 601.002 134.268" stroke="#565987" stroke-miterlimit="10"/>
<path d="M590.169 119.306H592.137" stroke="#565987" stroke-miterlimit="10"/>
<path d="M592.526 125.472L595.61 125.654" stroke="#565987" stroke-miterlimit="10"/>
<path d="M594.403 120.539L594.068 122.754" stroke="#565987" stroke-miterlimit="10"/>
<path d="M597.682 127.281L597.622 129.293" stroke="#565987" stroke-miterlimit="10"/>
<path d="M600.883 134.433C600.883 134.433 608.914 111.907 611.12 112.4C612.168 112.635 612.651 114.056 612.869 115.484C613.14 117.33 612.987 119.246 612.432 120.967C611.293 124.571 608.232 131.417 600.883 134.433Z" fill="#6C63FF"/>
<path d="M611.061 116.675C611.061 116.675 602.631 133.529 601.002 134.268" stroke="#565987" stroke-miterlimit="10"/>
<path d="M611.836 119.306H609.868" stroke="#565987" stroke-miterlimit="10"/>
<path d="M609.479 125.472L606.395 125.654" stroke="#565987" stroke-miterlimit="10"/>
<path d="M607.602 120.539L607.937 122.754" stroke="#565987" stroke-miterlimit="10"/>
<path d="M604.323 127.281L604.383 129.293" stroke="#565987" stroke-miterlimit="10"/>
<path d="M587.094 139.693C586.875 139.448 586.715 139.116 586.636 138.742C586.601 138.555 586.614 138.356 586.672 138.18C586.73 138.004 586.83 137.86 586.956 137.774C587.249 137.619 587.563 137.899 587.8 138.182C588.038 138.465 588.31 138.789 588.622 138.729C588.462 138.529 588.342 138.275 588.274 137.992C588.206 137.71 588.193 137.408 588.235 137.116C588.249 136.995 588.286 136.882 588.342 136.788C588.505 136.548 588.801 136.651 588.996 136.84C589.616 137.441 589.789 138.603 589.792 139.648C589.826 139.264 589.83 138.876 589.803 138.491C589.791 138.298 589.814 138.104 589.869 137.926C589.924 137.747 590.009 137.59 590.119 137.468C590.266 137.359 590.432 137.305 590.599 137.312C590.737 137.285 590.878 137.298 591.012 137.351C591.147 137.403 591.272 137.494 591.379 137.618C591.482 137.811 591.534 138.046 591.529 138.285C591.523 138.524 591.46 138.754 591.348 138.938C591.118 139.296 590.845 139.598 590.541 139.829C590.31 140.018 590.113 140.278 589.965 140.587C589.947 140.63 589.933 140.675 589.922 140.722H588.174C587.782 140.448 587.418 140.102 587.094 139.693Z" fill="#6C63FF"/>
<path d="M607.497 139.693C607.278 139.448 607.118 139.116 607.04 138.742C607.004 138.555 607.017 138.356 607.075 138.18C607.133 138.004 607.233 137.86 607.359 137.774C607.652 137.619 607.966 137.899 608.203 138.182C608.441 138.465 608.714 138.789 609.025 138.729C608.865 138.529 608.745 138.275 608.677 137.992C608.609 137.71 608.596 137.408 608.638 137.116C608.652 136.995 608.689 136.882 608.746 136.788C608.908 136.548 609.204 136.651 609.399 136.84C610.019 137.441 610.192 138.603 610.195 139.648C610.229 139.264 610.233 138.876 610.207 138.491C610.194 138.298 610.217 138.104 610.272 137.926C610.327 137.747 610.413 137.59 610.522 137.468C610.669 137.359 610.835 137.305 611.002 137.312C611.14 137.285 611.281 137.298 611.416 137.351C611.55 137.403 611.675 137.494 611.782 137.618C611.885 137.811 611.938 138.046 611.932 138.285C611.926 138.524 611.863 138.754 611.751 138.938C611.521 139.296 611.248 139.598 610.944 139.829C610.713 140.018 610.516 140.278 610.368 140.587C610.35 140.63 610.336 140.675 610.325 140.722H608.577C608.185 140.448 607.822 140.102 607.497 139.693Z" fill="#6C63FF"/>
<path d="M578.572 121.355C578.572 121.355 577.917 122.536 578.874 124.319C579.832 126.103 580.621 127.608 580.302 128.72C580.302 128.72 578.857 125.408 577.682 125.362C576.506 125.315 577.278 123.347 578.572 121.355Z" fill="#6C63FF"/>
<path opacity="0.1" d="M578.572 121.355C578.515 121.469 578.47 121.594 578.438 121.725C577.291 123.584 576.679 125.318 577.782 125.362C578.81 125.402 580.042 127.935 580.337 128.574C580.327 128.624 580.316 128.672 580.302 128.72C580.302 128.72 578.857 125.408 577.682 125.362C576.506 125.315 577.278 123.347 578.572 121.355Z" fill="black"/>
<path d="M577.354 122.86C577.354 123.276 577.388 123.613 577.43 123.613C577.471 123.613 577.505 123.276 577.505 122.86C577.505 122.445 577.463 122.64 577.421 122.64C577.379 122.64 577.354 122.445 577.354 122.86Z" fill="#FFD037"/>
<path d="M576.936 123.357C577.201 123.556 577.432 123.676 577.452 123.625C577.472 123.575 577.273 123.373 577.008 123.174C576.744 122.975 576.848 123.119 576.828 123.17C576.808 123.221 576.671 123.158 576.936 123.357Z" fill="#FFD037"/>
<path d="M582.032 121.355C582.032 121.355 582.687 122.536 581.73 124.319C580.772 126.103 579.983 127.608 580.302 128.72C580.302 128.72 581.747 125.408 582.923 125.362C584.098 125.315 583.326 123.347 582.032 121.355Z" fill="#6C63FF"/>
<path opacity="0.1" d="M582.032 121.355C582.089 121.469 582.134 121.594 582.166 121.725C583.313 123.584 583.925 125.318 582.822 125.362C581.795 125.402 580.562 127.935 580.267 128.574C580.277 128.624 580.288 128.672 580.302 128.72C580.302 128.72 581.747 125.408 582.923 125.362C584.098 125.315 583.326 123.347 582.032 121.355Z" fill="black"/>
<path d="M583.25 122.86C583.25 123.276 583.216 123.613 583.174 123.613C583.133 123.613 583.099 123.276 583.099 122.86C583.099 122.445 583.141 122.64 583.183 122.64C583.225 122.64 583.25 122.445 583.25 122.86Z" fill="#FFD037"/>
<path d="M583.668 123.357C583.403 123.556 583.172 123.676 583.152 123.625C583.132 123.575 583.331 123.373 583.596 123.174C583.86 122.975 583.756 123.119 583.776 123.17C583.796 123.221 583.933 123.158 583.668 123.357Z" fill="#FFD037"/>
<path d="M583.041 128.565C583.041 128.565 581.21 128.488 580.658 127.946C580.106 127.404 577.84 126.757 577.703 127.626C577.566 128.495 574.951 131.949 577.019 131.972C579.087 131.995 581.824 131.528 582.374 131.065C582.925 130.602 583.041 128.565 583.041 128.565Z" fill="#A8A8A8"/>
<path opacity="0.2" d="M576.982 131.669C579.05 131.692 581.787 131.225 582.338 130.762C582.757 130.41 582.924 129.145 582.98 128.562C583.019 128.564 583.041 128.565 583.041 128.565C583.041 128.565 582.925 130.602 582.374 131.065C581.824 131.527 579.087 131.995 577.019 131.972C576.422 131.965 576.215 131.672 576.227 131.238C576.31 131.5 576.537 131.664 576.982 131.669Z" fill="black"/>
<path d="M232.649 202.003C232.649 202.003 238.12 201.128 241.402 204.994C241.402 204.994 238.995 206.891 233.816 204.265L232.649 202.003Z" fill="#67B9DD"/>
<path d="M232.065 201.918C232.065 201.918 228.575 206.222 230.287 210.996C230.287 210.996 233.132 209.857 233.441 204.059L232.065 201.918Z" fill="#67B9DD"/>
<path d="M228.929 194.855C228.929 194.855 231.117 190.843 239.871 196.46C239.871 196.46 238.703 199.159 234.837 198.94C230.971 198.721 229.95 196.97 228.929 194.855Z" fill="#67B9DD"/>
<path d="M228.364 194.566C228.364 194.566 223.824 194.048 223.383 204.439C223.383 204.439 226.263 205.037 228.307 201.749C230.352 198.46 229.507 196.618 228.364 194.566Z" fill="#67B9DD"/>
<path d="M225.719 186.276C225.719 186.276 228.272 179.2 237.536 184.233C237.536 184.233 235.421 190.725 226.668 188.683L225.719 186.276Z" fill="#67B9DD"/>
<path d="M222.875 175.699C222.875 175.699 227.689 168.55 236.223 175.188C236.223 175.188 233.233 181.899 223.604 178.252L222.875 175.699Z" fill="#67B9DD"/>
<path d="M221.853 165.632C221.853 165.632 227.47 159.067 235.932 165.632C235.932 165.632 230.607 171.395 221.853 167.31V165.632Z" fill="#67B9DD"/>
<path d="M220.978 155.858C220.978 155.858 226.668 149.001 234.764 155.493C234.764 155.493 228.345 161.548 220.978 157.463V155.858Z" fill="#67B9DD"/>
<path d="M221.489 147.177C221.489 147.177 227.47 138.351 235.056 144.333C235.056 144.333 228.637 151.919 221.489 148.855V147.177Z" fill="#67B9DD"/>
<path d="M222.875 137.038C222.875 137.038 229.221 128.285 236.588 134.996C236.588 134.996 229.075 142.582 222.875 138.643V137.038Z" fill="#67B9DD"/>
<path d="M224.991 127.975C224.991 127.975 232.503 119.75 239.068 123.033C239.068 123.033 231.239 131.768 224.674 130.164L224.991 127.975Z" fill="#67B9DD"/>
<path d="M227.616 119.386C227.616 119.386 236.296 109.319 241.329 112.675C241.329 112.675 234.942 120.48 226.991 121.282L227.616 119.386Z" fill="#67B9DD"/>
<path d="M231.406 109.421C231.406 109.421 238.995 101.194 244.539 103.237C244.539 103.237 238.047 111.771 230.388 111.99L231.406 109.421Z" fill="#67B9DD"/>
<path d="M234.837 100.1C234.837 100.1 243.226 92.2219 246.873 93.6079C246.873 93.6079 240.819 102.361 234.473 101.851L234.837 100.1Z" fill="#67B9DD"/>
<path d="M238.193 91.4925C238.193 91.4925 245.414 82.0827 249.353 82.8121C249.353 82.8121 244.977 91.2007 238.193 92.4408V91.4925Z" fill="#67B9DD"/>
<path d="M241.834 79.8895C241.834 79.8895 248.217 72.6746 251.664 72.6922C251.664 72.6922 246.627 82.3247 241.571 82.2418L241.834 79.8895Z" fill="#67B9DD"/>
<path d="M243.992 72.1622L250.156 57.1356C250.156 57.1356 250.465 70.7189 243.207 74.9496L243.992 72.1622Z" fill="#67B9DD"/>
<path d="M246.494 55.5909C246.494 55.5909 247.515 43.0445 246.859 42.0233C246.859 42.0233 251.267 52.4543 246.452 61.1347L246.494 55.5909Z" fill="#67B9DD"/>
<path d="M225.481 186.108C225.481 186.108 219.087 182.145 214.949 191.842C214.949 191.842 220.638 195.619 226.232 188.583L225.481 186.108Z" fill="#67B9DD"/>
<path d="M222.67 175.295C222.67 175.295 214.829 171.719 211.024 181.839C211.024 181.839 217.082 185.996 223.383 177.853L222.67 175.295Z" fill="#67B9DD"/>
<path d="M221.489 166.234C221.489 166.234 215.872 159.669 207.41 166.234C207.41 166.234 212.735 171.997 221.489 167.912V166.234Z" fill="#67B9DD"/>
<path d="M220.787 155.858C220.787 155.858 215.097 149.001 207 155.493C207 155.493 213.419 161.548 220.787 157.463V155.858Z" fill="#67B9DD"/>
<path d="M221.489 147.427C221.489 147.427 217.497 137.54 208.823 141.792C208.823 141.792 213.503 150.559 221.136 149.067L221.489 147.427Z" fill="#67B9DD"/>
<path d="M223.377 136.988C223.377 136.988 219.411 126.93 210.604 131.595C210.604 131.595 215.991 140.813 222.977 138.543L223.377 136.988Z" fill="#67B9DD"/>
<path d="M225.836 128.027C225.836 128.027 224.264 116.999 216.991 116.012C216.991 116.012 218.537 127.64 224.865 130.013L225.836 128.027Z" fill="#67B9DD"/>
<path d="M227.802 119.405C227.802 119.405 227.192 106.127 221.161 105.657C221.161 105.657 221.364 115.741 227.122 121.282L227.802 119.405Z" fill="#67B9DD"/>
<path d="M232.032 109.041C232.032 109.041 230.233 97.9937 224.481 96.643C224.481 96.643 225.196 107.342 231.466 111.746L232.032 109.041Z" fill="#67B9DD"/>
<path d="M235.52 100.18C235.52 100.18 235.459 88.6721 231.943 86.9808C231.943 86.9808 229.762 97.3982 234.501 101.65L235.52 100.18Z" fill="#67B9DD"/>
<path d="M238.461 91.3643C238.461 91.3643 237.968 79.513 234.327 77.8434C234.327 77.8434 233.08 87.2227 237.916 92.1399L238.461 91.3643Z" fill="#67B9DD"/>
<path d="M242.343 80.833C242.343 80.833 242.321 71.2 239.721 68.9347C239.721 68.9347 237.137 79.4932 240.985 82.7718L242.343 80.833Z" fill="#67B9DD"/>
<path d="M243.685 71.688L241.157 55.6443C241.157 55.6443 237.721 68.7892 243.806 74.5814L243.685 71.688Z" fill="#67B9DD"/>
<path d="M244.18 55.7433C244.18 55.7433 237.687 44.9593 237.821 43.7526C237.821 43.7526 238.51 55.0559 246.682 60.6903L244.18 55.7433Z" fill="#67B9DD"/>
<path d="M244.94 52.5584C244.94 52.5584 238.813 37.2401 236.041 36C236.041 36 244.794 40.4496 245.451 52.1207L244.94 52.5584Z" fill="#67B9DD"/>
<path d="M241.539 82.332L241.12 82.2038C246.291 65.342 247.581 54.5786 244.753 51.8965L245.054 51.579C248.052 54.422 246.837 65.0563 241.539 82.332Z" fill="#444053"/>
<path d="M227.301 121.801L226.682 121.582C227.229 120.037 227.822 118.469 228.442 116.923C233.839 103.472 238.434 90.9582 241.38 81.3503L241.919 81.0796C238.968 90.7048 234.455 103.699 229.051 117.168C228.434 118.705 227.845 120.264 227.301 121.801Z" fill="#444053"/>
<path d="M240.348 214.624C240.264 214.53 231.882 205.094 226.04 188.981C222.616 179.548 220.708 169.633 220.389 159.603C219.989 147.065 222.619 133.065 227.126 120.35L227.616 120.923C217.499 149.464 221.519 173.921 226.85 188.646C232.631 204.611 240.916 213.946 240.999 214.039L240.348 214.624Z" fill="#444053"/>
<path d="M1416.75 164.194C1416.75 164.194 1412.22 163.47 1409.5 166.665C1409.5 166.665 1411.5 168.233 1415.79 166.062L1416.75 164.194Z" fill="#67B9DD"/>
<path d="M1417.24 164.123C1417.24 164.123 1420.13 167.68 1418.71 171.626C1418.71 171.626 1416.35 170.684 1416.1 165.892L1417.24 164.123Z" fill="#67B9DD"/>
<path d="M1419.83 158.286C1419.83 158.286 1418.02 154.97 1410.77 159.612C1410.77 159.612 1411.74 161.843 1414.94 161.662C1418.14 161.481 1418.99 160.034 1419.83 158.286Z" fill="#67B9DD"/>
<path d="M1420.3 158.047C1420.3 158.047 1424.06 157.619 1424.43 166.207C1424.43 166.207 1422.04 166.701 1420.35 163.983C1418.66 161.266 1419.35 159.743 1420.3 158.047Z" fill="#67B9DD"/>
<path d="M1422.49 151.196C1422.49 151.196 1420.38 145.348 1412.7 149.508C1412.7 149.508 1414.46 154.873 1421.71 153.185L1422.49 151.196Z" fill="#67B9DD"/>
<path d="M1424.85 142.454C1424.85 142.454 1420.86 136.546 1413.79 142.032C1413.79 142.032 1416.27 147.578 1424.25 144.564L1424.85 142.454Z" fill="#67B9DD"/>
<path d="M1425.7 134.135C1425.7 134.135 1421.04 128.709 1414.03 134.135C1414.03 134.135 1418.44 138.897 1425.7 135.521V134.135Z" fill="#67B9DD"/>
<path d="M1426.42 126.057C1426.42 126.057 1421.71 120.39 1415 125.755C1415 125.755 1420.32 130.759 1426.42 127.383V126.057Z" fill="#67B9DD"/>
<path d="M1426 118.883C1426 118.883 1421.04 111.588 1414.76 116.532C1414.76 116.532 1420.08 122.801 1426 120.269V118.883Z" fill="#67B9DD"/>
<path d="M1424.85 110.503C1424.85 110.503 1419.59 103.269 1413.49 108.815C1413.49 108.815 1419.71 115.085 1424.85 111.829V110.503Z" fill="#67B9DD"/>
<path d="M1423.1 103.013C1423.1 103.013 1416.87 96.2155 1411.43 98.9284C1411.43 98.9284 1417.92 106.148 1423.36 104.822L1423.1 103.013Z" fill="#67B9DD"/>
<path d="M1420.92 95.9141C1420.92 95.9141 1413.73 87.5948 1409.56 90.3679C1409.56 90.3679 1414.85 96.8184 1421.44 97.4815L1420.92 95.9141Z" fill="#67B9DD"/>
<path d="M1417.78 87.6787C1417.78 87.6787 1411.5 80.8797 1406.9 82.5677C1406.9 82.5677 1412.28 89.6211 1418.63 89.8019L1417.78 87.6787Z" fill="#67B9DD"/>
<path d="M1414.94 79.9755C1414.94 79.9755 1407.99 73.4647 1404.97 74.6101C1404.97 74.6101 1409.98 81.8443 1415.24 81.4223L1414.94 79.9755Z" fill="#67B9DD"/>
<path d="M1412.16 72.8618C1412.16 72.8618 1406.18 65.085 1402.91 65.6879C1402.91 65.6879 1406.54 72.6207 1412.16 73.6455V72.8618Z" fill="#67B9DD"/>
<path d="M1409.14 63.2725C1409.14 63.2725 1403.86 57.3097 1401 57.3243C1401 57.3243 1405.17 65.2851 1409.36 65.2166L1409.14 63.2725Z" fill="#67B9DD"/>
<path d="M1407.36 56.8863L1402.25 44.4676C1402.25 44.4676 1401.99 55.6935 1408.01 59.19L1407.36 56.8863Z" fill="#67B9DD"/>
<path d="M1405.28 43.191C1405.28 43.191 1404.44 32.8219 1404.98 31.9779C1404.98 31.9779 1401.33 40.5987 1405.32 47.7726L1405.28 43.191Z" fill="#67B9DD"/>
<path d="M1422.69 151.056C1422.69 151.056 1427.99 147.782 1431.41 155.796C1431.41 155.796 1426.7 158.917 1422.07 153.103L1422.69 151.056Z" fill="#67B9DD"/>
<path d="M1425.02 142.121C1425.02 142.121 1431.51 139.165 1434.67 147.529C1434.67 147.529 1429.65 150.964 1424.43 144.235L1425.02 142.121Z" fill="#67B9DD"/>
<path d="M1426 134.632C1426 134.632 1430.65 129.206 1437.66 134.632C1437.66 134.632 1433.25 139.395 1426 136.019V134.632Z" fill="#67B9DD"/>
<path d="M1426.58 126.057C1426.58 126.057 1431.29 120.39 1438 125.755C1438 125.755 1432.68 130.759 1426.58 127.383V126.057Z" fill="#67B9DD"/>
<path d="M1426 119.089C1426 119.089 1429.3 110.918 1436.49 114.432C1436.49 114.432 1432.61 121.677 1426.29 120.445L1426 119.089Z" fill="#67B9DD"/>
<path d="M1424.43 110.462C1424.43 110.462 1427.72 102.149 1435.01 106.004C1435.01 106.004 1430.55 113.623 1424.76 111.746L1424.43 110.462Z" fill="#67B9DD"/>
<path d="M1422.4 103.056C1422.4 103.056 1423.7 93.9418 1429.72 93.1259C1429.72 93.1259 1428.44 102.736 1423.2 104.698L1422.4 103.056Z" fill="#67B9DD"/>
<path d="M1420.77 95.9299C1420.77 95.9299 1421.27 84.9562 1426.27 84.5683C1426.27 84.5683 1426.1 92.9018 1421.33 97.4815L1420.77 95.9299Z" fill="#67B9DD"/>
<path d="M1417.26 87.3646C1417.26 87.3646 1418.75 78.2348 1423.52 77.1185C1423.52 77.1185 1422.93 85.9609 1417.73 89.6001L1417.26 87.3646Z" fill="#67B9DD"/>
<path d="M1414.37 80.0415C1414.37 80.0415 1414.42 70.5309 1417.34 69.1331C1417.34 69.1331 1419.14 77.7426 1415.22 81.2561L1414.37 80.0415Z" fill="#67B9DD"/>
<path d="M1411.94 72.7559C1411.94 72.7559 1412.35 62.9614 1415.36 61.5815C1415.36 61.5815 1416.39 69.333 1412.39 73.3969L1411.94 72.7559Z" fill="#67B9DD"/>
<path d="M1408.72 64.0523C1408.72 64.0523 1408.74 56.091 1410.89 54.2189C1410.89 54.2189 1413.03 62.945 1409.85 65.6546L1408.72 64.0523Z" fill="#67B9DD"/>
<path d="M1407.61 56.4944L1409.7 43.235C1409.7 43.235 1412.55 54.0987 1407.51 58.8856L1407.61 56.4944Z" fill="#67B9DD"/>
<path d="M1407.2 43.3169C1407.2 43.3169 1412.58 34.4044 1412.47 33.4072C1412.47 33.4072 1411.9 42.7488 1405.13 47.4053L1407.2 43.3169Z" fill="#67B9DD"/>
<path d="M1406.57 40.6847C1406.57 40.6847 1411.65 28.0248 1413.94 27C1413.94 27 1406.69 30.6774 1406.15 40.323L1406.57 40.6847Z" fill="#67B9DD"/>
<path d="M1409.39 65.2911L1409.73 65.1851C1405.45 51.2497 1404.38 42.3543 1406.73 40.1377L1406.48 39.8752C1403.99 42.2249 1405 51.0136 1409.39 65.2911Z" fill="#444053"/>
<path d="M1421.18 97.9104L1421.7 97.7292C1421.24 96.4522 1420.75 95.1568 1420.24 93.8791C1415.77 82.7619 1411.96 72.4203 1409.52 64.4798L1409.07 64.2561C1411.52 72.2109 1415.26 82.95 1419.73 94.0811C1420.24 95.352 1420.73 96.6404 1421.18 97.9104Z" fill="#444053"/>
<path d="M1410.37 174.624C1410.44 174.546 1417.39 166.748 1422.23 153.431C1425.06 145.636 1426.64 137.441 1426.91 129.152C1427.24 118.79 1425.06 107.22 1421.33 96.7109L1420.92 97.1847C1429.3 120.772 1425.97 140.985 1421.56 153.154C1416.77 166.349 1409.9 174.064 1409.84 174.14L1410.37 174.624Z" fill="#444053"/>
<path d="M186 220.183C186 220.183 195.593 219.888 198.484 217.829C201.375 215.771 213.239 213.313 213.957 216.614C214.674 219.916 228.373 233.035 217.542 233.122C206.712 233.209 192.378 231.435 189.493 229.678C186.608 227.92 186 220.183 186 220.183Z" fill="#A8A8A8"/>
</svg>
