<?xml version="1.0" standalone="no"?>
<!DOCTYPE svg PUBLIC "-//W3C//DTD SVG 20010904//EN"
 "http://www.w3.org/TR/2001/REC-SVG-20010904/DTD/svg10.dtd">
<svg version="1.0" xmlns="http://www.w3.org/2000/svg"
 width="1994.000000pt" height="1994.000000pt" viewBox="0 0 1994.000000 1994.000000"
 preserveAspectRatio="xMidYMid meet">
<metadata>
Created by potrace 1.14, written by Peter Selinger 2001-2017
</metadata>
<g transform="translate(0.000000,1994.000000) scale(0.100000,-0.100000)"
fill="#000000" stroke="none">
<path d="M9568 19575 c-2 -2 -68 -6 -148 -10 -80 -4 -161 -8 -180 -10 -19 -2
-73 -6 -120 -10 -47 -4 -98 -8 -115 -10 -16 -1 -61 -5 -100 -9 -38 -4 -81 -8
-95 -11 -14 -2 -54 -7 -90 -11 -36 -3 -72 -7 -81 -9 -8 -2 -42 -6 -75 -9 -32
-4 -68 -9 -79 -11 -11 -2 -38 -7 -60 -10 -53 -7 -164 -25 -195 -31 -14 -2 -63
-11 -110 -19 -278 -49 -682 -143 -950 -220 -124 -36 -144 -41 -177 -49 -91
-22 -653 -218 -778 -271 -16 -7 -75 -31 -130 -53 -279 -111 -777 -348 -1035
-492 -52 -29 -113 -62 -135 -75 -264 -147 -700 -429 -985 -638 -93 -69 -360
-275 -370 -287 -3 -3 -18 -16 -35 -29 -34 -25 -88 -71 -214 -180 -316 -271
-605 -558 -936 -925 -5 -6 -37 -43 -70 -81 -33 -39 -62 -72 -65 -75 -3 -3 -25
-30 -50 -60 -25 -30 -47 -57 -50 -60 -3 -3 -21 -25 -40 -50 -19 -25 -37 -47
-40 -50 -3 -3 -21 -25 -40 -50 -19 -25 -37 -47 -40 -50 -9 -9 -144 -191 -236
-320 -88 -123 -274 -401 -328 -490 -15 -25 -41 -67 -58 -95 -93 -152 -205
-351 -303 -541 -40 -77 -78 -149 -83 -160 -6 -10 -33 -66 -60 -124 -28 -58
-62 -132 -78 -165 -15 -33 -28 -62 -29 -65 0 -3 -11 -27 -24 -55 -71 -156
-207 -505 -276 -710 -20 -60 -39 -117 -43 -125 -3 -8 -6 -17 -7 -20 -1 -4 -14
-45 -73 -235 -3 -11 -6 -22 -7 -25 -1 -3 -8 -30 -18 -60 -21 -71 -74 -272 -98
-375 -25 -107 -57 -244 -63 -275 -2 -14 -10 -50 -16 -80 -6 -30 -13 -64 -14
-75 -2 -11 -10 -58 -19 -105 -9 -47 -18 -101 -21 -120 -3 -19 -7 -44 -10 -55
-2 -11 -7 -42 -10 -68 -4 -27 -9 -56 -11 -65 -1 -10 -6 -44 -9 -77 -4 -33 -11
-87 -16 -120 -5 -33 -12 -94 -16 -135 -7 -77 -8 -93 -19 -195 -21 -203 -30
-452 -30 -815 0 -325 6 -518 20 -690 9 -110 16 -186 20 -225 3 -22 7 -67 10
-100 8 -84 14 -129 26 -215 6 -41 12 -84 14 -95 5 -42 18 -131 21 -150 2 -11
13 -74 25 -140 32 -189 67 -355 115 -555 25 -102 47 -192 49 -200 57 -240 288
-934 375 -1125 5 -11 21 -49 36 -85 14 -36 34 -83 44 -105 10 -22 32 -74 50
-115 31 -72 196 -419 224 -470 7 -14 27 -50 43 -80 17 -30 50 -91 73 -135 39
-71 172 -301 221 -380 10 -16 26 -43 35 -59 22 -39 269 -410 337 -507 60 -84
267 -361 276 -369 3 -3 41 -49 84 -103 285 -357 701 -796 1046 -1105 41 -37
79 -72 85 -77 6 -6 61 -53 121 -104 61 -52 121 -103 135 -115 200 -170 563
-438 865 -637 143 -95 608 -379 620 -379 3 0 56 -28 117 -63 109 -60 454 -233
589 -295 200 -93 558 -240 724 -298 39 -14 79 -29 90 -34 160 -69 908 -288
1180 -345 11 -2 97 -20 190 -40 94 -19 186 -38 205 -41 19 -3 67 -11 105 -19
39 -7 93 -17 120 -21 28 -3 59 -8 70 -10 11 -2 40 -7 65 -10 25 -3 52 -7 60
-9 8 -3 42 -7 75 -10 33 -3 85 -10 115 -15 30 -5 81 -11 113 -14 119 -12 173
-18 211 -22 22 -2 74 -7 115 -10 42 -2 99 -7 126 -9 336 -27 1101 -28 1450 0
28 2 88 6 135 10 47 3 96 8 110 10 14 2 57 6 95 10 39 3 105 10 149 16 43 6
92 12 110 14 106 11 151 17 156 20 3 2 33 7 65 10 33 4 69 9 80 11 11 3 36 7
55 10 19 2 46 7 60 9 14 3 41 7 60 10 130 22 515 104 697 150 120 31 225 57
233 59 20 5 149 43 235 69 39 11 75 22 80 23 38 7 543 182 620 214 11 5 63 25
115 46 151 59 354 145 368 156 6 6 12 8 12 5 0 -11 455 209 660 319 502 269
959 564 1399 902 41 31 79 62 85 67 6 6 42 35 81 65 230 180 549 466 799 716
117 118 311 324 411 439 33 38 69 78 80 91 291 323 789 1020 1015 1419 11 19
28 50 38 67 108 190 141 252 243 453 245 484 443 981 608 1523 38 123 117 415
127 465 2 12 11 51 20 86 9 36 17 72 19 80 2 9 11 50 20 91 9 41 18 86 21 100
5 28 12 62 19 100 9 43 64 373 70 420 3 25 8 56 10 70 2 14 7 50 10 80 4 30 8
66 10 80 2 14 7 57 10 95 4 39 8 81 10 95 7 47 19 196 32 415 10 163 10 795 0
975 -9 167 -15 260 -22 325 -2 28 -7 77 -10 110 -3 33 -8 80 -10 105 -3 25 -8
68 -11 95 -2 28 -9 77 -14 110 -10 61 -16 105 -26 184 -3 25 -7 47 -9 50 -2 3
-6 31 -10 61 -3 30 -8 62 -11 71 -3 10 -6 30 -9 45 -14 107 -103 512 -160 729
-100 387 -275 904 -402 1193 -13 29 -23 55 -23 57 0 15 -130 296 -231 500
-160 325 -258 503 -420 767 -81 132 -260 408 -279 431 -6 7 -65 89 -131 182
-67 94 -124 172 -128 175 -3 3 -26 32 -51 65 -25 33 -69 89 -98 125 -29 36
-66 81 -81 100 -70 85 -86 105 -91 110 -3 3 -32 37 -65 75 -33 39 -64 75 -70
81 -5 6 -41 46 -80 89 -168 188 -499 519 -690 690 -43 39 -83 75 -89 80 -6 6
-42 37 -81 70 -38 33 -72 62 -75 65 -46 46 -482 388 -597 468 -10 7 -63 45
-118 84 -541 384 -1216 759 -1845 1023 -102 43 -199 84 -215 91 -31 13 -125
49 -280 106 -514 191 -1279 393 -1785 472 -19 3 -46 8 -60 10 -26 5 -72 12
-137 21 -21 3 -49 8 -63 10 -14 3 -47 7 -75 10 -27 3 -61 8 -75 10 -42 7 -191
24 -265 30 -38 4 -81 8 -95 10 -37 5 -141 13 -405 32 -80 5 -962 13 -967 8z
m-3603 -6468 c207 -20 323 -37 475 -72 190 -42 457 -139 600 -218 398 -218
685 -511 867 -887 76 -158 148 -373 169 -504 3 -21 8 -48 10 -60 26 -131 37
-265 38 -461 0 -246 -18 -413 -69 -632 -67 -283 -223 -581 -415 -796 -142
-158 -326 -307 -490 -395 -25 -14 -62 -33 -83 -44 -20 -11 -39 -24 -42 -29 -5
-8 31 -79 117 -232 21 -38 38 -70 38 -72 0 -2 17 -34 39 -72 38 -67 74 -133
129 -235 16 -29 46 -84 67 -123 21 -38 50 -92 65 -120 15 -27 149 -275 299
-550 150 -275 289 -529 308 -565 20 -36 49 -89 64 -117 16 -29 42 -77 58 -105
15 -29 45 -84 66 -123 21 -38 44 -79 52 -90 7 -11 13 -23 13 -27 0 -5 -433 -8
-963 -8 l-963 0 -21 38 c-12 20 -41 75 -65 122 -25 47 -63 119 -85 160 -22 41
-71 134 -108 205 -38 72 -77 142 -87 157 -10 14 -18 32 -18 40 0 8 -4 18 -9
23 -11 12 -29 45 -97 173 -60 115 -90 171 -179 337 -103 195 -151 285 -177
335 -13 25 -51 95 -83 155 -87 161 -151 282 -187 353 l-33 62 -307 0 -308 0 0
-1080 0 -1080 -890 0 -890 0 0 3269 c0 2233 3 3270 10 3273 18 6 3022 1 3085
-5z m6103 -167 c39 -96 92 -227 117 -290 26 -63 53 -128 60 -145 21 -46 41
-95 63 -150 11 -27 61 -151 112 -275 51 -124 110 -270 132 -325 22 -55 44
-104 49 -110 5 -5 9 -15 9 -22 0 -7 9 -32 20 -56 10 -23 51 -121 90 -217 65
-161 144 -352 175 -425 7 -16 24 -59 38 -95 27 -68 77 -190 101 -243 7 -18 42
-102 76 -187 135 -333 152 -376 165 -405 26 -59 44 -102 85 -205 23 -58 50
-123 60 -145 10 -22 35 -83 56 -137 36 -92 39 -96 71 -100 18 -2 37 -2 41 1 5
4 32 65 61 136 29 72 59 144 66 160 12 27 264 643 422 1030 36 88 71 174 78
190 7 17 133 323 279 680 271 661 319 777 341 830 7 17 39 93 70 170 31 77 60
149 65 160 6 11 39 92 75 179 35 88 69 162 74 165 5 3 504 6 1108 6 l1098 0 0
-3273 1 -3272 -871 0 -870 0 0 1892 c0 1797 -1 1893 -17 1892 -33 -3 -36 -4
-41 -21 -3 -10 -34 -92 -70 -183 -35 -91 -144 -370 -241 -620 -98 -250 -181
-464 -186 -475 -5 -11 -45 -112 -89 -225 -44 -113 -168 -430 -276 -705 -108
-275 -198 -507 -200 -515 -5 -18 -172 -446 -185 -475 -5 -11 -32 -81 -60 -155
-28 -74 -56 -144 -61 -155 -11 -24 -32 -78 -33 -85 -1 -3 -12 -31 -25 -62
l-23 -57 -525 2 -525 2 -34 90 c-19 50 -48 124 -63 165 -16 41 -102 262 -191
490 -89 228 -163 420 -164 425 -2 6 -8 24 -15 40 -7 17 -35 89 -62 160 -28 72
-56 144 -63 160 -7 17 -30 73 -49 125 -20 52 -66 172 -102 265 -37 94 -77 197
-90 230 -13 33 -60 155 -104 270 -45 116 -95 246 -112 290 -17 44 -34 89 -39
100 -11 23 -69 175 -105 273 -14 37 -30 77 -35 90 -18 40 -28 65 -70 177 -23
61 -48 124 -56 142 -8 17 -14 34 -14 38 0 4 -6 21 -14 38 -7 18 -27 66 -43
107 -25 63 -33 75 -54 78 l-26 3 -1 -1893 c0 -1041 -1 -1899 -1 -1905 -1 -10
-182 -13 -869 -13 l-868 0 0 3270 c0 2876 2 3270 15 3272 8 2 506 3 1106 3
l1092 0 71 -175z"/>
<path d="M4650 10902 l0 -794 418 5 c229 3 433 7 452 11 19 3 66 11 104 17 96
16 240 64 311 104 115 64 223 182 274 300 49 110 78 358 56 480 -27 150 -57
238 -108 315 -16 25 -62 77 -102 116 -115 113 -295 189 -526 225 -44 7 -235
12 -476 13 l-403 2 0 -794z"/>
</g>
</svg>
