<svg width="694" height="527" viewBox="0 0 694 527" fill="none" xmlns="http://www.w3.org/2000/svg">
<path d="M75.6923 29.7273H79.1923V46.2273C79.1923 47.7197 78.8968 48.9962 78.3059 50.0568C77.7226 51.1174 76.9006 51.928 75.84 52.4886C74.7794 53.0417 73.537 53.3182 72.1127 53.3182C70.8021 53.3182 69.6241 53.0795 68.5786 52.6023C67.5408 52.125 66.7188 51.4318 66.1127 50.5227C65.5142 49.6061 65.215 48.4924 65.215 47.1818H68.7036C68.7036 47.8258 68.8514 48.3826 69.1468 48.8523C69.4498 49.322 69.8627 49.6894 70.3855 49.9545C70.9158 50.2121 71.5218 50.3409 72.2036 50.3409C72.9461 50.3409 73.5748 50.1856 74.09 49.875C74.6127 49.5568 75.0105 49.0909 75.2832 48.4773C75.5559 47.8636 75.6923 47.1136 75.6923 46.2273V29.7273ZM91.3499 53.3864C90.2438 53.3864 89.2438 53.1818 88.3499 52.7727C87.4559 52.3561 86.7476 51.7538 86.2249 50.9659C85.7097 50.178 85.4522 49.2121 85.4522 48.0682C85.4522 47.0833 85.6415 46.2727 86.0203 45.6364C86.3991 45 86.9105 44.4962 87.5544 44.125C88.1984 43.7538 88.9181 43.4735 89.7135 43.2841C90.509 43.0947 91.3196 42.9508 92.1453 42.8523C93.1908 42.7311 94.0393 42.6326 94.6908 42.5568C95.3423 42.4735 95.8158 42.3409 96.1112 42.1591C96.4067 41.9773 96.5544 41.6818 96.5544 41.2727V41.1932C96.5544 40.2008 96.2741 39.4318 95.7135 38.8864C95.1605 38.3409 94.3347 38.0682 93.2362 38.0682C92.0923 38.0682 91.1908 38.322 90.5317 38.8295C89.8802 39.3295 89.4294 39.8864 89.1794 40.5L85.9862 39.7727C86.365 38.7121 86.9181 37.8561 87.6453 37.2045C88.3802 36.5455 89.2249 36.0682 90.1794 35.7727C91.134 35.4697 92.1378 35.3182 93.1908 35.3182C93.8878 35.3182 94.6264 35.4015 95.4067 35.5682C96.1946 35.7273 96.9294 36.0227 97.6112 36.4545C98.3006 36.8864 98.865 37.5038 99.3044 38.3068C99.7438 39.1023 99.9635 40.1364 99.9635 41.4091V53H96.6453V50.6136H96.509C96.2893 51.053 95.9597 51.4848 95.5203 51.9091C95.0809 52.3333 94.5165 52.6856 93.8272 52.9659C93.1378 53.2462 92.312 53.3864 91.3499 53.3864ZM92.0885 50.6591C93.0279 50.6591 93.8309 50.4735 94.4976 50.1023C95.1719 49.7311 95.6832 49.2462 96.0317 48.6477C96.3878 48.0417 96.5658 47.3939 96.5658 46.7045V44.4545C96.4446 44.5758 96.2097 44.6894 95.8612 44.7955C95.5203 44.8939 95.1302 44.9811 94.6908 45.0568C94.2514 45.125 93.8234 45.1894 93.4067 45.25C92.99 45.303 92.6415 45.3485 92.3612 45.3864C91.7022 45.4697 91.0999 45.6098 90.5544 45.8068C90.0165 46.0038 89.5847 46.2879 89.259 46.6591C88.9408 47.0227 88.7817 47.5076 88.7817 48.1136C88.7817 48.9545 89.0923 49.5909 89.7135 50.0227C90.3347 50.447 91.1264 50.6591 92.0885 50.6591ZM121.036 35.5455L114.706 53H111.07L104.729 35.5455H108.377L112.797 48.9773H112.979L117.388 35.5455H121.036ZM131.049 53.3864C129.943 53.3864 128.943 53.1818 128.049 52.7727C127.155 52.3561 126.446 51.7538 125.924 50.9659C125.408 50.178 125.151 49.2121 125.151 48.0682C125.151 47.0833 125.34 46.2727 125.719 45.6364C126.098 45 126.609 44.4962 127.253 44.125C127.897 43.7538 128.617 43.4735 129.412 43.2841C130.208 43.0947 131.018 42.9508 131.844 42.8523C132.89 42.7311 133.738 42.6326 134.39 42.5568C135.041 42.4735 135.515 42.3409 135.81 42.1591C136.105 41.9773 136.253 41.6818 136.253 41.2727V41.1932C136.253 40.2008 135.973 39.4318 135.412 38.8864C134.859 38.3409 134.033 38.0682 132.935 38.0682C131.791 38.0682 130.89 38.322 130.23 38.8295C129.579 39.3295 129.128 39.8864 128.878 40.5L125.685 39.7727C126.064 38.7121 126.617 37.8561 127.344 37.2045C128.079 36.5455 128.924 36.0682 129.878 35.7727C130.833 35.4697 131.837 35.3182 132.89 35.3182C133.587 35.3182 134.325 35.4015 135.105 35.5682C135.893 35.7273 136.628 36.0227 137.31 36.4545C137.999 36.8864 138.564 37.5038 139.003 38.3068C139.443 39.1023 139.662 40.1364 139.662 41.4091V53H136.344V50.6136H136.208C135.988 51.053 135.658 51.4848 135.219 51.9091C134.78 52.3333 134.215 52.6856 133.526 52.9659C132.837 53.2462 132.011 53.3864 131.049 53.3864ZM131.787 50.6591C132.727 50.6591 133.53 50.4735 134.196 50.1023C134.871 49.7311 135.382 49.2462 135.73 48.6477C136.087 48.0417 136.265 47.3939 136.265 46.7045V44.4545C136.143 44.5758 135.908 44.6894 135.56 44.7955C135.219 44.8939 134.829 44.9811 134.39 45.0568C133.95 45.125 133.522 45.1894 133.105 45.25C132.689 45.303 132.34 45.3485 132.06 45.3864C131.401 45.4697 130.799 45.6098 130.253 45.8068C129.715 46.0038 129.283 46.2879 128.958 46.6591C128.64 47.0227 128.48 47.5076 128.48 48.1136C128.48 48.9545 128.791 49.5909 129.412 50.0227C130.033 50.447 130.825 50.6591 131.787 50.6591ZM159.394 35.8409C159.273 34.7652 158.773 33.9318 157.894 33.3409C157.015 32.7424 155.909 32.4432 154.576 32.4432C153.621 32.4432 152.795 32.5947 152.098 32.8977C151.401 33.1932 150.86 33.6023 150.473 34.125C150.094 34.6402 149.905 35.2273 149.905 35.8864C149.905 36.4394 150.034 36.9167 150.291 37.3182C150.557 37.7197 150.901 38.0568 151.326 38.3295C151.757 38.5947 152.219 38.8182 152.712 39C153.204 39.1742 153.678 39.3182 154.132 39.4318L156.405 40.0227C157.148 40.2045 157.909 40.4508 158.689 40.7614C159.469 41.072 160.193 41.4811 160.86 41.9886C161.526 42.4962 162.064 43.125 162.473 43.875C162.89 44.625 163.098 45.5227 163.098 46.5682C163.098 47.8864 162.757 49.0568 162.076 50.0795C161.401 51.1023 160.42 51.9091 159.132 52.5C157.852 53.0909 156.303 53.3864 154.485 53.3864C152.742 53.3864 151.235 53.1098 149.962 52.5568C148.689 52.0038 147.693 51.2197 146.973 50.2045C146.254 49.1818 145.856 47.9697 145.78 46.5682H149.303C149.371 47.4091 149.644 48.1098 150.121 48.6705C150.606 49.2235 151.223 49.6364 151.973 49.9091C152.731 50.1742 153.56 50.3068 154.462 50.3068C155.454 50.3068 156.337 50.1515 157.11 49.8409C157.89 49.5227 158.504 49.0833 158.951 48.5227C159.398 47.9545 159.621 47.2917 159.621 46.5341C159.621 45.8447 159.424 45.2803 159.03 44.8409C158.644 44.4015 158.117 44.0379 157.451 43.75C156.791 43.4621 156.045 43.2083 155.212 42.9886L152.462 42.2386C150.598 41.7311 149.121 40.9848 148.03 40C146.947 39.0152 146.405 37.7121 146.405 36.0909C146.405 34.75 146.769 33.5795 147.496 32.5795C148.223 31.5795 149.208 30.803 150.451 30.25C151.693 29.6894 153.094 29.4091 154.655 29.4091C156.231 29.4091 157.621 29.6856 158.826 30.2386C160.038 30.7917 160.992 31.553 161.689 32.5227C162.386 33.4848 162.75 34.5909 162.78 35.8409H159.394ZM176.614 53.3523C174.924 53.3523 173.47 52.9697 172.25 52.2045C171.038 51.4318 170.106 50.3674 169.455 49.0114C168.803 47.6553 168.477 46.1023 168.477 44.3523C168.477 42.5795 168.811 41.0152 169.477 39.6591C170.144 38.2955 171.084 37.2311 172.296 36.4659C173.508 35.7008 174.936 35.3182 176.58 35.3182C177.906 35.3182 179.087 35.5644 180.125 36.0568C181.163 36.5417 182 37.2235 182.637 38.1023C183.281 38.9811 183.663 40.0076 183.784 41.1818H180.477C180.296 40.3636 179.879 39.6591 179.227 39.0682C178.584 38.4773 177.72 38.1818 176.637 38.1818C175.69 38.1818 174.86 38.4318 174.148 38.9318C173.443 39.4242 172.894 40.1288 172.5 41.0455C172.106 41.9545 171.909 43.0303 171.909 44.2727C171.909 45.5455 172.102 46.6439 172.489 47.5682C172.875 48.4924 173.421 49.2083 174.125 49.7159C174.837 50.2235 175.674 50.4773 176.637 50.4773C177.281 50.4773 177.864 50.3598 178.387 50.125C178.917 49.8826 179.36 49.5379 179.716 49.0909C180.08 48.6439 180.334 48.1061 180.477 47.4773H183.784C183.663 48.6061 183.296 49.6136 182.682 50.5C182.068 51.3864 181.246 52.0833 180.216 52.5909C179.193 53.0985 177.993 53.3523 176.614 53.3523ZM189.658 53V35.5455H192.942V38.3182H193.124C193.442 37.3788 194.003 36.6402 194.806 36.1023C195.616 35.5568 196.533 35.2841 197.556 35.2841C197.768 35.2841 198.018 35.2917 198.306 35.3068C198.601 35.322 198.832 35.3409 198.999 35.3636V38.6136C198.862 38.5758 198.62 38.5341 198.271 38.4886C197.923 38.4356 197.575 38.4091 197.226 38.4091C196.423 38.4091 195.707 38.5795 195.078 38.9205C194.457 39.2538 193.965 39.7197 193.601 40.3182C193.237 40.9091 193.056 41.5833 193.056 42.3409V53H189.658ZM204.179 53V35.5455H207.577V53H204.179ZM205.895 32.8523C205.304 32.8523 204.797 32.6553 204.372 32.2614C203.956 31.8598 203.747 31.3826 203.747 30.8295C203.747 30.2689 203.956 29.7917 204.372 29.3977C204.797 28.9962 205.304 28.7955 205.895 28.7955C206.486 28.7955 206.99 28.9962 207.406 29.3977C207.831 29.7917 208.043 30.2689 208.043 30.8295C208.043 31.3826 207.831 31.8598 207.406 32.2614C206.99 32.6553 206.486 32.8523 205.895 32.8523ZM214.388 59.5455V35.5455H217.706V38.375H217.99C218.187 38.0114 218.471 37.5909 218.842 37.1136C219.214 36.6364 219.729 36.2197 220.388 35.8636C221.047 35.5 221.918 35.3182 223.001 35.3182C224.411 35.3182 225.668 35.6742 226.774 36.3864C227.88 37.0985 228.748 38.125 229.376 39.4659C230.013 40.8068 230.331 42.4205 230.331 44.3068C230.331 46.1932 230.017 47.8106 229.388 49.1591C228.759 50.5 227.895 51.5341 226.797 52.2614C225.698 52.9811 224.445 53.3409 223.036 53.3409C221.975 53.3409 221.108 53.1629 220.433 52.8068C219.767 52.4508 219.244 52.0341 218.865 51.5568C218.486 51.0795 218.195 50.6553 217.99 50.2841H217.786V59.5455H214.388ZM217.717 44.2727C217.717 45.5 217.895 46.5758 218.251 47.5C218.608 48.4242 219.123 49.1477 219.797 49.6705C220.471 50.1856 221.297 50.4432 222.274 50.4432C223.289 50.4432 224.138 50.1742 224.82 49.6364C225.501 49.0909 226.017 48.3523 226.365 47.4205C226.721 46.4886 226.899 45.4394 226.899 44.2727C226.899 43.1212 226.725 42.0871 226.376 41.1705C226.036 40.2538 225.52 39.5303 224.831 39C224.149 38.4697 223.297 38.2045 222.274 38.2045C221.289 38.2045 220.456 38.4583 219.774 38.9659C219.1 39.4735 218.589 40.1818 218.24 41.0909C217.892 42 217.717 43.0606 217.717 44.2727ZM244.526 35.5455V38.2727H234.991V35.5455H244.526ZM237.548 31.3636H240.946V47.875C240.946 48.5341 241.045 49.0303 241.241 49.3636C241.438 49.6894 241.692 49.9129 242.003 50.0341C242.321 50.1477 242.666 50.2045 243.037 50.2045C243.31 50.2045 243.548 50.1856 243.753 50.1477C243.957 50.1098 244.116 50.0795 244.23 50.0568L244.844 52.8636C244.647 52.9394 244.366 53.0152 244.003 53.0909C243.639 53.1742 243.185 53.2197 242.639 53.2273C241.745 53.2424 240.912 53.0833 240.139 52.75C239.366 52.4167 238.741 51.9015 238.264 51.2045C237.787 50.5076 237.548 49.6326 237.548 48.5795V31.3636ZM128.026 112.727V136H124.799L112.969 118.932H112.753V136H109.242V112.727H112.492L124.333 129.818H124.549V112.727H128.026ZM142.468 136.352C140.831 136.352 139.403 135.977 138.184 135.227C136.964 134.477 136.017 133.428 135.343 132.08C134.668 130.731 134.331 129.155 134.331 127.352C134.331 125.542 134.668 123.958 135.343 122.602C136.017 121.246 136.964 120.193 138.184 119.443C139.403 118.693 140.831 118.318 142.468 118.318C144.104 118.318 145.532 118.693 146.752 119.443C147.971 120.193 148.918 121.246 149.593 122.602C150.267 123.958 150.604 125.542 150.604 127.352C150.604 129.155 150.267 130.731 149.593 132.08C148.918 133.428 147.971 134.477 146.752 135.227C145.532 135.977 144.104 136.352 142.468 136.352ZM142.479 133.5C143.54 133.5 144.418 133.22 145.115 132.659C145.812 132.098 146.327 131.352 146.661 130.42C147.002 129.489 147.172 128.462 147.172 127.341C147.172 126.227 147.002 125.205 146.661 124.273C146.327 123.333 145.812 122.58 145.115 122.011C144.418 121.443 143.54 121.159 142.479 121.159C141.411 121.159 140.524 121.443 139.82 122.011C139.123 122.58 138.604 123.333 138.263 124.273C137.93 125.205 137.763 126.227 137.763 127.341C137.763 128.462 137.93 129.489 138.263 130.42C138.604 131.352 139.123 132.098 139.82 132.659C140.524 133.22 141.411 133.5 142.479 133.5ZM163.171 136.341C161.762 136.341 160.504 135.981 159.398 135.261C158.299 134.534 157.436 133.5 156.807 132.159C156.186 130.811 155.875 129.193 155.875 127.307C155.875 125.42 156.19 123.807 156.818 122.466C157.455 121.125 158.326 120.098 159.432 119.386C160.538 118.674 161.792 118.318 163.193 118.318C164.277 118.318 165.148 118.5 165.807 118.864C166.474 119.22 166.989 119.636 167.352 120.114C167.724 120.591 168.012 121.011 168.216 121.375H168.421V112.727H171.818V136H168.5V133.284H168.216C168.012 133.655 167.716 134.08 167.33 134.557C166.951 135.034 166.428 135.451 165.762 135.807C165.095 136.163 164.231 136.341 163.171 136.341ZM163.921 133.443C164.898 133.443 165.724 133.186 166.398 132.67C167.08 132.148 167.595 131.424 167.943 130.5C168.299 129.576 168.477 128.5 168.477 127.273C168.477 126.061 168.303 125 167.955 124.091C167.606 123.182 167.095 122.473 166.421 121.966C165.746 121.458 164.913 121.205 163.921 121.205C162.898 121.205 162.046 121.47 161.364 122C160.682 122.53 160.167 123.254 159.818 124.17C159.477 125.087 159.307 126.121 159.307 127.273C159.307 128.439 159.481 129.489 159.83 130.42C160.178 131.352 160.693 132.091 161.375 132.636C162.065 133.174 162.913 133.443 163.921 133.443ZM186.431 136.352C184.711 136.352 183.23 135.985 181.987 135.25C180.753 134.508 179.798 133.466 179.124 132.125C178.457 130.777 178.124 129.197 178.124 127.386C178.124 125.598 178.457 124.023 179.124 122.659C179.798 121.295 180.737 120.231 181.942 119.466C183.154 118.701 184.571 118.318 186.192 118.318C187.177 118.318 188.131 118.481 189.056 118.807C189.98 119.133 190.809 119.644 191.544 120.341C192.279 121.038 192.859 121.943 193.283 123.057C193.707 124.163 193.919 125.508 193.919 127.091V128.295H180.044V125.75H190.59C190.59 124.856 190.408 124.064 190.044 123.375C189.681 122.678 189.169 122.129 188.51 121.727C187.859 121.326 187.093 121.125 186.215 121.125C185.26 121.125 184.427 121.36 183.715 121.83C183.01 122.292 182.465 122.898 182.078 123.648C181.7 124.39 181.51 125.197 181.51 126.068V128.057C181.51 129.223 181.715 130.216 182.124 131.034C182.54 131.852 183.12 132.477 183.862 132.909C184.605 133.333 185.472 133.545 186.465 133.545C187.109 133.545 187.696 133.455 188.226 133.273C188.756 133.083 189.215 132.803 189.601 132.432C189.987 132.061 190.283 131.602 190.487 131.057L193.703 131.636C193.446 132.583 192.984 133.413 192.317 134.125C191.658 134.83 190.828 135.379 189.828 135.773C188.836 136.159 187.703 136.352 186.431 136.352ZM202.168 136.216C201.547 136.216 201.012 135.996 200.565 135.557C200.118 135.11 199.895 134.572 199.895 133.943C199.895 133.322 200.118 132.792 200.565 132.352C201.012 131.905 201.547 131.682 202.168 131.682C202.789 131.682 203.323 131.905 203.77 132.352C204.217 132.792 204.44 133.322 204.44 133.943C204.44 134.36 204.334 134.742 204.122 135.091C203.918 135.432 203.645 135.705 203.304 135.909C202.963 136.114 202.584 136.216 202.168 136.216ZM220.55 112.727H224.05V129.227C224.05 130.72 223.754 131.996 223.163 133.057C222.58 134.117 221.758 134.928 220.697 135.489C219.637 136.042 218.394 136.318 216.97 136.318C215.66 136.318 214.482 136.08 213.436 135.602C212.398 135.125 211.576 134.432 210.97 133.523C210.372 132.606 210.072 131.492 210.072 130.182H213.561C213.561 130.826 213.709 131.383 214.004 131.852C214.307 132.322 214.72 132.689 215.243 132.955C215.773 133.212 216.379 133.341 217.061 133.341C217.804 133.341 218.432 133.186 218.947 132.875C219.47 132.557 219.868 132.091 220.141 131.477C220.413 130.864 220.55 130.114 220.55 129.227V112.727ZM244.207 122.807L241.128 123.352C240.999 122.958 240.795 122.583 240.514 122.227C240.241 121.871 239.87 121.58 239.401 121.352C238.931 121.125 238.344 121.011 237.639 121.011C236.677 121.011 235.874 121.227 235.23 121.659C234.586 122.083 234.264 122.633 234.264 123.307C234.264 123.89 234.48 124.36 234.912 124.716C235.344 125.072 236.041 125.364 237.003 125.591L239.776 126.227C241.382 126.598 242.579 127.17 243.366 127.943C244.154 128.716 244.548 129.72 244.548 130.955C244.548 132 244.245 132.932 243.639 133.75C243.041 134.561 242.204 135.197 241.128 135.659C240.06 136.121 238.821 136.352 237.412 136.352C235.457 136.352 233.863 135.936 232.628 135.102C231.393 134.261 230.635 133.068 230.355 131.523L233.639 131.023C233.844 131.879 234.264 132.527 234.901 132.966C235.537 133.398 236.366 133.614 237.389 133.614C238.503 133.614 239.393 133.383 240.06 132.92C240.726 132.451 241.06 131.879 241.06 131.205C241.06 130.659 240.855 130.201 240.446 129.83C240.045 129.458 239.427 129.178 238.594 128.989L235.639 128.341C234.01 127.97 232.806 127.379 232.026 126.568C231.253 125.758 230.866 124.731 230.866 123.489C230.866 122.458 231.154 121.557 231.73 120.784C232.306 120.011 233.101 119.409 234.116 118.977C235.132 118.538 236.295 118.318 237.605 118.318C239.491 118.318 240.976 118.727 242.06 119.545C243.143 120.356 243.859 121.443 244.207 122.807ZM84.9293 195.727H89.1907L96.5998 213.818H96.8725L104.282 195.727H108.543V219H105.202V202.159H104.986L98.1225 218.966H95.3498L88.4861 202.148H88.2702V219H84.9293V195.727ZM122.968 219.352C121.331 219.352 119.903 218.977 118.684 218.227C117.464 217.477 116.517 216.428 115.843 215.08C115.168 213.731 114.831 212.155 114.831 210.352C114.831 208.542 115.168 206.958 115.843 205.602C116.517 204.246 117.464 203.193 118.684 202.443C119.903 201.693 121.331 201.318 122.968 201.318C124.604 201.318 126.032 201.693 127.252 202.443C128.471 203.193 129.418 204.246 130.093 205.602C130.767 206.958 131.104 208.542 131.104 210.352C131.104 212.155 130.767 213.731 130.093 215.08C129.418 216.428 128.471 217.477 127.252 218.227C126.032 218.977 124.604 219.352 122.968 219.352ZM122.979 216.5C124.04 216.5 124.918 216.22 125.615 215.659C126.312 215.098 126.827 214.352 127.161 213.42C127.502 212.489 127.672 211.462 127.672 210.341C127.672 209.227 127.502 208.205 127.161 207.273C126.827 206.333 126.312 205.58 125.615 205.011C124.918 204.443 124.04 204.159 122.979 204.159C121.911 204.159 121.024 204.443 120.32 205.011C119.623 205.58 119.104 206.333 118.763 207.273C118.43 208.205 118.263 209.227 118.263 210.341C118.263 211.462 118.43 212.489 118.763 213.42C119.104 214.352 119.623 215.098 120.32 215.659C121.024 216.22 121.911 216.5 122.979 216.5ZM140.534 208.636V219H137.137V201.545H140.398V204.386H140.614C141.015 203.462 141.644 202.72 142.5 202.159C143.364 201.598 144.451 201.318 145.762 201.318C146.951 201.318 147.993 201.568 148.887 202.068C149.781 202.561 150.474 203.295 150.966 204.273C151.459 205.25 151.705 206.458 151.705 207.898V219H148.307V208.307C148.307 207.042 147.977 206.053 147.318 205.341C146.659 204.621 145.754 204.261 144.602 204.261C143.815 204.261 143.114 204.432 142.5 204.773C141.894 205.114 141.413 205.614 141.057 206.273C140.709 206.924 140.534 207.712 140.534 208.636ZM165.82 225.909C164.433 225.909 163.24 225.727 162.24 225.364C161.248 225 160.437 224.519 159.808 223.92C159.18 223.322 158.71 222.667 158.399 221.955L161.32 220.75C161.524 221.083 161.797 221.436 162.138 221.807C162.486 222.186 162.956 222.508 163.547 222.773C164.146 223.038 164.914 223.17 165.854 223.17C167.142 223.17 168.206 222.856 169.047 222.227C169.888 221.606 170.308 220.614 170.308 219.25V215.818H170.092C169.888 216.189 169.592 216.602 169.206 217.057C168.827 217.511 168.305 217.905 167.638 218.239C166.971 218.572 166.104 218.739 165.036 218.739C163.657 218.739 162.414 218.417 161.308 217.773C160.21 217.121 159.339 216.163 158.695 214.898C158.058 213.625 157.74 212.061 157.74 210.205C157.74 208.348 158.055 206.758 158.683 205.432C159.32 204.106 160.191 203.091 161.297 202.386C162.403 201.674 163.657 201.318 165.058 201.318C166.142 201.318 167.017 201.5 167.683 201.864C168.35 202.22 168.869 202.636 169.24 203.114C169.619 203.591 169.911 204.011 170.115 204.375H170.365V201.545H173.695V219.386C173.695 220.886 173.346 222.117 172.649 223.08C171.952 224.042 171.009 224.754 169.82 225.216C168.638 225.678 167.305 225.909 165.82 225.909ZM165.786 215.92C166.763 215.92 167.589 215.693 168.263 215.239C168.945 214.777 169.46 214.117 169.808 213.261C170.164 212.398 170.342 211.364 170.342 210.159C170.342 208.985 170.168 207.951 169.82 207.057C169.471 206.163 168.96 205.466 168.286 204.966C167.611 204.458 166.778 204.205 165.786 204.205C164.763 204.205 163.911 204.47 163.229 205C162.547 205.523 162.032 206.235 161.683 207.136C161.342 208.038 161.172 209.045 161.172 210.159C161.172 211.303 161.346 212.307 161.695 213.17C162.043 214.034 162.558 214.708 163.24 215.193C163.93 215.678 164.778 215.92 165.786 215.92ZM187.844 219.352C186.207 219.352 184.779 218.977 183.56 218.227C182.34 217.477 181.393 216.428 180.719 215.08C180.045 213.731 179.707 212.155 179.707 210.352C179.707 208.542 180.045 206.958 180.719 205.602C181.393 204.246 182.34 203.193 183.56 202.443C184.779 201.693 186.207 201.318 187.844 201.318C189.48 201.318 190.908 201.693 192.128 202.443C193.348 203.193 194.295 204.246 194.969 205.602C195.643 206.958 195.98 208.542 195.98 210.352C195.98 212.155 195.643 213.731 194.969 215.08C194.295 216.428 193.348 217.477 192.128 218.227C190.908 218.977 189.48 219.352 187.844 219.352ZM187.855 216.5C188.916 216.5 189.795 216.22 190.492 215.659C191.189 215.098 191.704 214.352 192.037 213.42C192.378 212.489 192.548 211.462 192.548 210.341C192.548 209.227 192.378 208.205 192.037 207.273C191.704 206.333 191.189 205.58 190.492 205.011C189.795 204.443 188.916 204.159 187.855 204.159C186.787 204.159 185.901 204.443 185.196 205.011C184.499 205.58 183.98 206.333 183.639 207.273C183.306 208.205 183.139 209.227 183.139 210.341C183.139 211.462 183.306 212.489 183.639 213.42C183.98 214.352 184.499 215.098 185.196 215.659C185.901 216.22 186.787 216.5 187.855 216.5ZM209.82 219H202.286V195.727H210.058C212.339 195.727 214.297 196.193 215.933 197.125C217.57 198.049 218.823 199.379 219.695 201.114C220.573 202.841 221.013 204.913 221.013 207.33C221.013 209.754 220.57 211.837 219.683 213.58C218.805 215.322 217.532 216.663 215.865 217.602C214.198 218.534 212.183 219 209.82 219ZM205.797 215.932H209.626C211.399 215.932 212.873 215.598 214.047 214.932C215.221 214.258 216.1 213.284 216.683 212.011C217.267 210.731 217.558 209.17 217.558 207.33C217.558 205.504 217.267 203.955 216.683 202.682C216.108 201.409 215.248 200.443 214.104 199.784C212.96 199.125 211.539 198.795 209.842 198.795H205.797V215.932ZM227.619 219V195.727H236.142C237.794 195.727 239.161 196 240.244 196.545C241.328 197.083 242.138 197.814 242.676 198.739C243.214 199.655 243.483 200.689 243.483 201.841C243.483 202.811 243.305 203.629 242.949 204.295C242.593 204.955 242.116 205.485 241.517 205.886C240.926 206.28 240.275 206.568 239.562 206.75V206.977C240.335 207.015 241.089 207.265 241.824 207.727C242.566 208.182 243.18 208.83 243.665 209.67C244.15 210.511 244.392 211.534 244.392 212.739C244.392 213.928 244.112 214.996 243.551 215.943C242.998 216.883 242.142 217.629 240.983 218.182C239.824 218.727 238.343 219 236.54 219H227.619ZM231.131 215.989H236.199C237.881 215.989 239.085 215.663 239.812 215.011C240.54 214.36 240.903 213.545 240.903 212.568C240.903 211.833 240.718 211.159 240.347 210.545C239.975 209.932 239.445 209.443 238.756 209.08C238.074 208.716 237.263 208.534 236.324 208.534H231.131V215.989ZM231.131 205.795H235.835C236.623 205.795 237.331 205.644 237.96 205.341C238.597 205.038 239.1 204.614 239.472 204.068C239.85 203.515 240.04 202.864 240.04 202.114C240.04 201.152 239.703 200.345 239.028 199.693C238.354 199.042 237.32 198.716 235.926 198.716H231.131V205.795ZM193.52 284.841C193.399 283.765 192.899 282.932 192.02 282.341C191.141 281.742 190.035 281.443 188.702 281.443C187.747 281.443 186.922 281.595 186.225 281.898C185.528 282.193 184.986 282.602 184.6 283.125C184.221 283.64 184.031 284.227 184.031 284.886C184.031 285.439 184.16 285.917 184.418 286.318C184.683 286.72 185.028 287.057 185.452 287.33C185.884 287.595 186.346 287.818 186.838 288C187.331 288.174 187.804 288.318 188.259 288.432L190.531 289.023C191.274 289.205 192.035 289.451 192.815 289.761C193.596 290.072 194.319 290.481 194.986 290.989C195.653 291.496 196.19 292.125 196.6 292.875C197.016 293.625 197.225 294.523 197.225 295.568C197.225 296.886 196.884 298.057 196.202 299.08C195.528 300.102 194.547 300.909 193.259 301.5C191.978 302.091 190.429 302.386 188.611 302.386C186.868 302.386 185.361 302.11 184.088 301.557C182.815 301.004 181.819 300.22 181.1 299.205C180.38 298.182 179.982 296.97 179.906 295.568H183.429C183.497 296.409 183.77 297.11 184.247 297.67C184.732 298.223 185.35 298.636 186.1 298.909C186.857 299.174 187.687 299.307 188.588 299.307C189.581 299.307 190.463 299.152 191.236 298.841C192.016 298.523 192.63 298.083 193.077 297.523C193.524 296.955 193.747 296.292 193.747 295.534C193.747 294.845 193.55 294.28 193.156 293.841C192.77 293.402 192.243 293.038 191.577 292.75C190.918 292.462 190.172 292.208 189.338 291.989L186.588 291.239C184.725 290.731 183.247 289.985 182.156 289C181.073 288.015 180.531 286.712 180.531 285.091C180.531 283.75 180.895 282.58 181.622 281.58C182.35 280.58 183.334 279.803 184.577 279.25C185.819 278.689 187.221 278.409 188.781 278.409C190.357 278.409 191.747 278.686 192.952 279.239C194.164 279.792 195.118 280.553 195.815 281.523C196.512 282.485 196.876 283.591 196.906 284.841H193.52ZM212.217 294.455H215.672L218.104 297.625L219.251 299.034L223.126 304.091H219.536L216.945 300.716L216.058 299.489L212.217 294.455ZM223.876 290.364C223.876 292.848 223.422 294.985 222.513 296.773C221.604 298.553 220.358 299.924 218.774 300.886C217.198 301.841 215.407 302.318 213.399 302.318C211.384 302.318 209.585 301.841 208.001 300.886C206.426 299.924 205.183 298.549 204.274 296.761C203.365 294.973 202.911 292.841 202.911 290.364C202.911 287.879 203.365 285.746 204.274 283.966C205.183 282.178 206.426 280.807 208.001 279.852C209.585 278.89 211.384 278.409 213.399 278.409C215.407 278.409 217.198 278.89 218.774 279.852C220.358 280.807 221.604 282.178 222.513 283.966C223.422 285.746 223.876 287.879 223.876 290.364ZM220.399 290.364C220.399 288.47 220.092 286.875 219.479 285.58C218.873 284.277 218.039 283.292 216.979 282.625C215.926 281.951 214.733 281.614 213.399 281.614C212.058 281.614 210.861 281.951 209.808 282.625C208.755 283.292 207.922 284.277 207.308 285.58C206.702 286.875 206.399 288.47 206.399 290.364C206.399 292.258 206.702 293.856 207.308 295.159C207.922 296.455 208.755 297.439 209.808 298.114C210.861 298.78 212.058 299.114 213.399 299.114C214.733 299.114 215.926 298.78 216.979 298.114C218.039 297.439 218.873 296.455 219.479 295.159C220.092 293.856 220.399 292.258 220.399 290.364ZM230.494 302V278.727H234.006V298.977H244.551V302H230.494ZM128.826 385V361.727H137.121C138.932 361.727 140.432 362.057 141.621 362.716C142.81 363.375 143.701 364.277 144.291 365.42C144.882 366.557 145.178 367.837 145.178 369.261C145.178 370.693 144.879 371.981 144.28 373.125C143.689 374.261 142.795 375.163 141.598 375.83C140.409 376.489 138.913 376.818 137.11 376.818H131.405V373.841H136.791C137.935 373.841 138.863 373.644 139.576 373.25C140.288 372.848 140.81 372.303 141.144 371.614C141.477 370.924 141.644 370.14 141.644 369.261C141.644 368.383 141.477 367.602 141.144 366.92C140.81 366.239 140.284 365.705 139.564 365.318C138.852 364.932 137.913 364.739 136.746 364.739H132.337V385H128.826ZM153.409 391.545C152.902 391.545 152.44 391.504 152.023 391.42C151.606 391.345 151.296 391.261 151.091 391.17L151.909 388.386C152.531 388.553 153.084 388.625 153.568 388.602C154.053 388.58 154.481 388.398 154.853 388.057C155.231 387.716 155.565 387.159 155.853 386.386L156.273 385.227L149.887 367.545H153.523L157.943 381.091H158.125L162.546 367.545H166.193L159 387.33C158.667 388.239 158.243 389.008 157.728 389.636C157.212 390.273 156.599 390.75 155.887 391.068C155.174 391.386 154.349 391.545 153.409 391.545ZM179.774 367.545V370.273H170.24V367.545H179.774ZM172.797 363.364H176.195V379.875C176.195 380.534 176.293 381.03 176.49 381.364C176.687 381.689 176.941 381.913 177.252 382.034C177.57 382.148 177.914 382.205 178.286 382.205C178.558 382.205 178.797 382.186 179.002 382.148C179.206 382.11 179.365 382.08 179.479 382.057L180.092 384.864C179.896 384.939 179.615 385.015 179.252 385.091C178.888 385.174 178.433 385.22 177.888 385.227C176.994 385.242 176.161 385.083 175.388 384.75C174.615 384.417 173.99 383.902 173.513 383.205C173.036 382.508 172.797 381.633 172.797 380.58V363.364ZM189.546 374.636V385H186.148V361.727H189.5V370.386H189.716C190.125 369.447 190.75 368.701 191.591 368.148C192.432 367.595 193.53 367.318 194.886 367.318C196.083 367.318 197.129 367.564 198.023 368.057C198.924 368.549 199.621 369.284 200.114 370.261C200.614 371.231 200.864 372.443 200.864 373.898V385H197.466V374.307C197.466 373.027 197.136 372.034 196.477 371.33C195.818 370.617 194.902 370.261 193.727 370.261C192.924 370.261 192.205 370.432 191.568 370.773C190.94 371.114 190.443 371.614 190.08 372.273C189.724 372.924 189.546 373.712 189.546 374.636ZM214.99 385.352C213.354 385.352 211.926 384.977 210.706 384.227C209.486 383.477 208.539 382.428 207.865 381.08C207.191 379.731 206.854 378.155 206.854 376.352C206.854 374.542 207.191 372.958 207.865 371.602C208.539 370.246 209.486 369.193 210.706 368.443C211.926 367.693 213.354 367.318 214.99 367.318C216.626 367.318 218.055 367.693 219.274 368.443C220.494 369.193 221.441 370.246 222.115 371.602C222.789 372.958 223.126 374.542 223.126 376.352C223.126 378.155 222.789 379.731 222.115 381.08C221.441 382.428 220.494 383.477 219.274 384.227C218.055 384.977 216.626 385.352 214.99 385.352ZM215.001 382.5C216.062 382.5 216.941 382.22 217.638 381.659C218.335 381.098 218.85 380.352 219.183 379.42C219.524 378.489 219.695 377.462 219.695 376.341C219.695 375.227 219.524 374.205 219.183 373.273C218.85 372.333 218.335 371.58 217.638 371.011C216.941 370.443 216.062 370.159 215.001 370.159C213.933 370.159 213.047 370.443 212.342 371.011C211.645 371.58 211.126 372.333 210.786 373.273C210.452 374.205 210.286 375.227 210.286 376.341C210.286 377.462 210.452 378.489 210.786 379.42C211.126 380.352 211.645 381.098 212.342 381.659C213.047 382.22 213.933 382.5 215.001 382.5ZM232.557 374.636V385H229.159V367.545H232.42V370.386H232.636C233.038 369.462 233.667 368.72 234.523 368.159C235.386 367.598 236.473 367.318 237.784 367.318C238.973 367.318 240.015 367.568 240.909 368.068C241.803 368.561 242.496 369.295 242.989 370.273C243.481 371.25 243.727 372.458 243.727 373.898V385H240.33V374.307C240.33 373.042 240 372.053 239.341 371.341C238.682 370.621 237.777 370.261 236.625 370.261C235.837 370.261 235.136 370.432 234.523 370.773C233.917 371.114 233.436 371.614 233.08 372.273C232.731 372.924 232.557 373.712 232.557 374.636ZM170.717 450.841C170.596 449.765 170.096 448.932 169.217 448.341C168.339 447.742 167.233 447.443 165.899 447.443C164.945 447.443 164.119 447.595 163.422 447.898C162.725 448.193 162.183 448.602 161.797 449.125C161.418 449.64 161.229 450.227 161.229 450.886C161.229 451.439 161.358 451.917 161.615 452.318C161.88 452.72 162.225 453.057 162.649 453.33C163.081 453.595 163.543 453.818 164.036 454C164.528 454.174 165.002 454.318 165.456 454.432L167.729 455.023C168.471 455.205 169.233 455.451 170.013 455.761C170.793 456.072 171.517 456.481 172.183 456.989C172.85 457.496 173.388 458.125 173.797 458.875C174.214 459.625 174.422 460.523 174.422 461.568C174.422 462.886 174.081 464.057 173.399 465.08C172.725 466.102 171.744 466.909 170.456 467.5C169.176 468.091 167.627 468.386 165.808 468.386C164.066 468.386 162.558 468.11 161.286 467.557C160.013 467.004 159.017 466.22 158.297 465.205C157.577 464.182 157.18 462.97 157.104 461.568H160.627C160.695 462.409 160.967 463.11 161.445 463.67C161.93 464.223 162.547 464.636 163.297 464.909C164.055 465.174 164.884 465.307 165.786 465.307C166.778 465.307 167.661 465.152 168.433 464.841C169.214 464.523 169.827 464.083 170.274 463.523C170.721 462.955 170.945 462.292 170.945 461.534C170.945 460.845 170.748 460.28 170.354 459.841C169.967 459.402 169.441 459.038 168.774 458.75C168.115 458.462 167.369 458.208 166.536 457.989L163.786 457.239C161.922 456.731 160.445 455.985 159.354 455C158.271 454.015 157.729 452.712 157.729 451.091C157.729 449.75 158.092 448.58 158.82 447.58C159.547 446.58 160.532 445.803 161.774 445.25C163.017 444.689 164.418 444.409 165.979 444.409C167.555 444.409 168.945 444.686 170.149 445.239C171.361 445.792 172.316 446.553 173.013 447.523C173.71 448.485 174.074 449.591 174.104 450.841H170.717ZM182.636 468H178.909L187.284 444.727H191.341L199.716 468H195.989L189.409 448.955H189.227L182.636 468ZM183.261 458.886H195.352V461.841H183.261V458.886ZM217.822 450.841C217.701 449.765 217.201 448.932 216.322 448.341C215.444 447.742 214.338 447.443 213.004 447.443C212.05 447.443 211.224 447.595 210.527 447.898C209.83 448.193 209.288 448.602 208.902 449.125C208.523 449.64 208.334 450.227 208.334 450.886C208.334 451.439 208.463 451.917 208.72 452.318C208.985 452.72 209.33 453.057 209.754 453.33C210.186 453.595 210.648 453.818 211.141 454C211.633 454.174 212.107 454.318 212.561 454.432L214.834 455.023C215.576 455.205 216.338 455.451 217.118 455.761C217.898 456.072 218.622 456.481 219.288 456.989C219.955 457.496 220.493 458.125 220.902 458.875C221.319 459.625 221.527 460.523 221.527 461.568C221.527 462.886 221.186 464.057 220.504 465.08C219.83 466.102 218.849 466.909 217.561 467.5C216.281 468.091 214.732 468.386 212.913 468.386C211.171 468.386 209.663 468.11 208.391 467.557C207.118 467.004 206.122 466.22 205.402 465.205C204.682 464.182 204.285 462.97 204.209 461.568H207.732C207.8 462.409 208.072 463.11 208.55 463.67C209.035 464.223 209.652 464.636 210.402 464.909C211.16 465.174 211.989 465.307 212.891 465.307C213.883 465.307 214.766 465.152 215.538 464.841C216.319 464.523 216.932 464.083 217.379 463.523C217.826 462.955 218.05 462.292 218.05 461.534C218.05 460.845 217.853 460.28 217.459 459.841C217.072 459.402 216.546 459.038 215.879 458.75C215.22 458.462 214.474 458.208 213.641 457.989L210.891 457.239C209.027 456.731 207.55 455.985 206.459 455C205.376 454.015 204.834 452.712 204.834 451.091C204.834 449.75 205.197 448.58 205.925 447.58C206.652 446.58 207.637 445.803 208.879 445.25C210.122 444.689 211.523 444.409 213.084 444.409C214.66 444.409 216.05 444.686 217.254 445.239C218.466 445.792 219.421 446.553 220.118 447.523C220.815 448.485 221.179 449.591 221.209 450.841H217.822ZM240.656 450.841C240.535 449.765 240.035 448.932 239.156 448.341C238.277 447.742 237.171 447.443 235.838 447.443C234.884 447.443 234.058 447.595 233.361 447.898C232.664 448.193 232.122 448.602 231.736 449.125C231.357 449.64 231.168 450.227 231.168 450.886C231.168 451.439 231.296 451.917 231.554 452.318C231.819 452.72 232.164 453.057 232.588 453.33C233.02 453.595 233.482 453.818 233.974 454C234.467 454.174 234.94 454.318 235.395 454.432L237.668 455.023C238.41 455.205 239.171 455.451 239.952 455.761C240.732 456.072 241.455 456.481 242.122 456.989C242.789 457.496 243.327 458.125 243.736 458.875C244.152 459.625 244.361 460.523 244.361 461.568C244.361 462.886 244.02 464.057 243.338 465.08C242.664 466.102 241.683 466.909 240.395 467.5C239.115 468.091 237.565 468.386 235.747 468.386C234.005 468.386 232.497 468.11 231.224 467.557C229.952 467.004 228.955 466.22 228.236 465.205C227.516 464.182 227.118 462.97 227.043 461.568H230.565C230.634 462.409 230.906 463.11 231.384 463.67C231.868 464.223 232.486 464.636 233.236 464.909C233.993 465.174 234.823 465.307 235.724 465.307C236.717 465.307 237.599 465.152 238.372 464.841C239.152 464.523 239.766 464.083 240.213 463.523C240.66 462.955 240.884 462.292 240.884 461.534C240.884 460.845 240.687 460.28 240.293 459.841C239.906 459.402 239.38 459.038 238.713 458.75C238.054 458.462 237.308 458.208 236.474 457.989L233.724 457.239C231.861 456.731 230.384 455.985 229.293 455C228.209 454.015 227.668 452.712 227.668 451.091C227.668 449.75 228.031 448.58 228.759 447.58C229.486 446.58 230.471 445.803 231.713 445.25C232.955 444.689 234.357 444.409 235.918 444.409C237.493 444.409 238.884 444.686 240.088 445.239C241.3 445.792 242.255 446.553 242.952 447.523C243.649 448.485 244.012 449.591 244.043 450.841H240.656Z" fill="white"/>
<rect x="479" y="35" width="14" height="426" fill="#343232"/>
<rect x="348" y="35" width="138" height="8" fill="#343232"/>
<rect x="348" y="125" width="138" height="8" fill="#343232"/>
<rect x="348" y="202" width="138" height="8" fill="#343232"/>
<rect x="493" y="237" width="138" height="8" fill="#343232"/>
<rect x="348" y="284" width="138" height="8" fill="#343232"/>
<rect x="345" y="371" width="138" height="8" fill="#343232"/>
<rect x="345" y="453" width="138" height="8" fill="#343232"/>
<path d="M693.5 242.5L638 216V267L693.5 242.5Z" fill="#343232"/>
<path d="M321.874 305.588C306.78 314.295 289.505 309.215 282.755 305.588V312.042C285.17 316.395 293.908 317.484 297.975 317.484H309.925C316.465 317.079 320.616 313.434 321.874 311.662V305.588Z" fill="#D9D9D9"/>
<path d="M309.799 317.484C304.969 318.496 298.394 317.779 295.711 317.357L303.887 313.181C307.87 314.193 314.629 316.471 309.799 317.484Z" fill="#D9D9D9"/>
<path d="M322 281.921C304.994 290.426 288.751 285.465 282.755 281.921V288.123C302.579 299.057 317.178 292.679 322 288.123V281.921Z" fill="#D9D9D9"/>
<path d="M322 293.691C307.409 301.791 289.757 297.066 282.755 293.691L282.252 300.399C284.767 303.639 292.776 305.377 296.465 305.841C299.585 306.549 306.486 306.136 309.547 305.841C317.799 304.626 321.287 301.369 322 299.892V293.691Z" fill="#D9D9D9"/>
<path d="M321.748 275.467C321.748 279.591 312.85 282.934 301.874 282.934C290.898 282.934 282 279.591 282 275.467C282 271.343 290.898 268 301.874 268C312.85 268 321.748 271.343 321.748 275.467Z" fill="#D9D9D9"/>
<path d="M302 99L327.981 114V144L302 159L276.019 144V114L302 99Z" fill="#D9D9D9"/>
<g clip-path="url(#clip0_2_204)">
<path d="M302 232C315.807 232 327 220.807 327 207C327 193.193 315.807 182 302 182C288.193 182 277 193.193 277 207C277 220.807 288.193 232 302 232Z" fill="#D9D9D9"/>
<path d="M308.683 203.945C307.104 196.976 303.372 194.685 302.97 193.809C302.53 193.191 302.085 192.093 302.085 192.093C302.078 192.074 302.066 192.042 302.052 192.01C302.007 192.627 301.983 192.866 301.399 193.489C300.495 194.196 295.855 198.089 295.478 206.007C295.126 213.392 300.812 217.792 301.582 218.353L301.669 218.415V218.41C301.674 218.447 301.913 220.167 302.081 221.991H302.684C302.825 220.702 303.037 219.422 303.318 218.156L303.367 218.125C303.711 217.878 304.039 217.61 304.349 217.321L304.384 217.29C306.019 215.779 308.958 212.286 308.929 206.717C308.923 205.788 308.841 204.861 308.683 203.945ZM302.017 214.184C302.017 214.184 302.017 203.826 302.359 203.828C302.625 203.828 302.971 217.188 302.971 217.188C302.496 217.131 302.017 214.989 302.017 214.184Z" fill="#262626"/>
</g>
<rect x="279" y="15" width="48" height="45" fill="#D9D9D9"/>
<path d="M304.259 38.3636H306.35V46.5455C306.346 47.2955 306.187 47.9413 305.873 48.483C305.559 49.0208 305.119 49.4356 304.555 49.7273C303.994 50.0152 303.341 50.1591 302.594 50.1591C301.913 50.1591 301.299 50.0379 300.754 49.7955C300.212 49.5492 299.782 49.1856 299.464 48.7045C299.146 48.2235 298.987 47.625 298.987 46.9091H301.083C301.087 47.2235 301.155 47.4943 301.288 47.7216C301.424 47.9489 301.612 48.1231 301.85 48.2443C302.089 48.3655 302.363 48.4261 302.674 48.4261C303.011 48.4261 303.297 48.3561 303.532 48.2159C303.767 48.072 303.945 47.8598 304.066 47.5795C304.191 47.2992 304.255 46.9545 304.259 46.5455V38.3636ZM316.081 41.5625C316.028 41.0663 315.804 40.6799 315.411 40.4034C315.02 40.1269 314.513 39.9886 313.888 39.9886C313.448 39.9886 313.071 40.0549 312.757 40.1875C312.443 40.3201 312.202 40.5 312.036 40.7273C311.869 40.9545 311.784 41.214 311.78 41.5057C311.78 41.7481 311.835 41.9583 311.945 42.1364C312.058 42.3144 312.212 42.4659 312.405 42.5909C312.598 42.7121 312.812 42.8144 313.047 42.8977C313.282 42.9811 313.518 43.0511 313.757 43.108L314.848 43.3807C315.287 43.483 315.71 43.6212 316.115 43.7955C316.524 43.9697 316.89 44.1894 317.212 44.4545C317.537 44.7197 317.795 45.0398 317.984 45.4148C318.174 45.7898 318.268 46.2292 318.268 46.733C318.268 47.4148 318.094 48.0152 317.746 48.5341C317.397 49.0492 316.893 49.4527 316.234 49.7443C315.579 50.0322 314.786 50.1761 313.854 50.1761C312.948 50.1761 312.162 50.036 311.496 49.7557C310.833 49.4754 310.314 49.0663 309.939 48.5284C309.568 47.9905 309.367 47.3352 309.337 46.5625H311.411C311.441 46.9678 311.566 47.3049 311.786 47.5739C312.005 47.8428 312.291 48.0436 312.643 48.1761C313 48.3087 313.397 48.375 313.837 48.375C314.295 48.375 314.696 48.3068 315.041 48.1705C315.39 48.0303 315.662 47.8371 315.859 47.5909C316.056 47.3409 316.157 47.0492 316.161 46.7159C316.157 46.4129 316.068 46.1629 315.893 45.9659C315.719 45.7652 315.475 45.5985 315.161 45.4659C314.85 45.3295 314.486 45.2083 314.07 45.1023L312.746 44.7614C311.787 44.5152 311.03 44.142 310.473 43.642C309.92 43.1383 309.643 42.4697 309.643 41.6364C309.643 40.9508 309.829 40.3504 310.2 39.8352C310.575 39.3201 311.085 38.9205 311.729 38.6364C312.373 38.3485 313.102 38.2045 313.916 38.2045C314.742 38.2045 315.465 38.3485 316.087 38.6364C316.712 38.9205 317.202 39.3163 317.558 39.8239C317.914 40.3277 318.098 40.9072 318.109 41.5625H316.081Z" fill="#262626"/>
<g clip-path="url(#clip1_2_204)">
<path d="M300.5 404C315.136 404 327 392.136 327 377.5C327 362.864 315.136 351 300.5 351C285.864 351 274 362.864 274 377.5C274 392.136 285.864 404 300.5 404Z" fill="#D9D9D9"/>
<path d="M300.403 364.325C293.68 364.325 294.099 367.239 294.099 367.239L294.104 370.262H300.522V371.168H291.557C291.557 371.168 287.256 370.681 287.256 377.467C287.256 384.252 291.014 384.009 291.014 384.009H293.255V380.862C293.255 380.862 293.136 377.104 296.951 377.104H303.317C303.317 377.104 306.893 377.161 306.893 373.647V367.84C306.893 367.84 307.432 364.325 300.403 364.325V364.325ZM296.868 366.359C297.504 366.359 298.022 366.877 298.022 367.514C298.022 368.15 297.504 368.668 296.868 368.668C296.231 368.668 295.714 368.15 295.714 367.514C295.714 366.877 296.226 366.359 296.868 366.359V366.359ZM300.594 390.675C307.318 390.675 306.898 387.761 306.898 387.761L306.893 384.739H300.475V383.833H309.44C309.44 383.833 313.741 384.319 313.741 377.534C313.741 370.748 309.983 370.992 309.983 370.992H307.742V374.139C307.742 374.139 307.861 377.896 304.047 377.896H297.68C297.68 377.896 294.104 377.839 294.104 381.354V387.161C294.104 387.161 293.571 390.675 300.594 390.675ZM304.135 388.641C303.498 388.641 302.98 388.124 302.98 387.487C302.98 386.85 303.498 386.333 304.135 386.333C304.771 386.333 305.289 386.85 305.289 387.487C305.289 388.129 304.771 388.641 304.135 388.641Z" fill="#262626"/>
</g>
<g clip-path="url(#clip2_2_204)">
<path d="M290.287 464.383C289.324 464.909 287.874 465.761 286.752 466.688C284.91 468.208 284.524 470.316 285.496 470.808C286.395 471.264 288.494 470.722 289.996 469.291C291.572 467.788 292.222 465.883 291.551 463.721C291.472 463.762 291.394 463.803 291.318 463.841L291.32 463.844L291.218 463.895C290.826 464.099 290.506 464.268 290.287 464.383V464.383ZM317.34 463.701C316.795 464.736 316.767 465.069 316.933 465.173C317.724 464.925 319.033 464.326 319.044 462.722C319.045 462.482 318.985 462.225 318.887 461.955C318.042 462.61 317.554 463.295 317.34 463.701ZM325.83 460.571C323.717 460.356 322.067 460.615 320.787 461.081C321.024 461.619 321.206 462.181 321.232 462.746C321.292 463.988 320.314 464.906 319.294 465.562C318.699 465.944 318.066 466.199 317.534 466.353C317.109 466.51 316.544 466.672 316.143 466.6C315.259 466.443 314.788 465.757 315.39 464.244C315.715 463.425 316.652 462.178 318.164 461.104C317.82 460.484 317.435 459.853 317.24 459.272C316.854 458.128 316.737 457.436 316.737 457.436C316.737 457.436 315.49 459.695 313.882 461.748C313.789 461.868 313.697 461.984 313.604 462.101C313.92 462.743 314.169 463.421 314.202 464.105C314.262 465.346 313.646 466.284 312.626 466.939C312.073 467.295 311.484 467.54 310.978 467.697C310.655 467.82 309.997 468.023 309.062 468.078C308.55 468.108 308.058 468.081 307.783 467.899C307.405 467.649 307.359 467.341 307.555 466.92C307.721 466.563 308.96 465.327 309.999 464.245C310.276 463.956 310.544 463.66 310.804 463.358L310.798 463.347C310.798 463.347 310.986 463.134 311.291 462.764C310.911 462.05 310.43 461.306 310.204 460.632C309.818 459.488 309.701 458.796 309.701 458.796C309.701 458.796 308.437 461.626 307.121 463.886C306.102 465.635 305.422 466.696 305.115 467.161L305.112 467.179C305.112 467.179 305.066 467.247 304.987 467.353L304.928 467.439L304.927 467.431C304.585 467.872 303.818 468.736 303.056 468.736C300.963 468.736 301.731 465.023 301.731 465.023C301.731 465.023 301.119 466.399 300.43 467.579C299.868 468.541 299.356 469.356 298.237 469.356C297.915 469.356 297.405 469.348 296.981 468.996C296.02 468.199 295.285 466.173 295.429 464.604C295.552 463.27 295.787 462.345 296.109 461.575C295.466 461.88 294.828 462.195 294.196 462.519L293.157 463.053L293.191 463.107C294.05 464.559 294.279 467.741 292.405 470.183C290.531 472.627 287.043 474.114 283.645 473.288C282.548 473.021 280.891 471.04 282.32 468.277C283.581 465.841 288.618 463.538 289.945 462.963L290.31 462.788C287.663 460.765 281.054 458.036 280.128 453.843C279.866 452.663 280.5 449.841 284.466 446.597C287.802 443.869 292.443 441.779 296.731 440.448C303.933 438.211 311.543 439.53 312.714 443.542C313.865 447.487 309.947 452.207 304.93 453.903C300.45 455.418 296.746 455.178 295.224 454.741C293.494 454.244 292.48 453.247 292.232 452.685C292.135 452.464 291.968 452.094 292.232 451.966C292.395 451.888 292.46 451.907 292.894 452.326C293.308 452.724 294.969 453.793 298.125 453.484C306.406 452.673 311.394 447.048 309.818 444.021C308.714 441.903 302.331 440.947 294.357 444.421C284.622 448.661 284.094 452.156 284.011 453.484C283.783 457.136 289.166 459.056 292.079 461.772L292.191 461.88C292.736 461.617 293.312 461.34 293.877 461.069C295.042 460.51 296.209 459.951 297.376 459.395C298.401 458.093 300.481 456.656 301.983 456.656C304.384 456.656 303.56 459.671 303.56 459.671C303.56 459.671 303.608 459.533 303.674 459.532C303.742 459.53 304.006 459.134 304.747 459.371C305.51 459.615 305.336 460.083 305.341 460.13C305.35 460.223 304.441 462.903 304.063 464.622C303.882 465.443 303.986 466.04 304.04 466.04C304.114 466.04 304.266 465.832 304.407 465.608L304.404 465.601C304.404 465.601 304.51 465.431 304.688 465.126L304.723 465.062L304.725 465.065C305.019 464.557 305.301 464.044 305.569 463.526C306.236 462.243 308.779 457.287 308.995 456.739C309.21 456.191 309.323 455.624 309.429 455.38C309.534 455.138 310.433 454.954 311.484 454.961C312.535 454.968 312.641 455.359 312.649 455.44C312.656 455.521 312.149 456.609 312.032 457.377C311.917 458.146 312.028 458.529 312.123 459.175C312.186 459.597 312.488 460.132 312.845 460.738C313.932 459.185 315.845 456.214 316.029 455.382C316.155 454.813 316.357 454.267 316.464 454.024C316.57 453.781 317.467 453.598 318.518 453.604C319.569 453.611 319.675 454.003 319.683 454.083C319.691 454.165 319.182 455.252 319.066 456.021C318.951 456.788 319.062 457.173 319.157 457.818C319.24 458.37 319.728 459.112 320.213 459.956C321.536 459.387 323.092 459.005 324.915 458.997C325.669 458.993 326.546 459.059 326.998 459.182V446.483C326.998 445.587 326.473 444.761 325.585 444.313L301.87 432.339C301.435 432.119 300.942 432.004 300.44 432.004C299.938 432.004 299.445 432.119 299.01 432.339L275.361 444.308C274.474 444.755 274 445.582 274 446.477V470.435C274 471.33 274.477 472.157 275.362 472.604L299.05 484.582C299.482 484.802 299.974 484.919 300.474 484.919C300.975 484.919 301.466 484.802 301.898 484.582L325.597 472.604C326.483 472.156 327 471.33 327 470.435V460.753C326.699 460.675 326.259 460.614 325.83 460.571V460.571ZM300.318 459.316C299.809 459.814 298.942 461.098 298.536 462.172C297.73 464.305 298.079 466.473 298.65 466.603C299.317 466.755 300.41 463.904 300.934 462.789C301.262 462.09 302.538 458.991 302.258 458.577C302.04 458.253 301.136 458.515 300.318 459.316V459.316ZM309.544 466.506C309.544 466.506 309.383 466.639 309.452 466.676C309.546 466.725 309.75 466.661 309.972 466.56C310.599 466.215 312.007 465.355 312.01 464.082C312.01 464.045 312.008 464.009 312.005 463.97C311.714 464.304 311.419 464.634 311.118 464.961C310.675 465.443 309.544 466.506 309.544 466.506Z" fill="#D9D9D9"/>
</g>
<defs>
<clipPath id="clip0_2_204">
<rect width="50" height="50" fill="white" transform="translate(277 182)"/>
</clipPath>
<clipPath id="clip1_2_204">
<rect width="53" height="53" fill="white" transform="translate(274 351)"/>
</clipPath>
<clipPath id="clip2_2_204">
<rect width="53" height="53" fill="white" transform="translate(274 432)"/>
</clipPath>
</defs>
</svg>
